STARTFONT 2.1
FONT -misc-CALL3327_2-medium-r-normal--32-320-75-75-c-140-iso10646-1
SIZE 32 75 75
FONTBOUNDINGBOX 14 32 0 0
STARTPROPERTIES 2
FONT_ASCENT 32
FONT_DESCENT 0
ENDPROPERTIES
CHARS 11463
STARTCHAR U+0020
ENCODING 32
SWIDTH 500
DWIDTH 14 0
BBX 14 32 0 0
BITMAP
0000
0000
0000
0000
0000
0000
0000
0000
0000
0000
0000
0000
0000
0000
0000
0000
0000
0000
0000
0000
0000
0000
0000
0000
0000
0000
0000
0000
0000
0000
0000
0000
ENDCHAR

STARTCHAR U+0021
ENCODING 33
SWIDTH 500
DWIDTH 14 0
BBX 14 32 0 0
BITMAP
0300
0300
0300
0300
0300
0300
0300
0300
0300
0300
0000
0000
0300
0300
0000
0000
0000
0000
0000
0000
0000
0000
0000
0000
0000
0000
0000
0000
0000
0000
0000
0000
ENDCHAR

STARTCHAR U+0022
ENCODING 34
SWIDTH 500
DWIDTH 14 0
BBX 14 32 0 0
BITMAP
0CC0
0CC0
0CC0
0CC0
0CC0
0CC0
0000
0000
0000
0000
0000
0000
0000
0000
0000
0000
0000
0000
0000
0000
0000
0000
0000
0000
0000
0000
0000
0000
0000
0000
0000
0000
ENDCHAR

STARTCHAR U+0023
ENCODING 35
SWIDTH 500
DWIDTH 14 0
BBX 14 32 0 0
BITMAP
0CC0
0CC0
0CC0
0CC0
3FF0
3FF0
0CC0
0CC0
3FF0
3FF0
0CC0
0CC0
0CC0
0CC0
0000
0000
0000
0000
0000
0000
0000
0000
0000
0000
0000
0000
0000
0000
0000
0000
0000
0000
ENDCHAR

STARTCHAR U+0024
ENCODING 36
SWIDTH 500
DWIDTH 14 0
BBX 14 32 0 0
BITMAP
0300
0300
0FF0
0FF0
3300
3300
0FC0
0FC0
0330
0330
3FC0
3FC0
0300
0300
0000
0000
0000
0000
0000
0000
0000
0000
0000
0000
0000
0000
0000
0000
0000
0000
0000
0000
ENDCHAR

STARTCHAR U+0025
ENCODING 37
SWIDTH 500
DWIDTH 14 0
BBX 14 32 0 0
BITMAP
3C00
3C00
3C30
3C30
00C0
00C0
0300
0300
0C00
0C00
30F0
30F0
00F0
00F0
0000
0000
0000
0000
0000
0000
0000
0000
0000
0000
0000
0000
0000
0000
0000
0000
0000
0000
ENDCHAR

STARTCHAR U+0026
ENCODING 38
SWIDTH 500
DWIDTH 14 0
BBX 14 32 0 0
BITMAP
0C00
0C00
3300
3300
3300
3300
0C00
0C00
3330
3330
30C0
30C0
0F30
0F30
0000
0000
0000
0000
0000
0000
0000
0000
0000
0000
0000
0000
0000
0000
0000
0000
0000
0000
ENDCHAR

STARTCHAR U+0027
ENCODING 39
SWIDTH 500
DWIDTH 14 0
BBX 14 32 0 0
BITMAP
0300
0300
0300
0300
0300
0300
0000
0000
0000
0000
0000
0000
0000
0000
0000
0000
0000
0000
0000
0000
0000
0000
0000
0000
0000
0000
0000
0000
0000
0000
0000
0000
ENDCHAR

STARTCHAR U+0028
ENCODING 40
SWIDTH 500
DWIDTH 14 0
BBX 14 32 0 0
BITMAP
0300
0300
0C00
0C00
3000
3000
3000
3000
3000
3000
0C00
0C00
0300
0300
0000
0000
0000
0000
0000
0000
0000
0000
0000
0000
0000
0000
0000
0000
0000
0000
0000
0000
ENDCHAR

STARTCHAR U+0029
ENCODING 41
SWIDTH 500
DWIDTH 14 0
BBX 14 32 0 0
BITMAP
0300
0300
00C0
00C0
0030
0030
0030
0030
0030
0030
00C0
00C0
0300
0300
0000
0000
0000
0000
0000
0000
0000
0000
0000
0000
0000
0000
0000
0000
0000
0000
0000
0000
ENDCHAR

STARTCHAR U+002a
ENCODING 42
SWIDTH 500
DWIDTH 14 0
BBX 14 32 0 0
BITMAP
0300
0300
3330
3330
0FC0
0FC0
0300
0300
0FC0
0FC0
3330
3330
0300
0300
0000
0000
0000
0000
0000
0000
0000
0000
0000
0000
0000
0000
0000
0000
0000
0000
0000
0000
ENDCHAR

STARTCHAR U+002b
ENCODING 43
SWIDTH 500
DWIDTH 14 0
BBX 14 32 0 0
BITMAP
0000
0000
0300
0300
0300
0300
3FF0
3FF0
0300
0300
0300
0300
0000
0000
0000
0000
0000
0000
0000
0000
0000
0000
0000
0000
0000
0000
0000
0000
0000
0000
0000
0000
ENDCHAR

STARTCHAR U+002c
ENCODING 44
SWIDTH 500
DWIDTH 14 0
BBX 14 32 0 0
BITMAP
0000
0000
0000
0000
0000
0000
0000
0000
0300
0300
0300
0300
0C00
0C00
0000
0000
0000
0000
0000
0000
0000
0000
0000
0000
0000
0000
0000
0000
0000
0000
0000
0000
ENDCHAR

STARTCHAR U+002d
ENCODING 45
SWIDTH 500
DWIDTH 14 0
BBX 14 32 0 0
BITMAP
0000
0000
0000
0000
0000
0000
3FF0
3FF0
0000
0000
0000
0000
0000
0000
0000
0000
0000
0000
0000
0000
0000
0000
0000
0000
0000
0000
0000
0000
0000
0000
0000
0000
ENDCHAR

STARTCHAR U+002e
ENCODING 46
SWIDTH 500
DWIDTH 14 0
BBX 14 32 0 0
BITMAP
0000
0000
0000
0000
0000
0000
0000
0000
0000
0000
0000
0000
0300
0300
0000
0000
0000
0000
0000
0000
0000
0000
0000
0000
0000
0000
0000
0000
0000
0000
0000
0000
ENDCHAR

STARTCHAR U+002f
ENCODING 47
SWIDTH 500
DWIDTH 14 0
BBX 14 32 0 0
BITMAP
0000
0000
0030
0030
00C0
00C0
0300
0300
0C00
0C00
3000
3000
0000
0000
0000
0000
0000
0000
0000
0000
0000
0000
0000
0000
0000
0000
0000
0000
0000
0000
0000
0000
ENDCHAR

STARTCHAR U+0030
ENCODING 48
SWIDTH 500
DWIDTH 14 0
BBX 14 32 0 0
BITMAP
0FC0
0FC0
3030
3030
30F0
30F0
3330
3330
3C30
3C30
3030
3030
0FC0
0FC0
0000
0000
0000
0000
0000
0000
0000
0000
0000
0000
0000
0000
0000
0000
0000
0000
0000
0000
ENDCHAR

STARTCHAR U+0031
ENCODING 49
SWIDTH 500
DWIDTH 14 0
BBX 14 32 0 0
BITMAP
0300
0300
0F00
0F00
0300
0300
0300
0300
0300
0300
0300
0300
0FC0
0FC0
0000
0000
0000
0000
0000
0000
0000
0000
0000
0000
0000
0000
0000
0000
0000
0000
0000
0000
ENDCHAR

STARTCHAR U+0032
ENCODING 50
SWIDTH 500
DWIDTH 14 0
BBX 14 32 0 0
BITMAP
0FC0
0FC0
3030
3030
0030
0030
03C0
03C0
0C00
0C00
3000
3000
3FF0
3FF0
0000
0000
0000
0000
0000
0000
0000
0000
0000
0000
0000
0000
0000
0000
0000
0000
0000
0000
ENDCHAR

STARTCHAR U+0033
ENCODING 51
SWIDTH 500
DWIDTH 14 0
BBX 14 32 0 0
BITMAP
3FF0
3FF0
0030
0030
00C0
00C0
03C0
03C0
0030
0030
3030
3030
0FC0
0FC0
0000
0000
0000
0000
0000
0000
0000
0000
0000
0000
0000
0000
0000
0000
0000
0000
0000
0000
ENDCHAR

STARTCHAR U+0034
ENCODING 52
SWIDTH 500
DWIDTH 14 0
BBX 14 32 0 0
BITMAP
00C0
00C0
03C0
03C0
0CC0
0CC0
30C0
30C0
3FF0
3FF0
00C0
00C0
00C0
00C0
0000
0000
0000
0000
0000
0000
0000
0000
0000
0000
0000
0000
0000
0000
0000
0000
0000
0000
ENDCHAR

STARTCHAR U+0035
ENCODING 53
SWIDTH 500
DWIDTH 14 0
BBX 14 32 0 0
BITMAP
3FF0
3FF0
3000
3000
3FC0
3FC0
0030
0030
0030
0030
3030
3030
0FC0
0FC0
0000
0000
0000
0000
0000
0000
0000
0000
0000
0000
0000
0000
0000
0000
0000
0000
0000
0000
ENDCHAR

STARTCHAR U+0036
ENCODING 54
SWIDTH 500
DWIDTH 14 0
BBX 14 32 0 0
BITMAP
03F0
03F0
0C00
0C00
3000
3000
3FC0
3FC0
3030
3030
3030
3030
0FC0
0FC0
0000
0000
0000
0000
0000
0000
0000
0000
0000
0000
0000
0000
0000
0000
0000
0000
0000
0000
ENDCHAR

STARTCHAR U+0037
ENCODING 55
SWIDTH 500
DWIDTH 14 0
BBX 14 32 0 0
BITMAP
3FF0
3FF0
0030
0030
00C0
00C0
0300
0300
0C00
0C00
0C00
0C00
0C00
0C00
0000
0000
0000
0000
0000
0000
0000
0000
0000
0000
0000
0000
0000
0000
0000
0000
0000
0000
ENDCHAR

STARTCHAR U+0038
ENCODING 56
SWIDTH 500
DWIDTH 14 0
BBX 14 32 0 0
BITMAP
0FC0
0FC0
3030
3030
3030
3030
0FC0
0FC0
3030
3030
3030
3030
0FC0
0FC0
0000
0000
0000
0000
0000
0000
0000
0000
0000
0000
0000
0000
0000
0000
0000
0000
0000
0000
ENDCHAR

STARTCHAR U+0039
ENCODING 57
SWIDTH 500
DWIDTH 14 0
BBX 14 32 0 0
BITMAP
0FC0
0FC0
3030
3030
3030
3030
0FF0
0FF0
0030
0030
00C0
00C0
3F00
3F00
0000
0000
0000
0000
0000
0000
0000
0000
0000
0000
0000
0000
0000
0000
0000
0000
0000
0000
ENDCHAR

STARTCHAR U+003a
ENCODING 58
SWIDTH 500
DWIDTH 14 0
BBX 14 32 0 0
BITMAP
0000
0000
0000
0000
0300
0300
0000
0000
0300
0300
0000
0000
0000
0000
0000
0000
0000
0000
0000
0000
0000
0000
0000
0000
0000
0000
0000
0000
0000
0000
0000
0000
ENDCHAR

STARTCHAR U+003b
ENCODING 59
SWIDTH 500
DWIDTH 14 0
BBX 14 32 0 0
BITMAP
0000
0000
0000
0000
0300
0300
0000
0000
0300
0300
0300
0300
0C00
0C00
0000
0000
0000
0000
0000
0000
0000
0000
0000
0000
0000
0000
0000
0000
0000
0000
0000
0000
ENDCHAR

STARTCHAR U+003c
ENCODING 60
SWIDTH 500
DWIDTH 14 0
BBX 14 32 0 0
BITMAP
00C0
00C0
0300
0300
0C00
0C00
3000
3000
0C00
0C00
0300
0300
00C0
00C0
0000
0000
0000
0000
0000
0000
0000
0000
0000
0000
0000
0000
0000
0000
0000
0000
0000
0000
ENDCHAR

STARTCHAR U+003d
ENCODING 61
SWIDTH 500
DWIDTH 14 0
BBX 14 32 0 0
BITMAP
0000
0000
0000
0000
3FF0
3FF0
0000
0000
3FF0
3FF0
0000
0000
0000
0000
0000
0000
0000
0000
0000
0000
0000
0000
0000
0000
0000
0000
0000
0000
0000
0000
0000
0000
ENDCHAR

STARTCHAR U+003e
ENCODING 62
SWIDTH 500
DWIDTH 14 0
BBX 14 32 0 0
BITMAP
0C00
0C00
0300
0300
00C0
00C0
0030
0030
00C0
00C0
0300
0300
0C00
0C00
0000
0000
0000
0000
0000
0000
0000
0000
0000
0000
0000
0000
0000
0000
0000
0000
0000
0000
ENDCHAR

STARTCHAR U+003f
ENCODING 63
SWIDTH 500
DWIDTH 14 0
BBX 14 32 0 0
BITMAP
0FC0
0FC0
3030
3030
00C0
00C0
0300
0300
0300
0300
0000
0000
0300
0300
0000
0000
0000
0000
0000
0000
0000
0000
0000
0000
0000
0000
0000
0000
0000
0000
0000
0000
ENDCHAR

STARTCHAR U+0040
ENCODING 64
SWIDTH 500
DWIDTH 14 0
BBX 14 32 0 0
BITMAP
0FC0
0FC0
3030
3030
3330
3330
33F0
33F0
33C0
33C0
3000
3000
0FF0
0FF0
0000
0000
0000
0000
0000
0000
0000
0000
0000
0000
0000
0000
0000
0000
0000
0000
0000
0000
ENDCHAR

STARTCHAR U+0041
ENCODING 65
SWIDTH 500
DWIDTH 14 0
BBX 14 32 0 0
BITMAP
0300
0300
0CC0
0CC0
3030
3030
3030
3030
3FF0
3FF0
3030
3030
3030
3030
0000
0000
0000
0000
0000
0000
0000
0000
0000
0000
0000
0000
0000
0000
0000
0000
0000
0000
ENDCHAR

STARTCHAR U+0042
ENCODING 66
SWIDTH 500
DWIDTH 14 0
BBX 14 32 0 0
BITMAP
3FC0
3FC0
3030
3030
3030
3030
3FC0
3FC0
3030
3030
3030
3030
3FC0
3FC0
0000
0000
0000
0000
0000
0000
0000
0000
0000
0000
0000
0000
0000
0000
0000
0000
0000
0000
ENDCHAR

STARTCHAR U+0043
ENCODING 67
SWIDTH 500
DWIDTH 14 0
BBX 14 32 0 0
BITMAP
0FC0
0FC0
3030
3030
3000
3000
3000
3000
3000
3000
3030
3030
0FC0
0FC0
0000
0000
0000
0000
0000
0000
0000
0000
0000
0000
0000
0000
0000
0000
0000
0000
0000
0000
ENDCHAR

STARTCHAR U+0044
ENCODING 68
SWIDTH 500
DWIDTH 14 0
BBX 14 32 0 0
BITMAP
3FC0
3FC0
3030
3030
3030
3030
3030
3030
3030
3030
3030
3030
3FC0
3FC0
0000
0000
0000
0000
0000
0000
0000
0000
0000
0000
0000
0000
0000
0000
0000
0000
0000
0000
ENDCHAR

STARTCHAR U+0045
ENCODING 69
SWIDTH 500
DWIDTH 14 0
BBX 14 32 0 0
BITMAP
3FF0
3FF0
3000
3000
3000
3000
3FC0
3FC0
3000
3000
3000
3000
3FF0
3FF0
0000
0000
0000
0000
0000
0000
0000
0000
0000
0000
0000
0000
0000
0000
0000
0000
0000
0000
ENDCHAR

STARTCHAR U+0046
ENCODING 70
SWIDTH 500
DWIDTH 14 0
BBX 14 32 0 0
BITMAP
3FF0
3FF0
3000
3000
3000
3000
3FC0
3FC0
3000
3000
3000
3000
3000
3000
0000
0000
0000
0000
0000
0000
0000
0000
0000
0000
0000
0000
0000
0000
0000
0000
0000
0000
ENDCHAR

STARTCHAR U+0047
ENCODING 71
SWIDTH 500
DWIDTH 14 0
BBX 14 32 0 0
BITMAP
0FF0
0FF0
3000
3000
3000
3000
3000
3000
30F0
30F0
3030
3030
0FF0
0FF0
0000
0000
0000
0000
0000
0000
0000
0000
0000
0000
0000
0000
0000
0000
0000
0000
0000
0000
ENDCHAR

STARTCHAR U+0048
ENCODING 72
SWIDTH 500
DWIDTH 14 0
BBX 14 32 0 0
BITMAP
3030
3030
3030
3030
3030
3030
3FF0
3FF0
3030
3030
3030
3030
3030
3030
0000
0000
0000
0000
0000
0000
0000
0000
0000
0000
0000
0000
0000
0000
0000
0000
0000
0000
ENDCHAR

STARTCHAR U+0049
ENCODING 73
SWIDTH 500
DWIDTH 14 0
BBX 14 32 0 0
BITMAP
0FC0
0FC0
0300
0300
0300
0300
0300
0300
0300
0300
0300
0300
0FC0
0FC0
0000
0000
0000
0000
0000
0000
0000
0000
0000
0000
0000
0000
0000
0000
0000
0000
0000
0000
ENDCHAR

STARTCHAR U+004a
ENCODING 74
SWIDTH 500
DWIDTH 14 0
BBX 14 32 0 0
BITMAP
0030
0030
0030
0030
0030
0030
0030
0030
0030
0030
3030
3030
0FC0
0FC0
0000
0000
0000
0000
0000
0000
0000
0000
0000
0000
0000
0000
0000
0000
0000
0000
0000
0000
ENDCHAR

STARTCHAR U+004b
ENCODING 75
SWIDTH 500
DWIDTH 14 0
BBX 14 32 0 0
BITMAP
3030
3030
30C0
30C0
3300
3300
3C00
3C00
3300
3300
30C0
30C0
3030
3030
0000
0000
0000
0000
0000
0000
0000
0000
0000
0000
0000
0000
0000
0000
0000
0000
0000
0000
ENDCHAR

STARTCHAR U+004c
ENCODING 76
SWIDTH 500
DWIDTH 14 0
BBX 14 32 0 0
BITMAP
3000
3000
3000
3000
3000
3000
3000
3000
3000
3000
3000
3000
3FF0
3FF0
0000
0000
0000
0000
0000
0000
0000
0000
0000
0000
0000
0000
0000
0000
0000
0000
0000
0000
ENDCHAR

STARTCHAR U+004d
ENCODING 77
SWIDTH 500
DWIDTH 14 0
BBX 14 32 0 0
BITMAP
3030
3030
3CF0
3CF0
3330
3330
3330
3330
3030
3030
3030
3030
3030
3030
0000
0000
0000
0000
0000
0000
0000
0000
0000
0000
0000
0000
0000
0000
0000
0000
0000
0000
ENDCHAR

STARTCHAR U+004e
ENCODING 78
SWIDTH 500
DWIDTH 14 0
BBX 14 32 0 0
BITMAP
3030
3030
3030
3030
3C30
3C30
3330
3330
30F0
30F0
3030
3030
3030
3030
0000
0000
0000
0000
0000
0000
0000
0000
0000
0000
0000
0000
0000
0000
0000
0000
0000
0000
ENDCHAR

STARTCHAR U+004f
ENCODING 79
SWIDTH 500
DWIDTH 14 0
BBX 14 32 0 0
BITMAP
0FC0
0FC0
3030
3030
3030
3030
3030
3030
3030
3030
3030
3030
0FC0
0FC0
0000
0000
0000
0000
0000
0000
0000
0000
0000
0000
0000
0000
0000
0000
0000
0000
0000
0000
ENDCHAR

STARTCHAR U+0050
ENCODING 80
SWIDTH 500
DWIDTH 14 0
BBX 14 32 0 0
BITMAP
3FC0
3FC0
3030
3030
3030
3030
3FC0
3FC0
3000
3000
3000
3000
3000
3000
0000
0000
0000
0000
0000
0000
0000
0000
0000
0000
0000
0000
0000
0000
0000
0000
0000
0000
ENDCHAR

STARTCHAR U+0051
ENCODING 81
SWIDTH 500
DWIDTH 14 0
BBX 14 32 0 0
BITMAP
0FC0
0FC0
3030
3030
3030
3030
3030
3030
3330
3330
30C0
30C0
0F30
0F30
0000
0000
0000
0000
0000
0000
0000
0000
0000
0000
0000
0000
0000
0000
0000
0000
0000
0000
ENDCHAR

STARTCHAR U+0052
ENCODING 82
SWIDTH 500
DWIDTH 14 0
BBX 14 32 0 0
BITMAP
3FC0
3FC0
3030
3030
3030
3030
3FC0
3FC0
3300
3300
30C0
30C0
3030
3030
0000
0000
0000
0000
0000
0000
0000
0000
0000
0000
0000
0000
0000
0000
0000
0000
0000
0000
ENDCHAR

STARTCHAR U+0053
ENCODING 83
SWIDTH 500
DWIDTH 14 0
BBX 14 32 0 0
BITMAP
0FC0
0FC0
3030
3030
3000
3000
0FC0
0FC0
0030
0030
3030
3030
0FC0
0FC0
0000
0000
0000
0000
0000
0000
0000
0000
0000
0000
0000
0000
0000
0000
0000
0000
0000
0000
ENDCHAR

STARTCHAR U+0054
ENCODING 84
SWIDTH 500
DWIDTH 14 0
BBX 14 32 0 0
BITMAP
3FF0
3FF0
0300
0300
0300
0300
0300
0300
0300
0300
0300
0300
0300
0300
0000
0000
0000
0000
0000
0000
0000
0000
0000
0000
0000
0000
0000
0000
0000
0000
0000
0000
ENDCHAR

STARTCHAR U+0055
ENCODING 85
SWIDTH 500
DWIDTH 14 0
BBX 14 32 0 0
BITMAP
3030
3030
3030
3030
3030
3030
3030
3030
3030
3030
3030
3030
0FC0
0FC0
0000
0000
0000
0000
0000
0000
0000
0000
0000
0000
0000
0000
0000
0000
0000
0000
0000
0000
ENDCHAR

STARTCHAR U+0056
ENCODING 86
SWIDTH 500
DWIDTH 14 0
BBX 14 32 0 0
BITMAP
3030
3030
3030
3030
3030
3030
3030
3030
3030
3030
0CC0
0CC0
0300
0300
0000
0000
0000
0000
0000
0000
0000
0000
0000
0000
0000
0000
0000
0000
0000
0000
0000
0000
ENDCHAR

STARTCHAR U+0057
ENCODING 87
SWIDTH 500
DWIDTH 14 0
BBX 14 32 0 0
BITMAP
3030
3030
3030
3030
3030
3030
3330
3330
3330
3330
3CF0
3CF0
3030
3030
0000
0000
0000
0000
0000
0000
0000
0000
0000
0000
0000
0000
0000
0000
0000
0000
0000
0000
ENDCHAR

STARTCHAR U+0058
ENCODING 88
SWIDTH 500
DWIDTH 14 0
BBX 14 32 0 0
BITMAP
3030
3030
3030
3030
0CC0
0CC0
0300
0300
0CC0
0CC0
3030
3030
3030
3030
0000
0000
0000
0000
0000
0000
0000
0000
0000
0000
0000
0000
0000
0000
0000
0000
0000
0000
ENDCHAR

STARTCHAR U+0059
ENCODING 89
SWIDTH 500
DWIDTH 14 0
BBX 14 32 0 0
BITMAP
3030
3030
3030
3030
0CC0
0CC0
0300
0300
0300
0300
0300
0300
0300
0300
0000
0000
0000
0000
0000
0000
0000
0000
0000
0000
0000
0000
0000
0000
0000
0000
0000
0000
ENDCHAR

STARTCHAR U+005a
ENCODING 90
SWIDTH 500
DWIDTH 14 0
BBX 14 32 0 0
BITMAP
3FF0
3FF0
0030
0030
00C0
00C0
0300
0300
0C00
0C00
3000
3000
3FF0
3FF0
0000
0000
0000
0000
0000
0000
0000
0000
0000
0000
0000
0000
0000
0000
0000
0000
0000
0000
ENDCHAR

STARTCHAR U+005b
ENCODING 91
SWIDTH 500
DWIDTH 14 0
BBX 14 32 0 0
BITMAP
3FF0
3FF0
3C00
3C00
3C00
3C00
3C00
3C00
3C00
3C00
3C00
3C00
3FF0
3FF0
0000
0000
0000
0000
0000
0000
0000
0000
0000
0000
0000
0000
0000
0000
0000
0000
0000
0000
ENDCHAR

STARTCHAR U+005c
ENCODING 92
SWIDTH 500
DWIDTH 14 0
BBX 14 32 0 0
BITMAP
0000
0000
3000
3000
0C00
0C00
0300
0300
00C0
00C0
0030
0030
0000
0000
0000
0000
0000
0000
0000
0000
0000
0000
0000
0000
0000
0000
0000
0000
0000
0000
0000
0000
ENDCHAR

STARTCHAR U+005d
ENCODING 93
SWIDTH 500
DWIDTH 14 0
BBX 14 32 0 0
BITMAP
3FF0
3FF0
00F0
00F0
00F0
00F0
00F0
00F0
00F0
00F0
00F0
00F0
3FF0
3FF0
0000
0000
0000
0000
0000
0000
0000
0000
0000
0000
0000
0000
0000
0000
0000
0000
0000
0000
ENDCHAR

STARTCHAR U+005e
ENCODING 94
SWIDTH 500
DWIDTH 14 0
BBX 14 32 0 0
BITMAP
0000
0000
0000
0000
0300
0300
0CC0
0CC0
3030
3030
0000
0000
0000
0000
0000
0000
0000
0000
0000
0000
0000
0000
0000
0000
0000
0000
0000
0000
0000
0000
0000
0000
ENDCHAR

STARTCHAR U+005f
ENCODING 95
SWIDTH 500
DWIDTH 14 0
BBX 14 32 0 0
BITMAP
0000
0000
0000
0000
0000
0000
0000
0000
0000
0000
0000
0000
0000
0000
FFFC
FFFC
0000
0000
0000
0000
0000
0000
0000
0000
0000
0000
0000
0000
0000
0000
0000
0000
ENDCHAR

STARTCHAR U+0060
ENCODING 96
SWIDTH 500
DWIDTH 14 0
BBX 14 32 0 0
BITMAP
0C00
0C00
0300
0300
00C0
00C0
0000
0000
0000
0000
0000
0000
0000
0000
0000
0000
0000
0000
0000
0000
0000
0000
0000
0000
0000
0000
0000
0000
0000
0000
0000
0000
ENDCHAR

STARTCHAR U+0061
ENCODING 97
SWIDTH 500
DWIDTH 14 0
BBX 14 32 0 0
BITMAP
0000
0000
0000
0000
0FC0
0FC0
0030
0030
0FF0
0FF0
3030
3030
0FF0
0FF0
0000
0000
0000
0000
0000
0000
0000
0000
0000
0000
0000
0000
0000
0000
0000
0000
0000
0000
ENDCHAR

STARTCHAR U+0062
ENCODING 98
SWIDTH 500
DWIDTH 14 0
BBX 14 32 0 0
BITMAP
3000
3000
3000
3000
3FC0
3FC0
3030
3030
3030
3030
3030
3030
3FC0
3FC0
0000
0000
0000
0000
0000
0000
0000
0000
0000
0000
0000
0000
0000
0000
0000
0000
0000
0000
ENDCHAR

STARTCHAR U+0063
ENCODING 99
SWIDTH 500
DWIDTH 14 0
BBX 14 32 0 0
BITMAP
0000
0000
0000
0000
0FF0
0FF0
3000
3000
3000
3000
3000
3000
0FF0
0FF0
0000
0000
0000
0000
0000
0000
0000
0000
0000
0000
0000
0000
0000
0000
0000
0000
0000
0000
ENDCHAR

STARTCHAR U+0064
ENCODING 100
SWIDTH 500
DWIDTH 14 0
BBX 14 32 0 0
BITMAP
0030
0030
0030
0030
0FF0
0FF0
3030
3030
3030
3030
3030
3030
0FF0
0FF0
0000
0000
0000
0000
0000
0000
0000
0000
0000
0000
0000
0000
0000
0000
0000
0000
0000
0000
ENDCHAR

STARTCHAR U+0065
ENCODING 101
SWIDTH 500
DWIDTH 14 0
BBX 14 32 0 0
BITMAP
0000
0000
0000
0000
0FC0
0FC0
3030
3030
3FF0
3FF0
3000
3000
0FF0
0FF0
0000
0000
0000
0000
0000
0000
0000
0000
0000
0000
0000
0000
0000
0000
0000
0000
0000
0000
ENDCHAR

STARTCHAR U+0066
ENCODING 102
SWIDTH 500
DWIDTH 14 0
BBX 14 32 0 0
BITMAP
03C0
03C0
0C30
0C30
0C00
0C00
3FC0
3FC0
0C00
0C00
0C00
0C00
0C00
0C00
0000
0000
0000
0000
0000
0000
0000
0000
0000
0000
0000
0000
0000
0000
0000
0000
0000
0000
ENDCHAR

STARTCHAR U+0067
ENCODING 103
SWIDTH 500
DWIDTH 14 0
BBX 14 32 0 0
BITMAP
0000
0000
0000
0000
0FC0
0FC0
3030
3030
3030
3030
0FF0
0FF0
0030
0030
0FC0
0FC0
0000
0000
0000
0000
0000
0000
0000
0000
0000
0000
0000
0000
0000
0000
0000
0000
ENDCHAR

STARTCHAR U+0068
ENCODING 104
SWIDTH 500
DWIDTH 14 0
BBX 14 32 0 0
BITMAP
3000
3000
3000
3000
3FC0
3FC0
3030
3030
3030
3030
3030
3030
3030
3030
0000
0000
0000
0000
0000
0000
0000
0000
0000
0000
0000
0000
0000
0000
0000
0000
0000
0000
ENDCHAR

STARTCHAR U+0069
ENCODING 105
SWIDTH 500
DWIDTH 14 0
BBX 14 32 0 0
BITMAP
0300
0300
0000
0000
0F00
0F00
0300
0300
0300
0300
0300
0300
0FC0
0FC0
0000
0000
0000
0000
0000
0000
0000
0000
0000
0000
0000
0000
0000
0000
0000
0000
0000
0000
ENDCHAR

STARTCHAR U+006a
ENCODING 106
SWIDTH 500
DWIDTH 14 0
BBX 14 32 0 0
BITMAP
00C0
00C0
0000
0000
03C0
03C0
00C0
00C0
00C0
00C0
00C0
00C0
30C0
30C0
0F00
0F00
0000
0000
0000
0000
0000
0000
0000
0000
0000
0000
0000
0000
0000
0000
0000
0000
ENDCHAR

STARTCHAR U+006b
ENCODING 107
SWIDTH 500
DWIDTH 14 0
BBX 14 32 0 0
BITMAP
3000
3000
3000
3000
3030
3030
30C0
30C0
3F00
3F00
30C0
30C0
3030
3030
0000
0000
0000
0000
0000
0000
0000
0000
0000
0000
0000
0000
0000
0000
0000
0000
0000
0000
ENDCHAR

STARTCHAR U+006c
ENCODING 108
SWIDTH 500
DWIDTH 14 0
BBX 14 32 0 0
BITMAP
0F00
0F00
0300
0300
0300
0300
0300
0300
0300
0300
0300
0300
0FC0
0FC0
0000
0000
0000
0000
0000
0000
0000
0000
0000
0000
0000
0000
0000
0000
0000
0000
0000
0000
ENDCHAR

STARTCHAR U+006d
ENCODING 109
SWIDTH 500
DWIDTH 14 0
BBX 14 32 0 0
BITMAP
0000
0000
0000
0000
3CF0
3CF0
3330
3330
3330
3330
3330
3330
3030
3030
0000
0000
0000
0000
0000
0000
0000
0000
0000
0000
0000
0000
0000
0000
0000
0000
0000
0000
ENDCHAR

STARTCHAR U+006e
ENCODING 110
SWIDTH 500
DWIDTH 14 0
BBX 14 32 0 0
BITMAP
0000
0000
0000
0000
3FC0
3FC0
3030
3030
3030
3030
3030
3030
3030
3030
0000
0000
0000
0000
0000
0000
0000
0000
0000
0000
0000
0000
0000
0000
0000
0000
0000
0000
ENDCHAR

STARTCHAR U+006f
ENCODING 111
SWIDTH 500
DWIDTH 14 0
BBX 14 32 0 0
BITMAP
0000
0000
0000
0000
0FC0
0FC0
3030
3030
3030
3030
3030
3030
0FC0
0FC0
0000
0000
0000
0000
0000
0000
0000
0000
0000
0000
0000
0000
0000
0000
0000
0000
0000
0000
ENDCHAR

STARTCHAR U+0070
ENCODING 112
SWIDTH 500
DWIDTH 14 0
BBX 14 32 0 0
BITMAP
0000
0000
0000
0000
3FC0
3FC0
3030
3030
3030
3030
3FC0
3FC0
3000
3000
3000
3000
0000
0000
0000
0000
0000
0000
0000
0000
0000
0000
0000
0000
0000
0000
0000
0000
ENDCHAR

STARTCHAR U+0071
ENCODING 113
SWIDTH 500
DWIDTH 14 0
BBX 14 32 0 0
BITMAP
0000
0000
0000
0000
0FF0
0FF0
3030
3030
3030
3030
0FF0
0FF0
0030
0030
0030
0030
0000
0000
0000
0000
0000
0000
0000
0000
0000
0000
0000
0000
0000
0000
0000
0000
ENDCHAR

STARTCHAR U+0072
ENCODING 114
SWIDTH 500
DWIDTH 14 0
BBX 14 32 0 0
BITMAP
0000
0000
0000
0000
33F0
33F0
3C00
3C00
3000
3000
3000
3000
3000
3000
0000
0000
0000
0000
0000
0000
0000
0000
0000
0000
0000
0000
0000
0000
0000
0000
0000
0000
ENDCHAR

STARTCHAR U+0073
ENCODING 115
SWIDTH 500
DWIDTH 14 0
BBX 14 32 0 0
BITMAP
0000
0000
0000
0000
0FF0
0FF0
3000
3000
0FC0
0FC0
0030
0030
3FC0
3FC0
0000
0000
0000
0000
0000
0000
0000
0000
0000
0000
0000
0000
0000
0000
0000
0000
0000
0000
ENDCHAR

STARTCHAR U+0074
ENCODING 116
SWIDTH 500
DWIDTH 14 0
BBX 14 32 0 0
BITMAP
0C00
0C00
0C00
0C00
3FC0
3FC0
0C00
0C00
0C00
0C00
0C30
0C30
03C0
03C0
0000
0000
0000
0000
0000
0000
0000
0000
0000
0000
0000
0000
0000
0000
0000
0000
0000
0000
ENDCHAR

STARTCHAR U+0075
ENCODING 117
SWIDTH 500
DWIDTH 14 0
BBX 14 32 0 0
BITMAP
0000
0000
0000
0000
3030
3030
3030
3030
3030
3030
30F0
30F0
0F30
0F30
0000
0000
0000
0000
0000
0000
0000
0000
0000
0000
0000
0000
0000
0000
0000
0000
0000
0000
ENDCHAR

STARTCHAR U+0076
ENCODING 118
SWIDTH 500
DWIDTH 14 0
BBX 14 32 0 0
BITMAP
0000
0000
0000
0000
3030
3030
3030
3030
3030
3030
0CC0
0CC0
0300
0300
0000
0000
0000
0000
0000
0000
0000
0000
0000
0000
0000
0000
0000
0000
0000
0000
0000
0000
ENDCHAR

STARTCHAR U+0077
ENCODING 119
SWIDTH 500
DWIDTH 14 0
BBX 14 32 0 0
BITMAP
0000
0000
0000
0000
3030
3030
3030
3030
3330
3330
3330
3330
3CF0
3CF0
0000
0000
0000
0000
0000
0000
0000
0000
0000
0000
0000
0000
0000
0000
0000
0000
0000
0000
ENDCHAR

STARTCHAR U+0078
ENCODING 120
SWIDTH 500
DWIDTH 14 0
BBX 14 32 0 0
BITMAP
0000
0000
0000
0000
3030
3030
0CC0
0CC0
0300
0300
0CC0
0CC0
3030
3030
0000
0000
0000
0000
0000
0000
0000
0000
0000
0000
0000
0000
0000
0000
0000
0000
0000
0000
ENDCHAR

STARTCHAR U+0079
ENCODING 121
SWIDTH 500
DWIDTH 14 0
BBX 14 32 0 0
BITMAP
0000
0000
0000
0000
3030
3030
3030
3030
3030
3030
0FF0
0FF0
0030
0030
0FC0
0FC0
0000
0000
0000
0000
0000
0000
0000
0000
0000
0000
0000
0000
0000
0000
0000
0000
ENDCHAR

STARTCHAR U+007a
ENCODING 122
SWIDTH 500
DWIDTH 14 0
BBX 14 32 0 0
BITMAP
0000
0000
0000
0000
3FF0
3FF0
00C0
00C0
0300
0300
0C00
0C00
3FF0
3FF0
0000
0000
0000
0000
0000
0000
0000
0000
0000
0000
0000
0000
0000
0000
0000
0000
0000
0000
ENDCHAR

STARTCHAR U+007b
ENCODING 123
SWIDTH 500
DWIDTH 14 0
BBX 14 32 0 0
BITMAP
03F0
03F0
0F00
0F00
0F00
0F00
3C00
3C00
0F00
0F00
0F00
0F00
03F0
03F0
0000
0000
0000
0000
0000
0000
0000
0000
0000
0000
0000
0000
0000
0000
0000
0000
0000
0000
ENDCHAR

STARTCHAR U+007c
ENCODING 124
SWIDTH 500
DWIDTH 14 0
BBX 14 32 0 0
BITMAP
0300
0300
0300
0300
0300
0300
0300
0300
0300
0300
0300
0300
0300
0300
0300
0300
0000
0000
0000
0000
0000
0000
0000
0000
0000
0000
0000
0000
0000
0000
0000
0000
ENDCHAR

STARTCHAR U+007d
ENCODING 125
SWIDTH 500
DWIDTH 14 0
BBX 14 32 0 0
BITMAP
3F00
3F00
03C0
03C0
03C0
03C0
00F0
00F0
03C0
03C0
03C0
03C0
3F00
3F00
0000
0000
0000
0000
0000
0000
0000
0000
0000
0000
0000
0000
0000
0000
0000
0000
0000
0000
ENDCHAR

STARTCHAR U+007e
ENCODING 126
SWIDTH 500
DWIDTH 14 0
BBX 14 32 0 0
BITMAP
0F30
0F30
33C0
33C0
0000
0000
0000
0000
0000
0000
0000
0000
0000
0000
0000
0000
0000
0000
0000
0000
0000
0000
0000
0000
0000
0000
0000
0000
0000
0000
0000
0000
ENDCHAR

STARTCHAR U+007f
ENCODING 127
SWIDTH 500
DWIDTH 14 0
BBX 14 32 0 0
BITMAP
0000
0000
3330
3330
0CC0
0CC0
3330
3330
0CC0
0CC0
3330
3330
0000
0000
0000
0000
0000
0000
0000
0000
0000
0000
0000
0000
0000
0000
0000
0000
0000
0000
0000
0000
ENDCHAR

STARTCHAR U+1100
ENCODING 4352
SWIDTH 500
DWIDTH 14 0
BBX 14 32 0 0
BITMAP
3FF0
3FF0
0030
0030
0030
0030
0030
0030
0030
0030
0000
0000
0000
0000
0000
0000
0000
0000
0000
0000
0000
0000
0000
0000
0000
0000
0000
0000
0000
0000
0000
0000
ENDCHAR

STARTCHAR U+1101
ENCODING 4353
SWIDTH 500
DWIDTH 14 0
BBX 14 32 0 0
BITMAP
3FF0
3FF0
0330
0330
0330
0330
0CC0
0CC0
0000
0000
0000
0000
0000
0000
0000
0000
0000
0000
0000
0000
0000
0000
0000
0000
0000
0000
0000
0000
0000
0000
0000
0000
ENDCHAR

STARTCHAR U+1102
ENCODING 4354
SWIDTH 500
DWIDTH 14 0
BBX 14 32 0 0
BITMAP
3000
3000
3000
3000
3000
3000
3000
3000
3FF0
3FF0
0000
0000
0000
0000
0000
0000
0000
0000
0000
0000
0000
0000
0000
0000
0000
0000
0000
0000
0000
0000
0000
0000
ENDCHAR

STARTCHAR U+1103
ENCODING 4355
SWIDTH 500
DWIDTH 14 0
BBX 14 32 0 0
BITMAP
3FF0
3FF0
3000
3000
3000
3000
3000
3000
3FF0
3FF0
0000
0000
0000
0000
0000
0000
0000
0000
0000
0000
0000
0000
0000
0000
0000
0000
0000
0000
0000
0000
0000
0000
ENDCHAR

STARTCHAR U+1104
ENCODING 4356
SWIDTH 500
DWIDTH 14 0
BBX 14 32 0 0
BITMAP
3FF0
3FF0
3300
3300
3300
3300
3300
3300
3FF0
3FF0
0000
0000
0000
0000
0000
0000
0000
0000
0000
0000
0000
0000
0000
0000
0000
0000
0000
0000
0000
0000
0000
0000
ENDCHAR

STARTCHAR U+1105
ENCODING 4357
SWIDTH 500
DWIDTH 14 0
BBX 14 32 0 0
BITMAP
3FF0
3FF0
0030
0030
3FF0
3FF0
3000
3000
3FF0
3FF0
0000
0000
0000
0000
0000
0000
0000
0000
0000
0000
0000
0000
0000
0000
0000
0000
0000
0000
0000
0000
0000
0000
ENDCHAR

STARTCHAR U+1106
ENCODING 4358
SWIDTH 500
DWIDTH 14 0
BBX 14 32 0 0
BITMAP
3FF0
3FF0
3030
3030
3030
3030
3030
3030
3FF0
3FF0
0000
0000
0000
0000
0000
0000
0000
0000
0000
0000
0000
0000
0000
0000
0000
0000
0000
0000
0000
0000
0000
0000
ENDCHAR

STARTCHAR U+1107
ENCODING 4359
SWIDTH 500
DWIDTH 14 0
BBX 14 32 0 0
BITMAP
3030
3030
3030
3030
3FF0
3FF0
3030
3030
3FF0
3FF0
0000
0000
0000
0000
0000
0000
0000
0000
0000
0000
0000
0000
0000
0000
0000
0000
0000
0000
0000
0000
0000
0000
ENDCHAR

STARTCHAR U+1108
ENCODING 4360
SWIDTH 500
DWIDTH 14 0
BBX 14 32 0 0
BITMAP
3330
3330
3330
3330
3FF0
3FF0
3330
3330
3FF0
3FF0
0000
0000
0000
0000
0000
0000
0000
0000
0000
0000
0000
0000
0000
0000
0000
0000
0000
0000
0000
0000
0000
0000
ENDCHAR

STARTCHAR U+1109
ENCODING 4361
SWIDTH 500
DWIDTH 14 0
BBX 14 32 0 0
BITMAP
0300
0300
0300
0300
0300
0300
0CC0
0CC0
3030
3030
0000
0000
0000
0000
0000
0000
0000
0000
0000
0000
0000
0000
0000
0000
0000
0000
0000
0000
0000
0000
0000
0000
ENDCHAR

STARTCHAR U+110a
ENCODING 4362
SWIDTH 500
DWIDTH 14 0
BBX 14 32 0 0
BITMAP
0CC0
0CC0
0CC0
0CC0
3330
3330
C30C
C30C
0000
0000
0000
0000
0000
0000
0000
0000
0000
0000
0000
0000
0000
0000
0000
0000
0000
0000
0000
0000
0000
0000
0000
0000
ENDCHAR

STARTCHAR U+110b
ENCODING 4363
SWIDTH 500
DWIDTH 14 0
BBX 14 32 0 0
BITMAP
0FC0
0FC0
3030
3030
3030
3030
3030
3030
0FC0
0FC0
0000
0000
0000
0000
0000
0000
0000
0000
0000
0000
0000
0000
0000
0000
0000
0000
0000
0000
0000
0000
0000
0000
ENDCHAR

STARTCHAR U+110c
ENCODING 4364
SWIDTH 500
DWIDTH 14 0
BBX 14 32 0 0
BITMAP
3FF0
3FF0
0300
0300
0300
0300
0CC0
0CC0
3030
3030
0000
0000
0000
0000
0000
0000
0000
0000
0000
0000
0000
0000
0000
0000
0000
0000
0000
0000
0000
0000
0000
0000
ENDCHAR

STARTCHAR U+110d
ENCODING 4365
SWIDTH 500
DWIDTH 14 0
BBX 14 32 0 0
BITMAP
FFF0
FFF0
0CC0
0CC0
3300
3300
CCC0
CCC0
3030
3030
0000
0000
0000
0000
0000
0000
0000
0000
0000
0000
0000
0000
0000
0000
0000
0000
0000
0000
0000
0000
0000
0000
ENDCHAR

STARTCHAR U+110e
ENCODING 4366
SWIDTH 500
DWIDTH 14 0
BBX 14 32 0 0
BITMAP
0300
0300
3FF0
3FF0
0300
0300
0CC0
0CC0
3030
3030
0000
0000
0000
0000
0000
0000
0000
0000
0000
0000
0000
0000
0000
0000
0000
0000
0000
0000
0000
0000
0000
0000
ENDCHAR

STARTCHAR U+110f
ENCODING 4367
SWIDTH 500
DWIDTH 14 0
BBX 14 32 0 0
BITMAP
3FF0
3FF0
0030
0030
3FF0
3FF0
0030
0030
00C0
00C0
0000
0000
0000
0000
0000
0000
0000
0000
0000
0000
0000
0000
0000
0000
0000
0000
0000
0000
0000
0000
0000
0000
ENDCHAR

STARTCHAR U+1110
ENCODING 4368
SWIDTH 500
DWIDTH 14 0
BBX 14 32 0 0
BITMAP
3FF0
3FF0
0000
0000
3FF0
3FF0
3000
3000
3FF0
3FF0
0000
0000
0000
0000
0000
0000
0000
0000
0000
0000
0000
0000
0000
0000
0000
0000
0000
0000
0000
0000
0000
0000
ENDCHAR

STARTCHAR U+1111
ENCODING 4369
SWIDTH 500
DWIDTH 14 0
BBX 14 32 0 0
BITMAP
3FF0
3FF0
0CC0
0CC0
0CC0
0CC0
0CC0
0CC0
3FF0
3FF0
0000
0000
0000
0000
0000
0000
0000
0000
0000
0000
0000
0000
0000
0000
0000
0000
0000
0000
0000
0000
0000
0000
ENDCHAR

STARTCHAR U+1112
ENCODING 4370
SWIDTH 500
DWIDTH 14 0
BBX 14 32 0 0
BITMAP
0300
0300
3FF0
3FF0
0FC0
0FC0
3030
3030
0FC0
0FC0
0000
0000
0000
0000
0000
0000
0000
0000
0000
0000
0000
0000
0000
0000
0000
0000
0000
0000
0000
0000
0000
0000
ENDCHAR

STARTCHAR U+1161
ENCODING 4449
SWIDTH 1000
DWIDTH 28 0
BBX 28 32 0 0
BITMAP
0000C000
0000C000
0000C000
0000C000
0000C000
0000C000
0000FF00
0000FF00
0000C000
0000C000
0000C000
0000C000
0000C000
0000C000
0000C000
0000C000
0000C000
0000C000
0000C000
0000C000
0000C000
0000C000
0000C000
0000C000
00000000
00000000
00000000
00000000
00000000
00000000
00000000
00000000
ENDCHAR

STARTCHAR U+1162
ENCODING 4450
SWIDTH 1000
DWIDTH 28 0
BBX 28 32 0 0
BITMAP
0000CC00
0000CC00
0000CC00
0000CC00
0000CC00
0000CC00
0000FC00
0000FC00
0000CC00
0000CC00
0000CC00
0000CC00
0000CC00
0000CC00
0000CC00
0000CC00
0000CC00
0000CC00
0000CC00
0000CC00
0000CC00
0000CC00
0000CC00
0000CC00
00000000
00000000
00000000
00000000
00000000
00000000
00000000
00000000
ENDCHAR

STARTCHAR U+1163
ENCODING 4451
SWIDTH 1000
DWIDTH 28 0
BBX 28 32 0 0
BITMAP
0000C000
0000C000
0000C000
0000C000
0000FF00
0000FF00
0000C000
0000C000
0000C000
0000C000
0000FF00
0000FF00
0000C000
0000C000
0000C000
0000C000
0000C000
0000C000
0000C000
0000C000
0000C000
0000C000
0000C000
0000C000
00000000
00000000
00000000
00000000
00000000
00000000
00000000
00000000
ENDCHAR

STARTCHAR U+1164
ENCODING 4452
SWIDTH 1000
DWIDTH 28 0
BBX 28 32 0 0
BITMAP
0000CC00
0000CC00
0000CC00
0000CC00
0000FC00
0000FC00
0000CC00
0000CC00
0000CC00
0000CC00
0000FC00
0000FC00
0000CC00
0000CC00
0000CC00
0000CC00
0000CC00
0000CC00
0000CC00
0000CC00
0000CC00
0000CC00
0000CC00
0000CC00
00000000
00000000
00000000
00000000
00000000
00000000
00000000
00000000
ENDCHAR

STARTCHAR U+1165
ENCODING 4453
SWIDTH 1000
DWIDTH 28 0
BBX 28 32 0 0
BITMAP
00003000
00003000
00003000
00003000
00003000
00003000
0003F000
0003F000
00003000
00003000
00003000
00003000
00003000
00003000
00003000
00003000
00003000
00003000
00003000
00003000
00003000
00003000
00003000
00003000
00000000
00000000
00000000
00000000
00000000
00000000
00000000
00000000
ENDCHAR

STARTCHAR U+1166
ENCODING 4454
SWIDTH 1000
DWIDTH 28 0
BBX 28 32 0 0
BITMAP
0000CC00
0000CC00
0000CC00
0000CC00
0000CC00
0000CC00
0003CC00
0003CC00
0000CC00
0000CC00
0000CC00
0000CC00
0000CC00
0000CC00
0000CC00
0000CC00
0000CC00
0000CC00
0000CC00
0000CC00
0000CC00
0000CC00
0000CC00
0000CC00
00000000
00000000
00000000
00000000
00000000
00000000
00000000
00000000
ENDCHAR

STARTCHAR U+1167
ENCODING 4455
SWIDTH 1000
DWIDTH 28 0
BBX 28 32 0 0
BITMAP
00003000
00003000
00003000
00003000
0003F000
0003F000
00003000
00003000
00003000
00003000
0003F000
0003F000
00003000
00003000
00003000
00003000
00003000
00003000
00003000
00003000
00003000
00003000
00003000
00003000
00000000
00000000
00000000
00000000
00000000
00000000
00000000
00000000
ENDCHAR

STARTCHAR U+1168
ENCODING 4456
SWIDTH 1000
DWIDTH 28 0
BBX 28 32 0 0
BITMAP
0000CC00
0000CC00
0000CC00
0000CC00
0003CC00
0003CC00
0000CC00
0000CC00
0000CC00
0000CC00
0003CC00
0003CC00
0000CC00
0000CC00
0000CC00
0000CC00
0000CC00
0000CC00
0000CC00
0000CC00
0000CC00
0000CC00
0000CC00
0000CC00
00000000
00000000
00000000
00000000
00000000
00000000
00000000
00000000
ENDCHAR

STARTCHAR U+1169
ENCODING 4457
SWIDTH 500
DWIDTH 14 0
BBX 14 32 0 0
BITMAP
0000
0000
0000
0000
0000
0000
0000
0000
0000
0000
0000
0000
0000
0000
0000
0000
0300
0300
0300
0300
0300
0300
FFF0
FFF0
0000
0000
0000
0000
0000
0000
0000
0000
ENDCHAR

STARTCHAR U+116a
ENCODING 4458
SWIDTH 1000
DWIDTH 28 0
BBX 28 32 0 0
BITMAP
0000C000
0000C000
0000C000
0000C000
0000C000
0000C000
0000FF00
0000FF00
0000C000
0000C000
0000C000
0000C000
0000C000
0000C000
0000C000
0000C000
0300C000
0300C000
0300C000
0300C000
0300C000
0300C000
FFF0C000
FFF0C000
00000000
00000000
00000000
00000000
00000000
00000000
00000000
00000000
ENDCHAR

STARTCHAR U+116b
ENCODING 4459
SWIDTH 1000
DWIDTH 28 0
BBX 28 32 0 0
BITMAP
0000CC00
0000CC00
0000CC00
0000CC00
0000CC00
0000CC00
0000FC00
0000FC00
0000CC00
0000CC00
0000CC00
0000CC00
0000CC00
0000CC00
0000CC00
0000CC00
0300CC00
0300CC00
0300CC00
0300CC00
0300CC00
0300CC00
FFF0CC00
FFF0CC00
00000000
00000000
00000000
00000000
00000000
00000000
00000000
00000000
ENDCHAR

STARTCHAR U+116c
ENCODING 4460
SWIDTH 1000
DWIDTH 28 0
BBX 28 32 0 0
BITMAP
00003000
00003000
00003000
00003000
00003000
00003000
00003000
00003000
00003000
00003000
00003000
00003000
00003000
00003000
00003000
00003000
03003000
03003000
03003000
03003000
03003000
03003000
FFF03000
FFF03000
00000000
00000000
00000000
00000000
00000000
00000000
00000000
00000000
ENDCHAR

STARTCHAR U+116d
ENCODING 4461
SWIDTH 500
DWIDTH 14 0
BBX 14 32 0 0
BITMAP
0000
0000
0000
0000
0000
0000
0000
0000
0000
0000
0000
0000
0000
0000
0000
0000
0CC0
0CC0
0CC0
0CC0
0CC0
0CC0
FFF0
FFF0
0000
0000
0000
0000
0000
0000
0000
0000
ENDCHAR

STARTCHAR U+116e
ENCODING 4462
SWIDTH 500
DWIDTH 14 0
BBX 14 32 0 0
BITMAP
0000
0000
0000
0000
0000
0000
0000
0000
0000
0000
0000
0000
0000
0000
0000
0000
FFF0
FFF0
0300
0300
0300
0300
0300
0300
0300
0300
0000
0000
0000
0000
0000
0000
ENDCHAR

STARTCHAR U+116f
ENCODING 4463
SWIDTH 1000
DWIDTH 28 0
BBX 28 32 0 0
BITMAP
00003000
00003000
00003000
00003000
00003000
00003000
0003F000
0003F000
00003000
00003000
00003000
00003000
00003000
00003000
00003000
00003000
FFF03000
FFF03000
03003000
03003000
03003000
03003000
03003000
03003000
03000000
03000000
00000000
00000000
00000000
00000000
00000000
00000000
ENDCHAR

STARTCHAR U+1170
ENCODING 4464
SWIDTH 1000
DWIDTH 28 0
BBX 28 32 0 0
BITMAP
0000CC00
0000CC00
0000CC00
0000CC00
0000CC00
0000CC00
0003CC00
0003CC00
0000CC00
0000CC00
0000CC00
0000CC00
0000CC00
0000CC00
0000CC00
0000CC00
FFF0CC00
FFF0CC00
0300CC00
0300CC00
0300CC00
0300CC00
0300CC00
0300CC00
03000000
03000000
00000000
00000000
00000000
00000000
00000000
00000000
ENDCHAR

STARTCHAR U+1171
ENCODING 4465
SWIDTH 1000
DWIDTH 28 0
BBX 28 32 0 0
BITMAP
00003000
00003000
00003000
00003000
00003000
00003000
00003000
00003000
00003000
00003000
00003000
00003000
00003000
00003000
00003000
00003000
FFF03000
FFF03000
03003000
03003000
03003000
03003000
03003000
03003000
03000000
03000000
00000000
00000000
00000000
00000000
00000000
00000000
ENDCHAR

STARTCHAR U+1172
ENCODING 4466
SWIDTH 500
DWIDTH 14 0
BBX 14 32 0 0
BITMAP
0000
0000
0000
0000
0000
0000
0000
0000
0000
0000
0000
0000
0000
0000
0000
0000
FFF0
FFF0
0CC0
0CC0
0CC0
0CC0
0CC0
0CC0
0CC0
0CC0
0000
0000
0000
0000
0000
0000
ENDCHAR

STARTCHAR U+1173
ENCODING 4467
SWIDTH 500
DWIDTH 14 0
BBX 14 32 0 0
BITMAP
0000
0000
0000
0000
0000
0000
0000
0000
0000
0000
0000
0000
0000
0000
0000
0000
0000
0000
0000
0000
FFF0
FFF0
0000
0000
0000
0000
0000
0000
0000
0000
0000
0000
ENDCHAR

STARTCHAR U+1174
ENCODING 4468
SWIDTH 1000
DWIDTH 28 0
BBX 28 32 0 0
BITMAP
00003000
00003000
00003000
00003000
00003000
00003000
00003000
00003000
00003000
00003000
00003000
00003000
00003000
00003000
00003000
00003000
00003000
00003000
00003000
00003000
FFF03000
FFF03000
00003000
00003000
00000000
00000000
00000000
00000000
00000000
00000000
00000000
00000000
ENDCHAR

STARTCHAR U+1175
ENCODING 4469
SWIDTH 1000
DWIDTH 28 0
BBX 28 32 0 0
BITMAP
00003000
00003000
00003000
00003000
00003000
00003000
00003000
00003000
00003000
00003000
00003000
00003000
00003000
00003000
00003000
00003000
00003000
00003000
00003000
00003000
00003000
00003000
00003000
00003000
00000000
00000000
00000000
00000000
00000000
00000000
00000000
00000000
ENDCHAR

STARTCHAR U+11a8
ENCODING 4520
SWIDTH 500
DWIDTH 14 0
BBX 14 32 0 0
BITMAP
0000
0000
0000
0000
0000
0000
0000
0000
0000
0000
0000
0000
0000
0000
0000
0000
3FF0
3FF0
0030
0030
0030
0030
0030
0030
0030
0030
0000
0000
0000
0000
0000
0000
ENDCHAR

STARTCHAR U+11a9
ENCODING 4521
SWIDTH 500
DWIDTH 14 0
BBX 14 32 0 0
BITMAP
0000
0000
0000
0000
0000
0000
0000
0000
0000
0000
0000
0000
0000
0000
0000
0000
3FF0
3FF0
0330
0330
0330
0330
0CC0
0CC0
0000
0000
0000
0000
0000
0000
0000
0000
ENDCHAR

STARTCHAR U+11aa
ENCODING 4522
SWIDTH 500
DWIDTH 14 0
BBX 14 32 0 0
BITMAP
0000
0000
0000
0000
0000
0000
0000
0000
0000
0000
0000
0000
0000
0000
0000
0000
0000
0000
FC30
FC30
0C30
0C30
0C30
0C30
0CCC
0CCC
3300
3300
0000
0000
0000
0000
ENDCHAR

STARTCHAR U+11ab
ENCODING 4523
SWIDTH 500
DWIDTH 14 0
BBX 14 32 0 0
BITMAP
0000
0000
0000
0000
0000
0000
0000
0000
0000
0000
0000
0000
0000
0000
0000
0000
3000
3000
3000
3000
3000
3000
3000
3000
3FF0
3FF0
0000
0000
0000
0000
0000
0000
ENDCHAR

STARTCHAR U+11ac
ENCODING 4524
SWIDTH 500
DWIDTH 14 0
BBX 14 32 0 0
BITMAP
0000
0000
0000
0000
0000
0000
0000
0000
0000
0000
0000
0000
0000
0000
0000
0000
0000
0000
C3F0
C3F0
C0C0
C0C0
C0C0
C0C0
C330
C330
FF30
FF30
0000
0000
0000
0000
ENDCHAR

STARTCHAR U+11ad
ENCODING 4525
SWIDTH 500
DWIDTH 14 0
BBX 14 32 0 0
BITMAP
0000
0000
0000
0000
0000
0000
0000
0000
0000
0000
0000
0000
0000
0000
0000
0000
0000
0000
C0C0
C0C0
C3F0
C3F0
C0C0
C0C0
C330
C330
FCC0
FCC0
0000
0000
0000
0000
ENDCHAR

STARTCHAR U+11ae
ENCODING 4526
SWIDTH 500
DWIDTH 14 0
BBX 14 32 0 0
BITMAP
0000
0000
0000
0000
0000
0000
0000
0000
0000
0000
0000
0000
0000
0000
0000
0000
3FF0
3FF0
3000
3000
3000
3000
3000
3000
3FF0
3FF0
0000
0000
0000
0000
0000
0000
ENDCHAR

STARTCHAR U+11af
ENCODING 4527
SWIDTH 500
DWIDTH 14 0
BBX 14 32 0 0
BITMAP
0000
0000
0000
0000
0000
0000
0000
0000
0000
0000
0000
0000
0000
0000
0000
0000
3FF0
3FF0
0030
0030
3FF0
3FF0
3000
3000
3FF0
3FF0
0000
0000
0000
0000
0000
0000
ENDCHAR

STARTCHAR U+11b0
ENCODING 4528
SWIDTH 500
DWIDTH 14 0
BBX 14 32 0 0
BITMAP
0000
0000
0000
0000
0000
0000
0000
0000
0000
0000
0000
0000
0000
0000
0000
0000
0000
0000
FFF0
FFF0
0C30
0C30
FC30
FC30
C030
C030
FC30
FC30
0000
0000
0000
0000
ENDCHAR

STARTCHAR U+11b1
ENCODING 4529
SWIDTH 500
DWIDTH 14 0
BBX 14 32 0 0
BITMAP
0000
0000
0000
0000
0000
0000
0000
0000
0000
0000
0000
0000
0000
0000
0000
0000
0000
0000
FCFC
FCFC
0CCC
0CCC
FCCC
FCCC
C0CC
C0CC
FCFC
FCFC
0000
0000
0000
0000
ENDCHAR

STARTCHAR U+11b2
ENCODING 4530
SWIDTH 500
DWIDTH 14 0
BBX 14 32 0 0
BITMAP
0000
0000
0000
0000
0000
0000
0000
0000
0000
0000
0000
0000
0000
0000
0000
0000
0000
0000
FCCC
FCCC
0CCC
0CCC
FCFC
FCFC
C0CC
C0CC
FCFC
FCFC
0000
0000
0000
0000
ENDCHAR

STARTCHAR U+11b3
ENCODING 4531
SWIDTH 500
DWIDTH 14 0
BBX 14 32 0 0
BITMAP
0000
0000
0000
0000
0000
0000
0000
0000
0000
0000
0000
0000
0000
0000
0000
0000
0000
0000
FC30
FC30
0C30
0C30
FC30
FC30
C0CC
C0CC
FF0C
FF0C
0000
0000
0000
0000
ENDCHAR

STARTCHAR U+11b4
ENCODING 4532
SWIDTH 500
DWIDTH 14 0
BBX 14 32 0 0
BITMAP
0000
0000
0000
0000
0000
0000
0000
0000
0000
0000
0000
0000
0000
0000
0000
0000
0000
0000
FCFC
FCFC
0C00
0C00
FCFC
FCFC
C0C0
C0C0
FCFC
FCFC
0000
0000
0000
0000
ENDCHAR

STARTCHAR U+11b5
ENCODING 4533
SWIDTH 500
DWIDTH 14 0
BBX 14 32 0 0
BITMAP
0000
0000
0000
0000
0000
0000
0000
0000
0000
0000
0000
0000
0000
0000
0000
0000
0000
0000
FFFC
FFFC
0F30
0F30
FF30
FF30
C330
C330
FFFC
FFFC
0000
0000
0000
0000
ENDCHAR

STARTCHAR U+11b6
ENCODING 4534
SWIDTH 500
DWIDTH 14 0
BBX 14 32 0 0
BITMAP
0000
0000
0000
0000
0000
0000
0000
0000
0000
0000
0000
0000
0000
0000
0000
0000
0000
0000
FC30
FC30
0CFC
0CFC
FC30
FC30
C0CC
C0CC
FC30
FC30
0000
0000
0000
0000
ENDCHAR

STARTCHAR U+11b7
ENCODING 4535
SWIDTH 500
DWIDTH 14 0
BBX 14 32 0 0
BITMAP
0000
0000
0000
0000
0000
0000
0000
0000
0000
0000
0000
0000
0000
0000
0000
0000
3FF0
3FF0
3030
3030
3030
3030
3030
3030
3FF0
3FF0
0000
0000
0000
0000
0000
0000
ENDCHAR

STARTCHAR U+11b8
ENCODING 4536
SWIDTH 500
DWIDTH 14 0
BBX 14 32 0 0
BITMAP
0000
0000
0000
0000
0000
0000
0000
0000
0000
0000
0000
0000
0000
0000
0000
0000
3030
3030
3030
3030
3FF0
3FF0
3030
3030
3FF0
3FF0
0000
0000
0000
0000
0000
0000
ENDCHAR

STARTCHAR U+11b9
ENCODING 4537
SWIDTH 500
DWIDTH 14 0
BBX 14 32 0 0
BITMAP
0000
0000
0000
0000
0000
0000
0000
0000
0000
0000
0000
0000
0000
0000
0000
0000
0000
0000
CC30
CC30
CC30
CC30
FC30
FC30
CCCC
CCCC
FCCC
FCCC
0000
0000
0000
0000
ENDCHAR

STARTCHAR U+11ba
ENCODING 4538
SWIDTH 500
DWIDTH 14 0
BBX 14 32 0 0
BITMAP
0000
0000
0000
0000
0000
0000
0000
0000
0000
0000
0000
0000
0000
0000
0000
0000
0300
0300
0300
0300
0300
0300
0CC0
0CC0
3030
3030
0000
0000
0000
0000
0000
0000
ENDCHAR

STARTCHAR U+11bb
ENCODING 4539
SWIDTH 500
DWIDTH 14 0
BBX 14 32 0 0
BITMAP
0000
0000
0000
0000
0000
0000
0000
0000
0000
0000
0000
0000
0000
0000
0000
0000
0CC0
0CC0
0CC0
0CC0
3330
3330
C30C
C30C
0000
0000
0000
0000
0000
0000
0000
0000
ENDCHAR

STARTCHAR U+11bc
ENCODING 4540
SWIDTH 500
DWIDTH 14 0
BBX 14 32 0 0
BITMAP
0000
0000
0000
0000
0000
0000
0000
0000
0000
0000
0000
0000
0000
0000
0000
0000
0FC0
0FC0
3030
3030
3030
3030
3030
3030
0FC0
0FC0
0000
0000
0000
0000
0000
0000
ENDCHAR

STARTCHAR U+11bd
ENCODING 4541
SWIDTH 500
DWIDTH 14 0
BBX 14 32 0 0
BITMAP
0000
0000
0000
0000
0000
0000
0000
0000
0000
0000
0000
0000
0000
0000
0000
0000
3FF0
3FF0
0300
0300
0300
0300
0CC0
0CC0
3030
3030
0000
0000
0000
0000
0000
0000
ENDCHAR

STARTCHAR U+11be
ENCODING 4542
SWIDTH 500
DWIDTH 14 0
BBX 14 32 0 0
BITMAP
0000
0000
0000
0000
0000
0000
0000
0000
0000
0000
0000
0000
0000
0000
0000
0000
0300
0300
3FF0
3FF0
0300
0300
0CC0
0CC0
3030
3030
0000
0000
0000
0000
0000
0000
ENDCHAR

STARTCHAR U+11bf
ENCODING 4543
SWIDTH 500
DWIDTH 14 0
BBX 14 32 0 0
BITMAP
0000
0000
0000
0000
0000
0000
0000
0000
0000
0000
0000
0000
0000
0000
0000
0000
3FF0
3FF0
0030
0030
3FF0
3FF0
0030
0030
00C0
00C0
0000
0000
0000
0000
0000
0000
ENDCHAR

STARTCHAR U+11c0
ENCODING 4544
SWIDTH 500
DWIDTH 14 0
BBX 14 32 0 0
BITMAP
0000
0000
0000
0000
0000
0000
0000
0000
0000
0000
0000
0000
0000
0000
0000
0000
3FF0
3FF0
0000
0000
3FF0
3FF0
3000
3000
3FF0
3FF0
0000
0000
0000
0000
0000
0000
ENDCHAR

STARTCHAR U+11c1
ENCODING 4545
SWIDTH 500
DWIDTH 14 0
BBX 14 32 0 0
BITMAP
0000
0000
0000
0000
0000
0000
0000
0000
0000
0000
0000
0000
0000
0000
0000
0000
3FF0
3FF0
0CC0
0CC0
0CC0
0CC0
0CC0
0CC0
3FF0
3FF0
0000
0000
0000
0000
0000
0000
ENDCHAR

STARTCHAR U+11c2
ENCODING 4546
SWIDTH 500
DWIDTH 14 0
BBX 14 32 0 0
BITMAP
0000
0000
0000
0000
0000
0000
0000
0000
0000
0000
0000
0000
0000
0000
0000
0000
0300
0300
3FF0
3FF0
0FC0
0FC0
3030
3030
0FC0
0FC0
0000
0000
0000
0000
0000
0000
ENDCHAR

STARTCHAR U+ac00
ENCODING 44032
SWIDTH 1000
DWIDTH 28 0
BBX 28 32 0 0
BITMAP
3FF0C000
3FF0C000
0030C000
0030C000
0030C000
0030C000
0030FF00
0030FF00
0030C000
0030C000
0000C000
0000C000
0000C000
0000C000
0000C000
0000C000
0000C000
0000C000
0000C000
0000C000
0000C000
0000C000
0000C000
0000C000
00000000
00000000
00000000
00000000
00000000
00000000
00000000
00000000
ENDCHAR

STARTCHAR U+ac01
ENCODING 44033
SWIDTH 1000
DWIDTH 28 0
BBX 28 32 0 0
BITMAP
3FF0C000
3FF0C000
0030C000
0030C000
0030C000
0030C000
0030FF00
0030FF00
0030C000
0030C000
0000C000
0000C000
0000C000
0000C000
0000C000
0000C000
3FF00000
3FF00000
00300000
00300000
00300000
00300000
00300000
00300000
00300000
00300000
00000000
00000000
00000000
00000000
00000000
00000000
ENDCHAR

STARTCHAR U+ac02
ENCODING 44034
SWIDTH 1000
DWIDTH 28 0
BBX 28 32 0 0
BITMAP
3FF0C000
3FF0C000
0030C000
0030C000
0030C000
0030C000
0030FF00
0030FF00
0030C000
0030C000
0000C000
0000C000
0000C000
0000C000
0000C000
0000C000
3FF00000
3FF00000
03300000
03300000
03300000
03300000
0CC00000
0CC00000
00000000
00000000
00000000
00000000
00000000
00000000
00000000
00000000
ENDCHAR

STARTCHAR U+ac03
ENCODING 44035
SWIDTH 1000
DWIDTH 28 0
BBX 28 32 0 0
BITMAP
3FF0C000
3FF0C000
0030C000
0030C000
0030C000
0030C000
0030FF00
0030FF00
0030C000
0030C000
0000C000
0000C000
0000C000
0000C000
0000C000
0000C000
3FF00C00
3FF00C00
00300C00
00300C00
00300C00
00300C00
00303300
00303300
0030C0C0
0030C0C0
00000000
00000000
00000000
00000000
00000000
00000000
ENDCHAR

STARTCHAR U+ac04
ENCODING 44036
SWIDTH 1000
DWIDTH 28 0
BBX 28 32 0 0
BITMAP
3FF0C000
3FF0C000
0030C000
0030C000
0030C000
0030C000
0030FF00
0030FF00
0030C000
0030C000
0000C000
0000C000
0000C000
0000C000
0000C000
0000C000
30000000
30000000
30000000
30000000
30000000
30000000
30000000
30000000
3FF00000
3FF00000
00000000
00000000
00000000
00000000
00000000
00000000
ENDCHAR

STARTCHAR U+ac05
ENCODING 44037
SWIDTH 1000
DWIDTH 28 0
BBX 28 32 0 0
BITMAP
3FF0C000
3FF0C000
0030C000
0030C000
0030C000
0030C000
0030FF00
0030FF00
0030C000
0030C000
0000C000
0000C000
0000C000
0000C000
0000C000
0000C000
3000FFC0
3000FFC0
30000C00
30000C00
30000C00
30000C00
30003300
30003300
3FF0C0C0
3FF0C0C0
00000000
00000000
00000000
00000000
00000000
00000000
ENDCHAR

STARTCHAR U+ac06
ENCODING 44038
SWIDTH 1000
DWIDTH 28 0
BBX 28 32 0 0
BITMAP
3FF0C000
3FF0C000
0030C000
0030C000
0030C000
0030C000
0030FF00
0030FF00
0030C000
0030C000
0000C000
0000C000
0000C000
0000C000
0000C000
0000C000
30000C00
30000C00
3000FFC0
3000FFC0
30003F00
30003F00
3000C0C0
3000C0C0
3FF03F00
3FF03F00
00000000
00000000
00000000
00000000
00000000
00000000
ENDCHAR

STARTCHAR U+ac07
ENCODING 44039
SWIDTH 1000
DWIDTH 28 0
BBX 28 32 0 0
BITMAP
3FF0C000
3FF0C000
0030C000
0030C000
0030C000
0030C000
0030FF00
0030FF00
0030C000
0030C000
0000C000
0000C000
0000C000
0000C000
0000C000
0000C000
3FF00000
3FF00000
30000000
30000000
30000000
30000000
30000000
30000000
3FF00000
3FF00000
00000000
00000000
00000000
00000000
00000000
00000000
ENDCHAR

STARTCHAR U+ac08
ENCODING 44040
SWIDTH 1000
DWIDTH 28 0
BBX 28 32 0 0
BITMAP
3FF0C000
3FF0C000
0030C000
0030C000
0030C000
0030C000
0030FF00
0030FF00
0030C000
0030C000
0000C000
0000C000
0000C000
0000C000
0000C000
0000C000
3FF00000
3FF00000
00300000
00300000
3FF00000
3FF00000
30000000
30000000
3FF00000
3FF00000
00000000
00000000
00000000
00000000
00000000
00000000
ENDCHAR

STARTCHAR U+ac09
ENCODING 44041
SWIDTH 1000
DWIDTH 28 0
BBX 28 32 0 0
BITMAP
3FF0C000
3FF0C000
0030C000
0030C000
0030C000
0030C000
0030FF00
0030FF00
0030C000
0030C000
0000C000
0000C000
0000C000
0000C000
0000C000
0000C000
3FF0FFC0
3FF0FFC0
003000C0
003000C0
3FF000C0
3FF000C0
300000C0
300000C0
3FF000C0
3FF000C0
00000000
00000000
00000000
00000000
00000000
00000000
ENDCHAR

STARTCHAR U+ac0a
ENCODING 44042
SWIDTH 1000
DWIDTH 28 0
BBX 28 32 0 0
BITMAP
3FF0C000
3FF0C000
0030C000
0030C000
0030C000
0030C000
0030FF00
0030FF00
0030C000
0030C000
0000C000
0000C000
0000C000
0000C000
0000C000
0000C000
3FF0FFC0
3FF0FFC0
0030C0C0
0030C0C0
3FF0C0C0
3FF0C0C0
3000C0C0
3000C0C0
3FF0FFC0
3FF0FFC0
00000000
00000000
00000000
00000000
00000000
00000000
ENDCHAR

STARTCHAR U+ac0b
ENCODING 44043
SWIDTH 1000
DWIDTH 28 0
BBX 28 32 0 0
BITMAP
3FF0C000
3FF0C000
0030C000
0030C000
0030C000
0030C000
0030FF00
0030FF00
0030C000
0030C000
0000C000
0000C000
0000C000
0000C000
0000C000
0000C000
3FF0C0C0
3FF0C0C0
0030C0C0
0030C0C0
3FF0FFC0
3FF0FFC0
3000C0C0
3000C0C0
3FF0FFC0
3FF0FFC0
00000000
00000000
00000000
00000000
00000000
00000000
ENDCHAR

STARTCHAR U+ac0c
ENCODING 44044
SWIDTH 1000
DWIDTH 28 0
BBX 28 32 0 0
BITMAP
3FF0C000
3FF0C000
0030C000
0030C000
0030C000
0030C000
0030FF00
0030FF00
0030C000
0030C000
0000C000
0000C000
0000C000
0000C000
0000C000
0000C000
3FF00C00
3FF00C00
00300C00
00300C00
3FF00C00
3FF00C00
30003300
30003300
3FF0C0C0
3FF0C0C0
00000000
00000000
00000000
00000000
00000000
00000000
ENDCHAR

STARTCHAR U+ac0d
ENCODING 44045
SWIDTH 1000
DWIDTH 28 0
BBX 28 32 0 0
BITMAP
3FF0C000
3FF0C000
0030C000
0030C000
0030C000
0030C000
0030FF00
0030FF00
0030C000
0030C000
0000C000
0000C000
0000C000
0000C000
0000C000
0000C000
3FF0FFC0
3FF0FFC0
00300000
00300000
3FF0FFC0
3FF0FFC0
3000C000
3000C000
3FF0FFC0
3FF0FFC0
00000000
00000000
00000000
00000000
00000000
00000000
ENDCHAR

STARTCHAR U+ac0e
ENCODING 44046
SWIDTH 1000
DWIDTH 28 0
BBX 28 32 0 0
BITMAP
3FF0C000
3FF0C000
0030C000
0030C000
0030C000
0030C000
0030FF00
0030FF00
0030C000
0030C000
0000C000
0000C000
0000C000
0000C000
0000C000
0000C000
3FF0FFC0
3FF0FFC0
00303300
00303300
3FF03300
3FF03300
30003300
30003300
3FF0FFC0
3FF0FFC0
00000000
00000000
00000000
00000000
00000000
00000000
ENDCHAR

STARTCHAR U+ac0f
ENCODING 44047
SWIDTH 1000
DWIDTH 28 0
BBX 28 32 0 0
BITMAP
3FF0C000
3FF0C000
0030C000
0030C000
0030C000
0030C000
0030FF00
0030FF00
0030C000
0030C000
0000C000
0000C000
0000C000
0000C000
0000C000
0000C000
3FF00C00
3FF00C00
0030FFC0
0030FFC0
3FF03F00
3FF03F00
3000C0C0
3000C0C0
3FF03F00
3FF03F00
00000000
00000000
00000000
00000000
00000000
00000000
ENDCHAR

STARTCHAR U+ac10
ENCODING 44048
SWIDTH 1000
DWIDTH 28 0
BBX 28 32 0 0
BITMAP
3FF0C000
3FF0C000
0030C000
0030C000
0030C000
0030C000
0030FF00
0030FF00
0030C000
0030C000
0000C000
0000C000
0000C000
0000C000
0000C000
0000C000
3FF00000
3FF00000
30300000
30300000
30300000
30300000
30300000
30300000
3FF00000
3FF00000
00000000
00000000
00000000
00000000
00000000
00000000
ENDCHAR

STARTCHAR U+ac11
ENCODING 44049
SWIDTH 1000
DWIDTH 28 0
BBX 28 32 0 0
BITMAP
3FF0C000
3FF0C000
0030C000
0030C000
0030C000
0030C000
0030FF00
0030FF00
0030C000
0030C000
0000C000
0000C000
0000C000
0000C000
0000C000
0000C000
30300000
30300000
30300000
30300000
3FF00000
3FF00000
30300000
30300000
3FF00000
3FF00000
00000000
00000000
00000000
00000000
00000000
00000000
ENDCHAR

STARTCHAR U+ac12
ENCODING 44050
SWIDTH 1000
DWIDTH 28 0
BBX 28 32 0 0
BITMAP
3FF0C000
3FF0C000
0030C000
0030C000
0030C000
0030C000
0030FF00
0030FF00
0030C000
0030C000
0000C000
0000C000
0000C000
0000C000
0000C000
0000C000
30300C00
30300C00
30300C00
30300C00
3FF00C00
3FF00C00
30303300
30303300
3FF0C0C0
3FF0C0C0
00000000
00000000
00000000
00000000
00000000
00000000
ENDCHAR

STARTCHAR U+ac13
ENCODING 44051
SWIDTH 1000
DWIDTH 28 0
BBX 28 32 0 0
BITMAP
3FF0C000
3FF0C000
0030C000
0030C000
0030C000
0030C000
0030FF00
0030FF00
0030C000
0030C000
0000C000
0000C000
0000C000
0000C000
0000C000
0000C000
03000000
03000000
03000000
03000000
03000000
03000000
0CC00000
0CC00000
30300000
30300000
00000000
00000000
00000000
00000000
00000000
00000000
ENDCHAR

STARTCHAR U+ac14
ENCODING 44052
SWIDTH 1000
DWIDTH 28 0
BBX 28 32 0 0
BITMAP
3FF0C000
3FF0C000
0030C000
0030C000
0030C000
0030C000
0030FF00
0030FF00
0030C000
0030C000
0000C000
0000C000
0000C000
0000C000
0000C000
0000C000
0CC00000
0CC00000
0CC00000
0CC00000
33300000
33300000
C30C0000
C30C0000
00000000
00000000
00000000
00000000
00000000
00000000
00000000
00000000
ENDCHAR

STARTCHAR U+ac15
ENCODING 44053
SWIDTH 1000
DWIDTH 28 0
BBX 28 32 0 0
BITMAP
3FF0C000
3FF0C000
0030C000
0030C000
0030C000
0030C000
0030FF00
0030FF00
0030C000
0030C000
0000C000
0000C000
0000C000
0000C000
0000C000
0000C000
0FC00000
0FC00000
30300000
30300000
30300000
30300000
30300000
30300000
0FC00000
0FC00000
00000000
00000000
00000000
00000000
00000000
00000000
ENDCHAR

STARTCHAR U+ac16
ENCODING 44054
SWIDTH 1000
DWIDTH 28 0
BBX 28 32 0 0
BITMAP
3FF0C000
3FF0C000
0030C000
0030C000
0030C000
0030C000
0030FF00
0030FF00
0030C000
0030C000
0000C000
0000C000
0000C000
0000C000
0000C000
0000C000
3FF00000
3FF00000
03000000
03000000
03000000
03000000
0CC00000
0CC00000
30300000
30300000
00000000
00000000
00000000
00000000
00000000
00000000
ENDCHAR

STARTCHAR U+ac17
ENCODING 44055
SWIDTH 1000
DWIDTH 28 0
BBX 28 32 0 0
BITMAP
3FF0C000
3FF0C000
0030C000
0030C000
0030C000
0030C000
0030FF00
0030FF00
0030C000
0030C000
0000C000
0000C000
0000C000
0000C000
0000C000
0000C000
03000000
03000000
3FF00000
3FF00000
03000000
03000000
0CC00000
0CC00000
30300000
30300000
00000000
00000000
00000000
00000000
00000000
00000000
ENDCHAR

STARTCHAR U+ac18
ENCODING 44056
SWIDTH 1000
DWIDTH 28 0
BBX 28 32 0 0
BITMAP
3FF0C000
3FF0C000
0030C000
0030C000
0030C000
0030C000
0030FF00
0030FF00
0030C000
0030C000
0000C000
0000C000
0000C000
0000C000
0000C000
0000C000
3FF00000
3FF00000
00300000
00300000
3FF00000
3FF00000
00300000
00300000
00C00000
00C00000
00000000
00000000
00000000
00000000
00000000
00000000
ENDCHAR

STARTCHAR U+ac19
ENCODING 44057
SWIDTH 1000
DWIDTH 28 0
BBX 28 32 0 0
BITMAP
3FF0C000
3FF0C000
0030C000
0030C000
0030C000
0030C000
0030FF00
0030FF00
0030C000
0030C000
0000C000
0000C000
0000C000
0000C000
0000C000
0000C000
3FF00000
3FF00000
00000000
00000000
3FF00000
3FF00000
30000000
30000000
3FF00000
3FF00000
00000000
00000000
00000000
00000000
00000000
00000000
ENDCHAR

STARTCHAR U+ac1a
ENCODING 44058
SWIDTH 1000
DWIDTH 28 0
BBX 28 32 0 0
BITMAP
3FF0C000
3FF0C000
0030C000
0030C000
0030C000
0030C000
0030FF00
0030FF00
0030C000
0030C000
0000C000
0000C000
0000C000
0000C000
0000C000
0000C000
3FF00000
3FF00000
0CC00000
0CC00000
0CC00000
0CC00000
0CC00000
0CC00000
3FF00000
3FF00000
00000000
00000000
00000000
00000000
00000000
00000000
ENDCHAR

STARTCHAR U+ac1b
ENCODING 44059
SWIDTH 1000
DWIDTH 28 0
BBX 28 32 0 0
BITMAP
3FF0C000
3FF0C000
0030C000
0030C000
0030C000
0030C000
0030FF00
0030FF00
0030C000
0030C000
0000C000
0000C000
0000C000
0000C000
0000C000
0000C000
03000000
03000000
3FF00000
3FF00000
0FC00000
0FC00000
30300000
30300000
0FC00000
0FC00000
00000000
00000000
00000000
00000000
00000000
00000000
ENDCHAR

STARTCHAR U+ac1c
ENCODING 44060
SWIDTH 1000
DWIDTH 28 0
BBX 28 32 0 0
BITMAP
3FF0CC00
3FF0CC00
0030CC00
0030CC00
0030CC00
0030CC00
0030FC00
0030FC00
0030CC00
0030CC00
0000CC00
0000CC00
0000CC00
0000CC00
0000CC00
0000CC00
0000CC00
0000CC00
0000CC00
0000CC00
0000CC00
0000CC00
0000CC00
0000CC00
00000000
00000000
00000000
00000000
00000000
00000000
00000000
00000000
ENDCHAR

STARTCHAR U+ac1d
ENCODING 44061
SWIDTH 1000
DWIDTH 28 0
BBX 28 32 0 0
BITMAP
3FF0CC00
3FF0CC00
0030CC00
0030CC00
0030CC00
0030CC00
0030FC00
0030FC00
0030CC00
0030CC00
0000CC00
0000CC00
0000CC00
0000CC00
0000CC00
0000CC00
3FF00000
3FF00000
00300000
00300000
00300000
00300000
00300000
00300000
00300000
00300000
00000000
00000000
00000000
00000000
00000000
00000000
ENDCHAR

STARTCHAR U+ac1e
ENCODING 44062
SWIDTH 1000
DWIDTH 28 0
BBX 28 32 0 0
BITMAP
3FF0CC00
3FF0CC00
0030CC00
0030CC00
0030CC00
0030CC00
0030FC00
0030FC00
0030CC00
0030CC00
0000CC00
0000CC00
0000CC00
0000CC00
0000CC00
0000CC00
3FF00000
3FF00000
03300000
03300000
03300000
03300000
0CC00000
0CC00000
00000000
00000000
00000000
00000000
00000000
00000000
00000000
00000000
ENDCHAR

STARTCHAR U+ac1f
ENCODING 44063
SWIDTH 1000
DWIDTH 28 0
BBX 28 32 0 0
BITMAP
3FF0CC00
3FF0CC00
0030CC00
0030CC00
0030CC00
0030CC00
0030FC00
0030FC00
0030CC00
0030CC00
0000CC00
0000CC00
0000CC00
0000CC00
0000CC00
0000CC00
3FF00C00
3FF00C00
00300C00
00300C00
00300C00
00300C00
00303300
00303300
0030C0C0
0030C0C0
00000000
00000000
00000000
00000000
00000000
00000000
ENDCHAR

STARTCHAR U+ac20
ENCODING 44064
SWIDTH 1000
DWIDTH 28 0
BBX 28 32 0 0
BITMAP
3FF0CC00
3FF0CC00
0030CC00
0030CC00
0030CC00
0030CC00
0030FC00
0030FC00
0030CC00
0030CC00
0000CC00
0000CC00
0000CC00
0000CC00
0000CC00
0000CC00
30000000
30000000
30000000
30000000
30000000
30000000
30000000
30000000
3FF00000
3FF00000
00000000
00000000
00000000
00000000
00000000
00000000
ENDCHAR

STARTCHAR U+ac21
ENCODING 44065
SWIDTH 1000
DWIDTH 28 0
BBX 28 32 0 0
BITMAP
3FF0CC00
3FF0CC00
0030CC00
0030CC00
0030CC00
0030CC00
0030FC00
0030FC00
0030CC00
0030CC00
0000CC00
0000CC00
0000CC00
0000CC00
0000CC00
0000CC00
3000FFC0
3000FFC0
30000C00
30000C00
30000C00
30000C00
30003300
30003300
3FF0C0C0
3FF0C0C0
00000000
00000000
00000000
00000000
00000000
00000000
ENDCHAR

STARTCHAR U+ac22
ENCODING 44066
SWIDTH 1000
DWIDTH 28 0
BBX 28 32 0 0
BITMAP
3FF0CC00
3FF0CC00
0030CC00
0030CC00
0030CC00
0030CC00
0030FC00
0030FC00
0030CC00
0030CC00
0000CC00
0000CC00
0000CC00
0000CC00
0000CC00
0000CC00
30000C00
30000C00
3000FFC0
3000FFC0
30003F00
30003F00
3000C0C0
3000C0C0
3FF03F00
3FF03F00
00000000
00000000
00000000
00000000
00000000
00000000
ENDCHAR

STARTCHAR U+ac23
ENCODING 44067
SWIDTH 1000
DWIDTH 28 0
BBX 28 32 0 0
BITMAP
3FF0CC00
3FF0CC00
0030CC00
0030CC00
0030CC00
0030CC00
0030FC00
0030FC00
0030CC00
0030CC00
0000CC00
0000CC00
0000CC00
0000CC00
0000CC00
0000CC00
3FF00000
3FF00000
30000000
30000000
30000000
30000000
30000000
30000000
3FF00000
3FF00000
00000000
00000000
00000000
00000000
00000000
00000000
ENDCHAR

STARTCHAR U+ac24
ENCODING 44068
SWIDTH 1000
DWIDTH 28 0
BBX 28 32 0 0
BITMAP
3FF0CC00
3FF0CC00
0030CC00
0030CC00
0030CC00
0030CC00
0030FC00
0030FC00
0030CC00
0030CC00
0000CC00
0000CC00
0000CC00
0000CC00
0000CC00
0000CC00
3FF00000
3FF00000
00300000
00300000
3FF00000
3FF00000
30000000
30000000
3FF00000
3FF00000
00000000
00000000
00000000
00000000
00000000
00000000
ENDCHAR

STARTCHAR U+ac25
ENCODING 44069
SWIDTH 1000
DWIDTH 28 0
BBX 28 32 0 0
BITMAP
3FF0CC00
3FF0CC00
0030CC00
0030CC00
0030CC00
0030CC00
0030FC00
0030FC00
0030CC00
0030CC00
0000CC00
0000CC00
0000CC00
0000CC00
0000CC00
0000CC00
3FF0FFC0
3FF0FFC0
003000C0
003000C0
3FF000C0
3FF000C0
300000C0
300000C0
3FF000C0
3FF000C0
00000000
00000000
00000000
00000000
00000000
00000000
ENDCHAR

STARTCHAR U+ac26
ENCODING 44070
SWIDTH 1000
DWIDTH 28 0
BBX 28 32 0 0
BITMAP
3FF0CC00
3FF0CC00
0030CC00
0030CC00
0030CC00
0030CC00
0030FC00
0030FC00
0030CC00
0030CC00
0000CC00
0000CC00
0000CC00
0000CC00
0000CC00
0000CC00
3FF0FFC0
3FF0FFC0
0030C0C0
0030C0C0
3FF0C0C0
3FF0C0C0
3000C0C0
3000C0C0
3FF0FFC0
3FF0FFC0
00000000
00000000
00000000
00000000
00000000
00000000
ENDCHAR

STARTCHAR U+ac27
ENCODING 44071
SWIDTH 1000
DWIDTH 28 0
BBX 28 32 0 0
BITMAP
3FF0CC00
3FF0CC00
0030CC00
0030CC00
0030CC00
0030CC00
0030FC00
0030FC00
0030CC00
0030CC00
0000CC00
0000CC00
0000CC00
0000CC00
0000CC00
0000CC00
3FF0C0C0
3FF0C0C0
0030C0C0
0030C0C0
3FF0FFC0
3FF0FFC0
3000C0C0
3000C0C0
3FF0FFC0
3FF0FFC0
00000000
00000000
00000000
00000000
00000000
00000000
ENDCHAR

STARTCHAR U+ac28
ENCODING 44072
SWIDTH 1000
DWIDTH 28 0
BBX 28 32 0 0
BITMAP
3FF0CC00
3FF0CC00
0030CC00
0030CC00
0030CC00
0030CC00
0030FC00
0030FC00
0030CC00
0030CC00
0000CC00
0000CC00
0000CC00
0000CC00
0000CC00
0000CC00
3FF00C00
3FF00C00
00300C00
00300C00
3FF00C00
3FF00C00
30003300
30003300
3FF0C0C0
3FF0C0C0
00000000
00000000
00000000
00000000
00000000
00000000
ENDCHAR

STARTCHAR U+ac29
ENCODING 44073
SWIDTH 1000
DWIDTH 28 0
BBX 28 32 0 0
BITMAP
3FF0CC00
3FF0CC00
0030CC00
0030CC00
0030CC00
0030CC00
0030FC00
0030FC00
0030CC00
0030CC00
0000CC00
0000CC00
0000CC00
0000CC00
0000CC00
0000CC00
3FF0FFC0
3FF0FFC0
00300000
00300000
3FF0FFC0
3FF0FFC0
3000C000
3000C000
3FF0FFC0
3FF0FFC0
00000000
00000000
00000000
00000000
00000000
00000000
ENDCHAR

STARTCHAR U+ac2a
ENCODING 44074
SWIDTH 1000
DWIDTH 28 0
BBX 28 32 0 0
BITMAP
3FF0CC00
3FF0CC00
0030CC00
0030CC00
0030CC00
0030CC00
0030FC00
0030FC00
0030CC00
0030CC00
0000CC00
0000CC00
0000CC00
0000CC00
0000CC00
0000CC00
3FF0FFC0
3FF0FFC0
00303300
00303300
3FF03300
3FF03300
30003300
30003300
3FF0FFC0
3FF0FFC0
00000000
00000000
00000000
00000000
00000000
00000000
ENDCHAR

STARTCHAR U+ac2b
ENCODING 44075
SWIDTH 1000
DWIDTH 28 0
BBX 28 32 0 0
BITMAP
3FF0CC00
3FF0CC00
0030CC00
0030CC00
0030CC00
0030CC00
0030FC00
0030FC00
0030CC00
0030CC00
0000CC00
0000CC00
0000CC00
0000CC00
0000CC00
0000CC00
3FF00C00
3FF00C00
0030FFC0
0030FFC0
3FF03F00
3FF03F00
3000C0C0
3000C0C0
3FF03F00
3FF03F00
00000000
00000000
00000000
00000000
00000000
00000000
ENDCHAR

STARTCHAR U+ac2c
ENCODING 44076
SWIDTH 1000
DWIDTH 28 0
BBX 28 32 0 0
BITMAP
3FF0CC00
3FF0CC00
0030CC00
0030CC00
0030CC00
0030CC00
0030FC00
0030FC00
0030CC00
0030CC00
0000CC00
0000CC00
0000CC00
0000CC00
0000CC00
0000CC00
3FF00000
3FF00000
30300000
30300000
30300000
30300000
30300000
30300000
3FF00000
3FF00000
00000000
00000000
00000000
00000000
00000000
00000000
ENDCHAR

STARTCHAR U+ac2d
ENCODING 44077
SWIDTH 1000
DWIDTH 28 0
BBX 28 32 0 0
BITMAP
3FF0CC00
3FF0CC00
0030CC00
0030CC00
0030CC00
0030CC00
0030FC00
0030FC00
0030CC00
0030CC00
0000CC00
0000CC00
0000CC00
0000CC00
0000CC00
0000CC00
30300000
30300000
30300000
30300000
3FF00000
3FF00000
30300000
30300000
3FF00000
3FF00000
00000000
00000000
00000000
00000000
00000000
00000000
ENDCHAR

STARTCHAR U+ac2e
ENCODING 44078
SWIDTH 1000
DWIDTH 28 0
BBX 28 32 0 0
BITMAP
3FF0CC00
3FF0CC00
0030CC00
0030CC00
0030CC00
0030CC00
0030FC00
0030FC00
0030CC00
0030CC00
0000CC00
0000CC00
0000CC00
0000CC00
0000CC00
0000CC00
30300C00
30300C00
30300C00
30300C00
3FF00C00
3FF00C00
30303300
30303300
3FF0C0C0
3FF0C0C0
00000000
00000000
00000000
00000000
00000000
00000000
ENDCHAR

STARTCHAR U+ac2f
ENCODING 44079
SWIDTH 1000
DWIDTH 28 0
BBX 28 32 0 0
BITMAP
3FF0CC00
3FF0CC00
0030CC00
0030CC00
0030CC00
0030CC00
0030FC00
0030FC00
0030CC00
0030CC00
0000CC00
0000CC00
0000CC00
0000CC00
0000CC00
0000CC00
03000000
03000000
03000000
03000000
03000000
03000000
0CC00000
0CC00000
30300000
30300000
00000000
00000000
00000000
00000000
00000000
00000000
ENDCHAR

STARTCHAR U+ac30
ENCODING 44080
SWIDTH 1000
DWIDTH 28 0
BBX 28 32 0 0
BITMAP
3FF0CC00
3FF0CC00
0030CC00
0030CC00
0030CC00
0030CC00
0030FC00
0030FC00
0030CC00
0030CC00
0000CC00
0000CC00
0000CC00
0000CC00
0000CC00
0000CC00
0CC00000
0CC00000
0CC00000
0CC00000
33300000
33300000
C30C0000
C30C0000
00000000
00000000
00000000
00000000
00000000
00000000
00000000
00000000
ENDCHAR

STARTCHAR U+ac31
ENCODING 44081
SWIDTH 1000
DWIDTH 28 0
BBX 28 32 0 0
BITMAP
3FF0CC00
3FF0CC00
0030CC00
0030CC00
0030CC00
0030CC00
0030FC00
0030FC00
0030CC00
0030CC00
0000CC00
0000CC00
0000CC00
0000CC00
0000CC00
0000CC00
0FC00000
0FC00000
30300000
30300000
30300000
30300000
30300000
30300000
0FC00000
0FC00000
00000000
00000000
00000000
00000000
00000000
00000000
ENDCHAR

STARTCHAR U+ac32
ENCODING 44082
SWIDTH 1000
DWIDTH 28 0
BBX 28 32 0 0
BITMAP
3FF0CC00
3FF0CC00
0030CC00
0030CC00
0030CC00
0030CC00
0030FC00
0030FC00
0030CC00
0030CC00
0000CC00
0000CC00
0000CC00
0000CC00
0000CC00
0000CC00
3FF00000
3FF00000
03000000
03000000
03000000
03000000
0CC00000
0CC00000
30300000
30300000
00000000
00000000
00000000
00000000
00000000
00000000
ENDCHAR

STARTCHAR U+ac33
ENCODING 44083
SWIDTH 1000
DWIDTH 28 0
BBX 28 32 0 0
BITMAP
3FF0CC00
3FF0CC00
0030CC00
0030CC00
0030CC00
0030CC00
0030FC00
0030FC00
0030CC00
0030CC00
0000CC00
0000CC00
0000CC00
0000CC00
0000CC00
0000CC00
03000000
03000000
3FF00000
3FF00000
03000000
03000000
0CC00000
0CC00000
30300000
30300000
00000000
00000000
00000000
00000000
00000000
00000000
ENDCHAR

STARTCHAR U+ac34
ENCODING 44084
SWIDTH 1000
DWIDTH 28 0
BBX 28 32 0 0
BITMAP
3FF0CC00
3FF0CC00
0030CC00
0030CC00
0030CC00
0030CC00
0030FC00
0030FC00
0030CC00
0030CC00
0000CC00
0000CC00
0000CC00
0000CC00
0000CC00
0000CC00
3FF00000
3FF00000
00300000
00300000
3FF00000
3FF00000
00300000
00300000
00C00000
00C00000
00000000
00000000
00000000
00000000
00000000
00000000
ENDCHAR

STARTCHAR U+ac35
ENCODING 44085
SWIDTH 1000
DWIDTH 28 0
BBX 28 32 0 0
BITMAP
3FF0CC00
3FF0CC00
0030CC00
0030CC00
0030CC00
0030CC00
0030FC00
0030FC00
0030CC00
0030CC00
0000CC00
0000CC00
0000CC00
0000CC00
0000CC00
0000CC00
3FF00000
3FF00000
00000000
00000000
3FF00000
3FF00000
30000000
30000000
3FF00000
3FF00000
00000000
00000000
00000000
00000000
00000000
00000000
ENDCHAR

STARTCHAR U+ac36
ENCODING 44086
SWIDTH 1000
DWIDTH 28 0
BBX 28 32 0 0
BITMAP
3FF0CC00
3FF0CC00
0030CC00
0030CC00
0030CC00
0030CC00
0030FC00
0030FC00
0030CC00
0030CC00
0000CC00
0000CC00
0000CC00
0000CC00
0000CC00
0000CC00
3FF00000
3FF00000
0CC00000
0CC00000
0CC00000
0CC00000
0CC00000
0CC00000
3FF00000
3FF00000
00000000
00000000
00000000
00000000
00000000
00000000
ENDCHAR

STARTCHAR U+ac37
ENCODING 44087
SWIDTH 1000
DWIDTH 28 0
BBX 28 32 0 0
BITMAP
3FF0CC00
3FF0CC00
0030CC00
0030CC00
0030CC00
0030CC00
0030FC00
0030FC00
0030CC00
0030CC00
0000CC00
0000CC00
0000CC00
0000CC00
0000CC00
0000CC00
03000000
03000000
3FF00000
3FF00000
0FC00000
0FC00000
30300000
30300000
0FC00000
0FC00000
00000000
00000000
00000000
00000000
00000000
00000000
ENDCHAR

STARTCHAR U+ac38
ENCODING 44088
SWIDTH 1000
DWIDTH 28 0
BBX 28 32 0 0
BITMAP
3FF0C000
3FF0C000
0030C000
0030C000
0030FF00
0030FF00
0030C000
0030C000
0030C000
0030C000
0000FF00
0000FF00
0000C000
0000C000
0000C000
0000C000
0000C000
0000C000
0000C000
0000C000
0000C000
0000C000
0000C000
0000C000
00000000
00000000
00000000
00000000
00000000
00000000
00000000
00000000
ENDCHAR

STARTCHAR U+ac39
ENCODING 44089
SWIDTH 1000
DWIDTH 28 0
BBX 28 32 0 0
BITMAP
3FF0C000
3FF0C000
0030C000
0030C000
0030FF00
0030FF00
0030C000
0030C000
0030C000
0030C000
0000FF00
0000FF00
0000C000
0000C000
0000C000
0000C000
3FF00000
3FF00000
00300000
00300000
00300000
00300000
00300000
00300000
00300000
00300000
00000000
00000000
00000000
00000000
00000000
00000000
ENDCHAR

STARTCHAR U+ac3a
ENCODING 44090
SWIDTH 1000
DWIDTH 28 0
BBX 28 32 0 0
BITMAP
3FF0C000
3FF0C000
0030C000
0030C000
0030FF00
0030FF00
0030C000
0030C000
0030C000
0030C000
0000FF00
0000FF00
0000C000
0000C000
0000C000
0000C000
3FF00000
3FF00000
03300000
03300000
03300000
03300000
0CC00000
0CC00000
00000000
00000000
00000000
00000000
00000000
00000000
00000000
00000000
ENDCHAR

STARTCHAR U+ac3b
ENCODING 44091
SWIDTH 1000
DWIDTH 28 0
BBX 28 32 0 0
BITMAP
3FF0C000
3FF0C000
0030C000
0030C000
0030FF00
0030FF00
0030C000
0030C000
0030C000
0030C000
0000FF00
0000FF00
0000C000
0000C000
0000C000
0000C000
3FF00C00
3FF00C00
00300C00
00300C00
00300C00
00300C00
00303300
00303300
0030C0C0
0030C0C0
00000000
00000000
00000000
00000000
00000000
00000000
ENDCHAR

STARTCHAR U+ac3c
ENCODING 44092
SWIDTH 1000
DWIDTH 28 0
BBX 28 32 0 0
BITMAP
3FF0C000
3FF0C000
0030C000
0030C000
0030FF00
0030FF00
0030C000
0030C000
0030C000
0030C000
0000FF00
0000FF00
0000C000
0000C000
0000C000
0000C000
30000000
30000000
30000000
30000000
30000000
30000000
30000000
30000000
3FF00000
3FF00000
00000000
00000000
00000000
00000000
00000000
00000000
ENDCHAR

STARTCHAR U+ac3d
ENCODING 44093
SWIDTH 1000
DWIDTH 28 0
BBX 28 32 0 0
BITMAP
3FF0C000
3FF0C000
0030C000
0030C000
0030FF00
0030FF00
0030C000
0030C000
0030C000
0030C000
0000FF00
0000FF00
0000C000
0000C000
0000C000
0000C000
3000FFC0
3000FFC0
30000C00
30000C00
30000C00
30000C00
30003300
30003300
3FF0C0C0
3FF0C0C0
00000000
00000000
00000000
00000000
00000000
00000000
ENDCHAR

STARTCHAR U+ac3e
ENCODING 44094
SWIDTH 1000
DWIDTH 28 0
BBX 28 32 0 0
BITMAP
3FF0C000
3FF0C000
0030C000
0030C000
0030FF00
0030FF00
0030C000
0030C000
0030C000
0030C000
0000FF00
0000FF00
0000C000
0000C000
0000C000
0000C000
30000C00
30000C00
3000FFC0
3000FFC0
30003F00
30003F00
3000C0C0
3000C0C0
3FF03F00
3FF03F00
00000000
00000000
00000000
00000000
00000000
00000000
ENDCHAR

STARTCHAR U+ac3f
ENCODING 44095
SWIDTH 1000
DWIDTH 28 0
BBX 28 32 0 0
BITMAP
3FF0C000
3FF0C000
0030C000
0030C000
0030FF00
0030FF00
0030C000
0030C000
0030C000
0030C000
0000FF00
0000FF00
0000C000
0000C000
0000C000
0000C000
3FF00000
3FF00000
30000000
30000000
30000000
30000000
30000000
30000000
3FF00000
3FF00000
00000000
00000000
00000000
00000000
00000000
00000000
ENDCHAR

STARTCHAR U+ac40
ENCODING 44096
SWIDTH 1000
DWIDTH 28 0
BBX 28 32 0 0
BITMAP
3FF0C000
3FF0C000
0030C000
0030C000
0030FF00
0030FF00
0030C000
0030C000
0030C000
0030C000
0000FF00
0000FF00
0000C000
0000C000
0000C000
0000C000
3FF00000
3FF00000
00300000
00300000
3FF00000
3FF00000
30000000
30000000
3FF00000
3FF00000
00000000
00000000
00000000
00000000
00000000
00000000
ENDCHAR

STARTCHAR U+ac41
ENCODING 44097
SWIDTH 1000
DWIDTH 28 0
BBX 28 32 0 0
BITMAP
3FF0C000
3FF0C000
0030C000
0030C000
0030FF00
0030FF00
0030C000
0030C000
0030C000
0030C000
0000FF00
0000FF00
0000C000
0000C000
0000C000
0000C000
3FF0FFC0
3FF0FFC0
003000C0
003000C0
3FF000C0
3FF000C0
300000C0
300000C0
3FF000C0
3FF000C0
00000000
00000000
00000000
00000000
00000000
00000000
ENDCHAR

STARTCHAR U+ac42
ENCODING 44098
SWIDTH 1000
DWIDTH 28 0
BBX 28 32 0 0
BITMAP
3FF0C000
3FF0C000
0030C000
0030C000
0030FF00
0030FF00
0030C000
0030C000
0030C000
0030C000
0000FF00
0000FF00
0000C000
0000C000
0000C000
0000C000
3FF0FFC0
3FF0FFC0
0030C0C0
0030C0C0
3FF0C0C0
3FF0C0C0
3000C0C0
3000C0C0
3FF0FFC0
3FF0FFC0
00000000
00000000
00000000
00000000
00000000
00000000
ENDCHAR

STARTCHAR U+ac43
ENCODING 44099
SWIDTH 1000
DWIDTH 28 0
BBX 28 32 0 0
BITMAP
3FF0C000
3FF0C000
0030C000
0030C000
0030FF00
0030FF00
0030C000
0030C000
0030C000
0030C000
0000FF00
0000FF00
0000C000
0000C000
0000C000
0000C000
3FF0C0C0
3FF0C0C0
0030C0C0
0030C0C0
3FF0FFC0
3FF0FFC0
3000C0C0
3000C0C0
3FF0FFC0
3FF0FFC0
00000000
00000000
00000000
00000000
00000000
00000000
ENDCHAR

STARTCHAR U+ac44
ENCODING 44100
SWIDTH 1000
DWIDTH 28 0
BBX 28 32 0 0
BITMAP
3FF0C000
3FF0C000
0030C000
0030C000
0030FF00
0030FF00
0030C000
0030C000
0030C000
0030C000
0000FF00
0000FF00
0000C000
0000C000
0000C000
0000C000
3FF00C00
3FF00C00
00300C00
00300C00
3FF00C00
3FF00C00
30003300
30003300
3FF0C0C0
3FF0C0C0
00000000
00000000
00000000
00000000
00000000
00000000
ENDCHAR

STARTCHAR U+ac45
ENCODING 44101
SWIDTH 1000
DWIDTH 28 0
BBX 28 32 0 0
BITMAP
3FF0C000
3FF0C000
0030C000
0030C000
0030FF00
0030FF00
0030C000
0030C000
0030C000
0030C000
0000FF00
0000FF00
0000C000
0000C000
0000C000
0000C000
3FF0FFC0
3FF0FFC0
00300000
00300000
3FF0FFC0
3FF0FFC0
3000C000
3000C000
3FF0FFC0
3FF0FFC0
00000000
00000000
00000000
00000000
00000000
00000000
ENDCHAR

STARTCHAR U+ac46
ENCODING 44102
SWIDTH 1000
DWIDTH 28 0
BBX 28 32 0 0
BITMAP
3FF0C000
3FF0C000
0030C000
0030C000
0030FF00
0030FF00
0030C000
0030C000
0030C000
0030C000
0000FF00
0000FF00
0000C000
0000C000
0000C000
0000C000
3FF0FFC0
3FF0FFC0
00303300
00303300
3FF03300
3FF03300
30003300
30003300
3FF0FFC0
3FF0FFC0
00000000
00000000
00000000
00000000
00000000
00000000
ENDCHAR

STARTCHAR U+ac47
ENCODING 44103
SWIDTH 1000
DWIDTH 28 0
BBX 28 32 0 0
BITMAP
3FF0C000
3FF0C000
0030C000
0030C000
0030FF00
0030FF00
0030C000
0030C000
0030C000
0030C000
0000FF00
0000FF00
0000C000
0000C000
0000C000
0000C000
3FF00C00
3FF00C00
0030FFC0
0030FFC0
3FF03F00
3FF03F00
3000C0C0
3000C0C0
3FF03F00
3FF03F00
00000000
00000000
00000000
00000000
00000000
00000000
ENDCHAR

STARTCHAR U+ac48
ENCODING 44104
SWIDTH 1000
DWIDTH 28 0
BBX 28 32 0 0
BITMAP
3FF0C000
3FF0C000
0030C000
0030C000
0030FF00
0030FF00
0030C000
0030C000
0030C000
0030C000
0000FF00
0000FF00
0000C000
0000C000
0000C000
0000C000
3FF00000
3FF00000
30300000
30300000
30300000
30300000
30300000
30300000
3FF00000
3FF00000
00000000
00000000
00000000
00000000
00000000
00000000
ENDCHAR

STARTCHAR U+ac49
ENCODING 44105
SWIDTH 1000
DWIDTH 28 0
BBX 28 32 0 0
BITMAP
3FF0C000
3FF0C000
0030C000
0030C000
0030FF00
0030FF00
0030C000
0030C000
0030C000
0030C000
0000FF00
0000FF00
0000C000
0000C000
0000C000
0000C000
30300000
30300000
30300000
30300000
3FF00000
3FF00000
30300000
30300000
3FF00000
3FF00000
00000000
00000000
00000000
00000000
00000000
00000000
ENDCHAR

STARTCHAR U+ac4a
ENCODING 44106
SWIDTH 1000
DWIDTH 28 0
BBX 28 32 0 0
BITMAP
3FF0C000
3FF0C000
0030C000
0030C000
0030FF00
0030FF00
0030C000
0030C000
0030C000
0030C000
0000FF00
0000FF00
0000C000
0000C000
0000C000
0000C000
30300C00
30300C00
30300C00
30300C00
3FF00C00
3FF00C00
30303300
30303300
3FF0C0C0
3FF0C0C0
00000000
00000000
00000000
00000000
00000000
00000000
ENDCHAR

STARTCHAR U+ac4b
ENCODING 44107
SWIDTH 1000
DWIDTH 28 0
BBX 28 32 0 0
BITMAP
3FF0C000
3FF0C000
0030C000
0030C000
0030FF00
0030FF00
0030C000
0030C000
0030C000
0030C000
0000FF00
0000FF00
0000C000
0000C000
0000C000
0000C000
03000000
03000000
03000000
03000000
03000000
03000000
0CC00000
0CC00000
30300000
30300000
00000000
00000000
00000000
00000000
00000000
00000000
ENDCHAR

STARTCHAR U+ac4c
ENCODING 44108
SWIDTH 1000
DWIDTH 28 0
BBX 28 32 0 0
BITMAP
3FF0C000
3FF0C000
0030C000
0030C000
0030FF00
0030FF00
0030C000
0030C000
0030C000
0030C000
0000FF00
0000FF00
0000C000
0000C000
0000C000
0000C000
0CC00000
0CC00000
0CC00000
0CC00000
33300000
33300000
C30C0000
C30C0000
00000000
00000000
00000000
00000000
00000000
00000000
00000000
00000000
ENDCHAR

STARTCHAR U+ac4d
ENCODING 44109
SWIDTH 1000
DWIDTH 28 0
BBX 28 32 0 0
BITMAP
3FF0C000
3FF0C000
0030C000
0030C000
0030FF00
0030FF00
0030C000
0030C000
0030C000
0030C000
0000FF00
0000FF00
0000C000
0000C000
0000C000
0000C000
0FC00000
0FC00000
30300000
30300000
30300000
30300000
30300000
30300000
0FC00000
0FC00000
00000000
00000000
00000000
00000000
00000000
00000000
ENDCHAR

STARTCHAR U+ac4e
ENCODING 44110
SWIDTH 1000
DWIDTH 28 0
BBX 28 32 0 0
BITMAP
3FF0C000
3FF0C000
0030C000
0030C000
0030FF00
0030FF00
0030C000
0030C000
0030C000
0030C000
0000FF00
0000FF00
0000C000
0000C000
0000C000
0000C000
3FF00000
3FF00000
03000000
03000000
03000000
03000000
0CC00000
0CC00000
30300000
30300000
00000000
00000000
00000000
00000000
00000000
00000000
ENDCHAR

STARTCHAR U+ac4f
ENCODING 44111
SWIDTH 1000
DWIDTH 28 0
BBX 28 32 0 0
BITMAP
3FF0C000
3FF0C000
0030C000
0030C000
0030FF00
0030FF00
0030C000
0030C000
0030C000
0030C000
0000FF00
0000FF00
0000C000
0000C000
0000C000
0000C000
03000000
03000000
3FF00000
3FF00000
03000000
03000000
0CC00000
0CC00000
30300000
30300000
00000000
00000000
00000000
00000000
00000000
00000000
ENDCHAR

STARTCHAR U+ac50
ENCODING 44112
SWIDTH 1000
DWIDTH 28 0
BBX 28 32 0 0
BITMAP
3FF0C000
3FF0C000
0030C000
0030C000
0030FF00
0030FF00
0030C000
0030C000
0030C000
0030C000
0000FF00
0000FF00
0000C000
0000C000
0000C000
0000C000
3FF00000
3FF00000
00300000
00300000
3FF00000
3FF00000
00300000
00300000
00C00000
00C00000
00000000
00000000
00000000
00000000
00000000
00000000
ENDCHAR

STARTCHAR U+ac51
ENCODING 44113
SWIDTH 1000
DWIDTH 28 0
BBX 28 32 0 0
BITMAP
3FF0C000
3FF0C000
0030C000
0030C000
0030FF00
0030FF00
0030C000
0030C000
0030C000
0030C000
0000FF00
0000FF00
0000C000
0000C000
0000C000
0000C000
3FF00000
3FF00000
00000000
00000000
3FF00000
3FF00000
30000000
30000000
3FF00000
3FF00000
00000000
00000000
00000000
00000000
00000000
00000000
ENDCHAR

STARTCHAR U+ac52
ENCODING 44114
SWIDTH 1000
DWIDTH 28 0
BBX 28 32 0 0
BITMAP
3FF0C000
3FF0C000
0030C000
0030C000
0030FF00
0030FF00
0030C000
0030C000
0030C000
0030C000
0000FF00
0000FF00
0000C000
0000C000
0000C000
0000C000
3FF00000
3FF00000
0CC00000
0CC00000
0CC00000
0CC00000
0CC00000
0CC00000
3FF00000
3FF00000
00000000
00000000
00000000
00000000
00000000
00000000
ENDCHAR

STARTCHAR U+ac53
ENCODING 44115
SWIDTH 1000
DWIDTH 28 0
BBX 28 32 0 0
BITMAP
3FF0C000
3FF0C000
0030C000
0030C000
0030FF00
0030FF00
0030C000
0030C000
0030C000
0030C000
0000FF00
0000FF00
0000C000
0000C000
0000C000
0000C000
03000000
03000000
3FF00000
3FF00000
0FC00000
0FC00000
30300000
30300000
0FC00000
0FC00000
00000000
00000000
00000000
00000000
00000000
00000000
ENDCHAR

STARTCHAR U+ac54
ENCODING 44116
SWIDTH 1000
DWIDTH 28 0
BBX 28 32 0 0
BITMAP
3FF0CC00
3FF0CC00
0030CC00
0030CC00
0030FC00
0030FC00
0030CC00
0030CC00
0030CC00
0030CC00
0000FC00
0000FC00
0000CC00
0000CC00
0000CC00
0000CC00
0000CC00
0000CC00
0000CC00
0000CC00
0000CC00
0000CC00
0000CC00
0000CC00
00000000
00000000
00000000
00000000
00000000
00000000
00000000
00000000
ENDCHAR

STARTCHAR U+ac55
ENCODING 44117
SWIDTH 1000
DWIDTH 28 0
BBX 28 32 0 0
BITMAP
3FF0CC00
3FF0CC00
0030CC00
0030CC00
0030FC00
0030FC00
0030CC00
0030CC00
0030CC00
0030CC00
0000FC00
0000FC00
0000CC00
0000CC00
0000CC00
0000CC00
3FF00000
3FF00000
00300000
00300000
00300000
00300000
00300000
00300000
00300000
00300000
00000000
00000000
00000000
00000000
00000000
00000000
ENDCHAR

STARTCHAR U+ac56
ENCODING 44118
SWIDTH 1000
DWIDTH 28 0
BBX 28 32 0 0
BITMAP
3FF0CC00
3FF0CC00
0030CC00
0030CC00
0030FC00
0030FC00
0030CC00
0030CC00
0030CC00
0030CC00
0000FC00
0000FC00
0000CC00
0000CC00
0000CC00
0000CC00
3FF00000
3FF00000
03300000
03300000
03300000
03300000
0CC00000
0CC00000
00000000
00000000
00000000
00000000
00000000
00000000
00000000
00000000
ENDCHAR

STARTCHAR U+ac57
ENCODING 44119
SWIDTH 1000
DWIDTH 28 0
BBX 28 32 0 0
BITMAP
3FF0CC00
3FF0CC00
0030CC00
0030CC00
0030FC00
0030FC00
0030CC00
0030CC00
0030CC00
0030CC00
0000FC00
0000FC00
0000CC00
0000CC00
0000CC00
0000CC00
3FF00C00
3FF00C00
00300C00
00300C00
00300C00
00300C00
00303300
00303300
0030C0C0
0030C0C0
00000000
00000000
00000000
00000000
00000000
00000000
ENDCHAR

STARTCHAR U+ac58
ENCODING 44120
SWIDTH 1000
DWIDTH 28 0
BBX 28 32 0 0
BITMAP
3FF0CC00
3FF0CC00
0030CC00
0030CC00
0030FC00
0030FC00
0030CC00
0030CC00
0030CC00
0030CC00
0000FC00
0000FC00
0000CC00
0000CC00
0000CC00
0000CC00
30000000
30000000
30000000
30000000
30000000
30000000
30000000
30000000
3FF00000
3FF00000
00000000
00000000
00000000
00000000
00000000
00000000
ENDCHAR

STARTCHAR U+ac59
ENCODING 44121
SWIDTH 1000
DWIDTH 28 0
BBX 28 32 0 0
BITMAP
3FF0CC00
3FF0CC00
0030CC00
0030CC00
0030FC00
0030FC00
0030CC00
0030CC00
0030CC00
0030CC00
0000FC00
0000FC00
0000CC00
0000CC00
0000CC00
0000CC00
3000FFC0
3000FFC0
30000C00
30000C00
30000C00
30000C00
30003300
30003300
3FF0C0C0
3FF0C0C0
00000000
00000000
00000000
00000000
00000000
00000000
ENDCHAR

STARTCHAR U+ac5a
ENCODING 44122
SWIDTH 1000
DWIDTH 28 0
BBX 28 32 0 0
BITMAP
3FF0CC00
3FF0CC00
0030CC00
0030CC00
0030FC00
0030FC00
0030CC00
0030CC00
0030CC00
0030CC00
0000FC00
0000FC00
0000CC00
0000CC00
0000CC00
0000CC00
30000C00
30000C00
3000FFC0
3000FFC0
30003F00
30003F00
3000C0C0
3000C0C0
3FF03F00
3FF03F00
00000000
00000000
00000000
00000000
00000000
00000000
ENDCHAR

STARTCHAR U+ac5b
ENCODING 44123
SWIDTH 1000
DWIDTH 28 0
BBX 28 32 0 0
BITMAP
3FF0CC00
3FF0CC00
0030CC00
0030CC00
0030FC00
0030FC00
0030CC00
0030CC00
0030CC00
0030CC00
0000FC00
0000FC00
0000CC00
0000CC00
0000CC00
0000CC00
3FF00000
3FF00000
30000000
30000000
30000000
30000000
30000000
30000000
3FF00000
3FF00000
00000000
00000000
00000000
00000000
00000000
00000000
ENDCHAR

STARTCHAR U+ac5c
ENCODING 44124
SWIDTH 1000
DWIDTH 28 0
BBX 28 32 0 0
BITMAP
3FF0CC00
3FF0CC00
0030CC00
0030CC00
0030FC00
0030FC00
0030CC00
0030CC00
0030CC00
0030CC00
0000FC00
0000FC00
0000CC00
0000CC00
0000CC00
0000CC00
3FF00000
3FF00000
00300000
00300000
3FF00000
3FF00000
30000000
30000000
3FF00000
3FF00000
00000000
00000000
00000000
00000000
00000000
00000000
ENDCHAR

STARTCHAR U+ac5d
ENCODING 44125
SWIDTH 1000
DWIDTH 28 0
BBX 28 32 0 0
BITMAP
3FF0CC00
3FF0CC00
0030CC00
0030CC00
0030FC00
0030FC00
0030CC00
0030CC00
0030CC00
0030CC00
0000FC00
0000FC00
0000CC00
0000CC00
0000CC00
0000CC00
3FF0FFC0
3FF0FFC0
003000C0
003000C0
3FF000C0
3FF000C0
300000C0
300000C0
3FF000C0
3FF000C0
00000000
00000000
00000000
00000000
00000000
00000000
ENDCHAR

STARTCHAR U+ac5e
ENCODING 44126
SWIDTH 1000
DWIDTH 28 0
BBX 28 32 0 0
BITMAP
3FF0CC00
3FF0CC00
0030CC00
0030CC00
0030FC00
0030FC00
0030CC00
0030CC00
0030CC00
0030CC00
0000FC00
0000FC00
0000CC00
0000CC00
0000CC00
0000CC00
3FF0FFC0
3FF0FFC0
0030C0C0
0030C0C0
3FF0C0C0
3FF0C0C0
3000C0C0
3000C0C0
3FF0FFC0
3FF0FFC0
00000000
00000000
00000000
00000000
00000000
00000000
ENDCHAR

STARTCHAR U+ac5f
ENCODING 44127
SWIDTH 1000
DWIDTH 28 0
BBX 28 32 0 0
BITMAP
3FF0CC00
3FF0CC00
0030CC00
0030CC00
0030FC00
0030FC00
0030CC00
0030CC00
0030CC00
0030CC00
0000FC00
0000FC00
0000CC00
0000CC00
0000CC00
0000CC00
3FF0C0C0
3FF0C0C0
0030C0C0
0030C0C0
3FF0FFC0
3FF0FFC0
3000C0C0
3000C0C0
3FF0FFC0
3FF0FFC0
00000000
00000000
00000000
00000000
00000000
00000000
ENDCHAR

STARTCHAR U+ac60
ENCODING 44128
SWIDTH 1000
DWIDTH 28 0
BBX 28 32 0 0
BITMAP
3FF0CC00
3FF0CC00
0030CC00
0030CC00
0030FC00
0030FC00
0030CC00
0030CC00
0030CC00
0030CC00
0000FC00
0000FC00
0000CC00
0000CC00
0000CC00
0000CC00
3FF00C00
3FF00C00
00300C00
00300C00
3FF00C00
3FF00C00
30003300
30003300
3FF0C0C0
3FF0C0C0
00000000
00000000
00000000
00000000
00000000
00000000
ENDCHAR

STARTCHAR U+ac61
ENCODING 44129
SWIDTH 1000
DWIDTH 28 0
BBX 28 32 0 0
BITMAP
3FF0CC00
3FF0CC00
0030CC00
0030CC00
0030FC00
0030FC00
0030CC00
0030CC00
0030CC00
0030CC00
0000FC00
0000FC00
0000CC00
0000CC00
0000CC00
0000CC00
3FF0FFC0
3FF0FFC0
00300000
00300000
3FF0FFC0
3FF0FFC0
3000C000
3000C000
3FF0FFC0
3FF0FFC0
00000000
00000000
00000000
00000000
00000000
00000000
ENDCHAR

STARTCHAR U+ac62
ENCODING 44130
SWIDTH 1000
DWIDTH 28 0
BBX 28 32 0 0
BITMAP
3FF0CC00
3FF0CC00
0030CC00
0030CC00
0030FC00
0030FC00
0030CC00
0030CC00
0030CC00
0030CC00
0000FC00
0000FC00
0000CC00
0000CC00
0000CC00
0000CC00
3FF0FFC0
3FF0FFC0
00303300
00303300
3FF03300
3FF03300
30003300
30003300
3FF0FFC0
3FF0FFC0
00000000
00000000
00000000
00000000
00000000
00000000
ENDCHAR

STARTCHAR U+ac63
ENCODING 44131
SWIDTH 1000
DWIDTH 28 0
BBX 28 32 0 0
BITMAP
3FF0CC00
3FF0CC00
0030CC00
0030CC00
0030FC00
0030FC00
0030CC00
0030CC00
0030CC00
0030CC00
0000FC00
0000FC00
0000CC00
0000CC00
0000CC00
0000CC00
3FF00C00
3FF00C00
0030FFC0
0030FFC0
3FF03F00
3FF03F00
3000C0C0
3000C0C0
3FF03F00
3FF03F00
00000000
00000000
00000000
00000000
00000000
00000000
ENDCHAR

STARTCHAR U+ac64
ENCODING 44132
SWIDTH 1000
DWIDTH 28 0
BBX 28 32 0 0
BITMAP
3FF0CC00
3FF0CC00
0030CC00
0030CC00
0030FC00
0030FC00
0030CC00
0030CC00
0030CC00
0030CC00
0000FC00
0000FC00
0000CC00
0000CC00
0000CC00
0000CC00
3FF00000
3FF00000
30300000
30300000
30300000
30300000
30300000
30300000
3FF00000
3FF00000
00000000
00000000
00000000
00000000
00000000
00000000
ENDCHAR

STARTCHAR U+ac65
ENCODING 44133
SWIDTH 1000
DWIDTH 28 0
BBX 28 32 0 0
BITMAP
3FF0CC00
3FF0CC00
0030CC00
0030CC00
0030FC00
0030FC00
0030CC00
0030CC00
0030CC00
0030CC00
0000FC00
0000FC00
0000CC00
0000CC00
0000CC00
0000CC00
30300000
30300000
30300000
30300000
3FF00000
3FF00000
30300000
30300000
3FF00000
3FF00000
00000000
00000000
00000000
00000000
00000000
00000000
ENDCHAR

STARTCHAR U+ac66
ENCODING 44134
SWIDTH 1000
DWIDTH 28 0
BBX 28 32 0 0
BITMAP
3FF0CC00
3FF0CC00
0030CC00
0030CC00
0030FC00
0030FC00
0030CC00
0030CC00
0030CC00
0030CC00
0000FC00
0000FC00
0000CC00
0000CC00
0000CC00
0000CC00
30300C00
30300C00
30300C00
30300C00
3FF00C00
3FF00C00
30303300
30303300
3FF0C0C0
3FF0C0C0
00000000
00000000
00000000
00000000
00000000
00000000
ENDCHAR

STARTCHAR U+ac67
ENCODING 44135
SWIDTH 1000
DWIDTH 28 0
BBX 28 32 0 0
BITMAP
3FF0CC00
3FF0CC00
0030CC00
0030CC00
0030FC00
0030FC00
0030CC00
0030CC00
0030CC00
0030CC00
0000FC00
0000FC00
0000CC00
0000CC00
0000CC00
0000CC00
03000000
03000000
03000000
03000000
03000000
03000000
0CC00000
0CC00000
30300000
30300000
00000000
00000000
00000000
00000000
00000000
00000000
ENDCHAR

STARTCHAR U+ac68
ENCODING 44136
SWIDTH 1000
DWIDTH 28 0
BBX 28 32 0 0
BITMAP
3FF0CC00
3FF0CC00
0030CC00
0030CC00
0030FC00
0030FC00
0030CC00
0030CC00
0030CC00
0030CC00
0000FC00
0000FC00
0000CC00
0000CC00
0000CC00
0000CC00
0CC00000
0CC00000
0CC00000
0CC00000
33300000
33300000
C30C0000
C30C0000
00000000
00000000
00000000
00000000
00000000
00000000
00000000
00000000
ENDCHAR

STARTCHAR U+ac69
ENCODING 44137
SWIDTH 1000
DWIDTH 28 0
BBX 28 32 0 0
BITMAP
3FF0CC00
3FF0CC00
0030CC00
0030CC00
0030FC00
0030FC00
0030CC00
0030CC00
0030CC00
0030CC00
0000FC00
0000FC00
0000CC00
0000CC00
0000CC00
0000CC00
0FC00000
0FC00000
30300000
30300000
30300000
30300000
30300000
30300000
0FC00000
0FC00000
00000000
00000000
00000000
00000000
00000000
00000000
ENDCHAR

STARTCHAR U+ac6a
ENCODING 44138
SWIDTH 1000
DWIDTH 28 0
BBX 28 32 0 0
BITMAP
3FF0CC00
3FF0CC00
0030CC00
0030CC00
0030FC00
0030FC00
0030CC00
0030CC00
0030CC00
0030CC00
0000FC00
0000FC00
0000CC00
0000CC00
0000CC00
0000CC00
3FF00000
3FF00000
03000000
03000000
03000000
03000000
0CC00000
0CC00000
30300000
30300000
00000000
00000000
00000000
00000000
00000000
00000000
ENDCHAR

STARTCHAR U+ac6b
ENCODING 44139
SWIDTH 1000
DWIDTH 28 0
BBX 28 32 0 0
BITMAP
3FF0CC00
3FF0CC00
0030CC00
0030CC00
0030FC00
0030FC00
0030CC00
0030CC00
0030CC00
0030CC00
0000FC00
0000FC00
0000CC00
0000CC00
0000CC00
0000CC00
03000000
03000000
3FF00000
3FF00000
03000000
03000000
0CC00000
0CC00000
30300000
30300000
00000000
00000000
00000000
00000000
00000000
00000000
ENDCHAR

STARTCHAR U+ac6c
ENCODING 44140
SWIDTH 1000
DWIDTH 28 0
BBX 28 32 0 0
BITMAP
3FF0CC00
3FF0CC00
0030CC00
0030CC00
0030FC00
0030FC00
0030CC00
0030CC00
0030CC00
0030CC00
0000FC00
0000FC00
0000CC00
0000CC00
0000CC00
0000CC00
3FF00000
3FF00000
00300000
00300000
3FF00000
3FF00000
00300000
00300000
00C00000
00C00000
00000000
00000000
00000000
00000000
00000000
00000000
ENDCHAR

STARTCHAR U+ac6d
ENCODING 44141
SWIDTH 1000
DWIDTH 28 0
BBX 28 32 0 0
BITMAP
3FF0CC00
3FF0CC00
0030CC00
0030CC00
0030FC00
0030FC00
0030CC00
0030CC00
0030CC00
0030CC00
0000FC00
0000FC00
0000CC00
0000CC00
0000CC00
0000CC00
3FF00000
3FF00000
00000000
00000000
3FF00000
3FF00000
30000000
30000000
3FF00000
3FF00000
00000000
00000000
00000000
00000000
00000000
00000000
ENDCHAR

STARTCHAR U+ac6e
ENCODING 44142
SWIDTH 1000
DWIDTH 28 0
BBX 28 32 0 0
BITMAP
3FF0CC00
3FF0CC00
0030CC00
0030CC00
0030FC00
0030FC00
0030CC00
0030CC00
0030CC00
0030CC00
0000FC00
0000FC00
0000CC00
0000CC00
0000CC00
0000CC00
3FF00000
3FF00000
0CC00000
0CC00000
0CC00000
0CC00000
0CC00000
0CC00000
3FF00000
3FF00000
00000000
00000000
00000000
00000000
00000000
00000000
ENDCHAR

STARTCHAR U+ac6f
ENCODING 44143
SWIDTH 1000
DWIDTH 28 0
BBX 28 32 0 0
BITMAP
3FF0CC00
3FF0CC00
0030CC00
0030CC00
0030FC00
0030FC00
0030CC00
0030CC00
0030CC00
0030CC00
0000FC00
0000FC00
0000CC00
0000CC00
0000CC00
0000CC00
03000000
03000000
3FF00000
3FF00000
0FC00000
0FC00000
30300000
30300000
0FC00000
0FC00000
00000000
00000000
00000000
00000000
00000000
00000000
ENDCHAR

STARTCHAR U+ac70
ENCODING 44144
SWIDTH 1000
DWIDTH 28 0
BBX 28 32 0 0
BITMAP
3FF03000
3FF03000
00303000
00303000
00303000
00303000
0033F000
0033F000
00303000
00303000
00003000
00003000
00003000
00003000
00003000
00003000
00003000
00003000
00003000
00003000
00003000
00003000
00003000
00003000
00000000
00000000
00000000
00000000
00000000
00000000
00000000
00000000
ENDCHAR

STARTCHAR U+ac71
ENCODING 44145
SWIDTH 1000
DWIDTH 28 0
BBX 28 32 0 0
BITMAP
3FF03000
3FF03000
00303000
00303000
00303000
00303000
0033F000
0033F000
00303000
00303000
00003000
00003000
00003000
00003000
00003000
00003000
3FF00000
3FF00000
00300000
00300000
00300000
00300000
00300000
00300000
00300000
00300000
00000000
00000000
00000000
00000000
00000000
00000000
ENDCHAR

STARTCHAR U+ac72
ENCODING 44146
SWIDTH 1000
DWIDTH 28 0
BBX 28 32 0 0
BITMAP
3FF03000
3FF03000
00303000
00303000
00303000
00303000
0033F000
0033F000
00303000
00303000
00003000
00003000
00003000
00003000
00003000
00003000
3FF00000
3FF00000
03300000
03300000
03300000
03300000
0CC00000
0CC00000
00000000
00000000
00000000
00000000
00000000
00000000
00000000
00000000
ENDCHAR

STARTCHAR U+ac73
ENCODING 44147
SWIDTH 1000
DWIDTH 28 0
BBX 28 32 0 0
BITMAP
3FF03000
3FF03000
00303000
00303000
00303000
00303000
0033F000
0033F000
00303000
00303000
00003000
00003000
00003000
00003000
00003000
00003000
3FF00C00
3FF00C00
00300C00
00300C00
00300C00
00300C00
00303300
00303300
0030C0C0
0030C0C0
00000000
00000000
00000000
00000000
00000000
00000000
ENDCHAR

STARTCHAR U+ac74
ENCODING 44148
SWIDTH 1000
DWIDTH 28 0
BBX 28 32 0 0
BITMAP
3FF03000
3FF03000
00303000
00303000
00303000
00303000
0033F000
0033F000
00303000
00303000
00003000
00003000
00003000
00003000
00003000
00003000
30000000
30000000
30000000
30000000
30000000
30000000
30000000
30000000
3FF00000
3FF00000
00000000
00000000
00000000
00000000
00000000
00000000
ENDCHAR

STARTCHAR U+ac75
ENCODING 44149
SWIDTH 1000
DWIDTH 28 0
BBX 28 32 0 0
BITMAP
3FF03000
3FF03000
00303000
00303000
00303000
00303000
0033F000
0033F000
00303000
00303000
00003000
00003000
00003000
00003000
00003000
00003000
3000FFC0
3000FFC0
30000C00
30000C00
30000C00
30000C00
30003300
30003300
3FF0C0C0
3FF0C0C0
00000000
00000000
00000000
00000000
00000000
00000000
ENDCHAR

STARTCHAR U+ac76
ENCODING 44150
SWIDTH 1000
DWIDTH 28 0
BBX 28 32 0 0
BITMAP
3FF03000
3FF03000
00303000
00303000
00303000
00303000
0033F000
0033F000
00303000
00303000
00003000
00003000
00003000
00003000
00003000
00003000
30000C00
30000C00
3000FFC0
3000FFC0
30003F00
30003F00
3000C0C0
3000C0C0
3FF03F00
3FF03F00
00000000
00000000
00000000
00000000
00000000
00000000
ENDCHAR

STARTCHAR U+ac77
ENCODING 44151
SWIDTH 1000
DWIDTH 28 0
BBX 28 32 0 0
BITMAP
3FF03000
3FF03000
00303000
00303000
00303000
00303000
0033F000
0033F000
00303000
00303000
00003000
00003000
00003000
00003000
00003000
00003000
3FF00000
3FF00000
30000000
30000000
30000000
30000000
30000000
30000000
3FF00000
3FF00000
00000000
00000000
00000000
00000000
00000000
00000000
ENDCHAR

STARTCHAR U+ac78
ENCODING 44152
SWIDTH 1000
DWIDTH 28 0
BBX 28 32 0 0
BITMAP
3FF03000
3FF03000
00303000
00303000
00303000
00303000
0033F000
0033F000
00303000
00303000
00003000
00003000
00003000
00003000
00003000
00003000
3FF00000
3FF00000
00300000
00300000
3FF00000
3FF00000
30000000
30000000
3FF00000
3FF00000
00000000
00000000
00000000
00000000
00000000
00000000
ENDCHAR

STARTCHAR U+ac79
ENCODING 44153
SWIDTH 1000
DWIDTH 28 0
BBX 28 32 0 0
BITMAP
3FF03000
3FF03000
00303000
00303000
00303000
00303000
0033F000
0033F000
00303000
00303000
00003000
00003000
00003000
00003000
00003000
00003000
3FF0FFC0
3FF0FFC0
003000C0
003000C0
3FF000C0
3FF000C0
300000C0
300000C0
3FF000C0
3FF000C0
00000000
00000000
00000000
00000000
00000000
00000000
ENDCHAR

STARTCHAR U+ac7a
ENCODING 44154
SWIDTH 1000
DWIDTH 28 0
BBX 28 32 0 0
BITMAP
3FF03000
3FF03000
00303000
00303000
00303000
00303000
0033F000
0033F000
00303000
00303000
00003000
00003000
00003000
00003000
00003000
00003000
3FF0FFC0
3FF0FFC0
0030C0C0
0030C0C0
3FF0C0C0
3FF0C0C0
3000C0C0
3000C0C0
3FF0FFC0
3FF0FFC0
00000000
00000000
00000000
00000000
00000000
00000000
ENDCHAR

STARTCHAR U+ac7b
ENCODING 44155
SWIDTH 1000
DWIDTH 28 0
BBX 28 32 0 0
BITMAP
3FF03000
3FF03000
00303000
00303000
00303000
00303000
0033F000
0033F000
00303000
00303000
00003000
00003000
00003000
00003000
00003000
00003000
3FF0C0C0
3FF0C0C0
0030C0C0
0030C0C0
3FF0FFC0
3FF0FFC0
3000C0C0
3000C0C0
3FF0FFC0
3FF0FFC0
00000000
00000000
00000000
00000000
00000000
00000000
ENDCHAR

STARTCHAR U+ac7c
ENCODING 44156
SWIDTH 1000
DWIDTH 28 0
BBX 28 32 0 0
BITMAP
3FF03000
3FF03000
00303000
00303000
00303000
00303000
0033F000
0033F000
00303000
00303000
00003000
00003000
00003000
00003000
00003000
00003000
3FF00C00
3FF00C00
00300C00
00300C00
3FF00C00
3FF00C00
30003300
30003300
3FF0C0C0
3FF0C0C0
00000000
00000000
00000000
00000000
00000000
00000000
ENDCHAR

STARTCHAR U+ac7d
ENCODING 44157
SWIDTH 1000
DWIDTH 28 0
BBX 28 32 0 0
BITMAP
3FF03000
3FF03000
00303000
00303000
00303000
00303000
0033F000
0033F000
00303000
00303000
00003000
00003000
00003000
00003000
00003000
00003000
3FF0FFC0
3FF0FFC0
00300000
00300000
3FF0FFC0
3FF0FFC0
3000C000
3000C000
3FF0FFC0
3FF0FFC0
00000000
00000000
00000000
00000000
00000000
00000000
ENDCHAR

STARTCHAR U+ac7e
ENCODING 44158
SWIDTH 1000
DWIDTH 28 0
BBX 28 32 0 0
BITMAP
3FF03000
3FF03000
00303000
00303000
00303000
00303000
0033F000
0033F000
00303000
00303000
00003000
00003000
00003000
00003000
00003000
00003000
3FF0FFC0
3FF0FFC0
00303300
00303300
3FF03300
3FF03300
30003300
30003300
3FF0FFC0
3FF0FFC0
00000000
00000000
00000000
00000000
00000000
00000000
ENDCHAR

STARTCHAR U+ac7f
ENCODING 44159
SWIDTH 1000
DWIDTH 28 0
BBX 28 32 0 0
BITMAP
3FF03000
3FF03000
00303000
00303000
00303000
00303000
0033F000
0033F000
00303000
00303000
00003000
00003000
00003000
00003000
00003000
00003000
3FF00C00
3FF00C00
0030FFC0
0030FFC0
3FF03F00
3FF03F00
3000C0C0
3000C0C0
3FF03F00
3FF03F00
00000000
00000000
00000000
00000000
00000000
00000000
ENDCHAR

STARTCHAR U+ac80
ENCODING 44160
SWIDTH 1000
DWIDTH 28 0
BBX 28 32 0 0
BITMAP
3FF03000
3FF03000
00303000
00303000
00303000
00303000
0033F000
0033F000
00303000
00303000
00003000
00003000
00003000
00003000
00003000
00003000
3FF00000
3FF00000
30300000
30300000
30300000
30300000
30300000
30300000
3FF00000
3FF00000
00000000
00000000
00000000
00000000
00000000
00000000
ENDCHAR

STARTCHAR U+ac81
ENCODING 44161
SWIDTH 1000
DWIDTH 28 0
BBX 28 32 0 0
BITMAP
3FF03000
3FF03000
00303000
00303000
00303000
00303000
0033F000
0033F000
00303000
00303000
00003000
00003000
00003000
00003000
00003000
00003000
30300000
30300000
30300000
30300000
3FF00000
3FF00000
30300000
30300000
3FF00000
3FF00000
00000000
00000000
00000000
00000000
00000000
00000000
ENDCHAR

STARTCHAR U+ac82
ENCODING 44162
SWIDTH 1000
DWIDTH 28 0
BBX 28 32 0 0
BITMAP
3FF03000
3FF03000
00303000
00303000
00303000
00303000
0033F000
0033F000
00303000
00303000
00003000
00003000
00003000
00003000
00003000
00003000
30300C00
30300C00
30300C00
30300C00
3FF00C00
3FF00C00
30303300
30303300
3FF0C0C0
3FF0C0C0
00000000
00000000
00000000
00000000
00000000
00000000
ENDCHAR

STARTCHAR U+ac83
ENCODING 44163
SWIDTH 1000
DWIDTH 28 0
BBX 28 32 0 0
BITMAP
3FF03000
3FF03000
00303000
00303000
00303000
00303000
0033F000
0033F000
00303000
00303000
00003000
00003000
00003000
00003000
00003000
00003000
03000000
03000000
03000000
03000000
03000000
03000000
0CC00000
0CC00000
30300000
30300000
00000000
00000000
00000000
00000000
00000000
00000000
ENDCHAR

STARTCHAR U+ac84
ENCODING 44164
SWIDTH 1000
DWIDTH 28 0
BBX 28 32 0 0
BITMAP
3FF03000
3FF03000
00303000
00303000
00303000
00303000
0033F000
0033F000
00303000
00303000
00003000
00003000
00003000
00003000
00003000
00003000
0CC00000
0CC00000
0CC00000
0CC00000
33300000
33300000
C30C0000
C30C0000
00000000
00000000
00000000
00000000
00000000
00000000
00000000
00000000
ENDCHAR

STARTCHAR U+ac85
ENCODING 44165
SWIDTH 1000
DWIDTH 28 0
BBX 28 32 0 0
BITMAP
3FF03000
3FF03000
00303000
00303000
00303000
00303000
0033F000
0033F000
00303000
00303000
00003000
00003000
00003000
00003000
00003000
00003000
0FC00000
0FC00000
30300000
30300000
30300000
30300000
30300000
30300000
0FC00000
0FC00000
00000000
00000000
00000000
00000000
00000000
00000000
ENDCHAR

STARTCHAR U+ac86
ENCODING 44166
SWIDTH 1000
DWIDTH 28 0
BBX 28 32 0 0
BITMAP
3FF03000
3FF03000
00303000
00303000
00303000
00303000
0033F000
0033F000
00303000
00303000
00003000
00003000
00003000
00003000
00003000
00003000
3FF00000
3FF00000
03000000
03000000
03000000
03000000
0CC00000
0CC00000
30300000
30300000
00000000
00000000
00000000
00000000
00000000
00000000
ENDCHAR

STARTCHAR U+ac87
ENCODING 44167
SWIDTH 1000
DWIDTH 28 0
BBX 28 32 0 0
BITMAP
3FF03000
3FF03000
00303000
00303000
00303000
00303000
0033F000
0033F000
00303000
00303000
00003000
00003000
00003000
00003000
00003000
00003000
03000000
03000000
3FF00000
3FF00000
03000000
03000000
0CC00000
0CC00000
30300000
30300000
00000000
00000000
00000000
00000000
00000000
00000000
ENDCHAR

STARTCHAR U+ac88
ENCODING 44168
SWIDTH 1000
DWIDTH 28 0
BBX 28 32 0 0
BITMAP
3FF03000
3FF03000
00303000
00303000
00303000
00303000
0033F000
0033F000
00303000
00303000
00003000
00003000
00003000
00003000
00003000
00003000
3FF00000
3FF00000
00300000
00300000
3FF00000
3FF00000
00300000
00300000
00C00000
00C00000
00000000
00000000
00000000
00000000
00000000
00000000
ENDCHAR

STARTCHAR U+ac89
ENCODING 44169
SWIDTH 1000
DWIDTH 28 0
BBX 28 32 0 0
BITMAP
3FF03000
3FF03000
00303000
00303000
00303000
00303000
0033F000
0033F000
00303000
00303000
00003000
00003000
00003000
00003000
00003000
00003000
3FF00000
3FF00000
00000000
00000000
3FF00000
3FF00000
30000000
30000000
3FF00000
3FF00000
00000000
00000000
00000000
00000000
00000000
00000000
ENDCHAR

STARTCHAR U+ac8a
ENCODING 44170
SWIDTH 1000
DWIDTH 28 0
BBX 28 32 0 0
BITMAP
3FF03000
3FF03000
00303000
00303000
00303000
00303000
0033F000
0033F000
00303000
00303000
00003000
00003000
00003000
00003000
00003000
00003000
3FF00000
3FF00000
0CC00000
0CC00000
0CC00000
0CC00000
0CC00000
0CC00000
3FF00000
3FF00000
00000000
00000000
00000000
00000000
00000000
00000000
ENDCHAR

STARTCHAR U+ac8b
ENCODING 44171
SWIDTH 1000
DWIDTH 28 0
BBX 28 32 0 0
BITMAP
3FF03000
3FF03000
00303000
00303000
00303000
00303000
0033F000
0033F000
00303000
00303000
00003000
00003000
00003000
00003000
00003000
00003000
03000000
03000000
3FF00000
3FF00000
0FC00000
0FC00000
30300000
30300000
0FC00000
0FC00000
00000000
00000000
00000000
00000000
00000000
00000000
ENDCHAR

STARTCHAR U+ac8c
ENCODING 44172
SWIDTH 1000
DWIDTH 28 0
BBX 28 32 0 0
BITMAP
3FF0CC00
3FF0CC00
0030CC00
0030CC00
0030CC00
0030CC00
0033CC00
0033CC00
0030CC00
0030CC00
0000CC00
0000CC00
0000CC00
0000CC00
0000CC00
0000CC00
0000CC00
0000CC00
0000CC00
0000CC00
0000CC00
0000CC00
0000CC00
0000CC00
00000000
00000000
00000000
00000000
00000000
00000000
00000000
00000000
ENDCHAR

STARTCHAR U+ac8d
ENCODING 44173
SWIDTH 1000
DWIDTH 28 0
BBX 28 32 0 0
BITMAP
3FF0CC00
3FF0CC00
0030CC00
0030CC00
0030CC00
0030CC00
0033CC00
0033CC00
0030CC00
0030CC00
0000CC00
0000CC00
0000CC00
0000CC00
0000CC00
0000CC00
3FF00000
3FF00000
00300000
00300000
00300000
00300000
00300000
00300000
00300000
00300000
00000000
00000000
00000000
00000000
00000000
00000000
ENDCHAR

STARTCHAR U+ac8e
ENCODING 44174
SWIDTH 1000
DWIDTH 28 0
BBX 28 32 0 0
BITMAP
3FF0CC00
3FF0CC00
0030CC00
0030CC00
0030CC00
0030CC00
0033CC00
0033CC00
0030CC00
0030CC00
0000CC00
0000CC00
0000CC00
0000CC00
0000CC00
0000CC00
3FF00000
3FF00000
03300000
03300000
03300000
03300000
0CC00000
0CC00000
00000000
00000000
00000000
00000000
00000000
00000000
00000000
00000000
ENDCHAR

STARTCHAR U+ac8f
ENCODING 44175
SWIDTH 1000
DWIDTH 28 0
BBX 28 32 0 0
BITMAP
3FF0CC00
3FF0CC00
0030CC00
0030CC00
0030CC00
0030CC00
0033CC00
0033CC00
0030CC00
0030CC00
0000CC00
0000CC00
0000CC00
0000CC00
0000CC00
0000CC00
3FF00C00
3FF00C00
00300C00
00300C00
00300C00
00300C00
00303300
00303300
0030C0C0
0030C0C0
00000000
00000000
00000000
00000000
00000000
00000000
ENDCHAR

STARTCHAR U+ac90
ENCODING 44176
SWIDTH 1000
DWIDTH 28 0
BBX 28 32 0 0
BITMAP
3FF0CC00
3FF0CC00
0030CC00
0030CC00
0030CC00
0030CC00
0033CC00
0033CC00
0030CC00
0030CC00
0000CC00
0000CC00
0000CC00
0000CC00
0000CC00
0000CC00
30000000
30000000
30000000
30000000
30000000
30000000
30000000
30000000
3FF00000
3FF00000
00000000
00000000
00000000
00000000
00000000
00000000
ENDCHAR

STARTCHAR U+ac91
ENCODING 44177
SWIDTH 1000
DWIDTH 28 0
BBX 28 32 0 0
BITMAP
3FF0CC00
3FF0CC00
0030CC00
0030CC00
0030CC00
0030CC00
0033CC00
0033CC00
0030CC00
0030CC00
0000CC00
0000CC00
0000CC00
0000CC00
0000CC00
0000CC00
3000FFC0
3000FFC0
30000C00
30000C00
30000C00
30000C00
30003300
30003300
3FF0C0C0
3FF0C0C0
00000000
00000000
00000000
00000000
00000000
00000000
ENDCHAR

STARTCHAR U+ac92
ENCODING 44178
SWIDTH 1000
DWIDTH 28 0
BBX 28 32 0 0
BITMAP
3FF0CC00
3FF0CC00
0030CC00
0030CC00
0030CC00
0030CC00
0033CC00
0033CC00
0030CC00
0030CC00
0000CC00
0000CC00
0000CC00
0000CC00
0000CC00
0000CC00
30000C00
30000C00
3000FFC0
3000FFC0
30003F00
30003F00
3000C0C0
3000C0C0
3FF03F00
3FF03F00
00000000
00000000
00000000
00000000
00000000
00000000
ENDCHAR

STARTCHAR U+ac93
ENCODING 44179
SWIDTH 1000
DWIDTH 28 0
BBX 28 32 0 0
BITMAP
3FF0CC00
3FF0CC00
0030CC00
0030CC00
0030CC00
0030CC00
0033CC00
0033CC00
0030CC00
0030CC00
0000CC00
0000CC00
0000CC00
0000CC00
0000CC00
0000CC00
3FF00000
3FF00000
30000000
30000000
30000000
30000000
30000000
30000000
3FF00000
3FF00000
00000000
00000000
00000000
00000000
00000000
00000000
ENDCHAR

STARTCHAR U+ac94
ENCODING 44180
SWIDTH 1000
DWIDTH 28 0
BBX 28 32 0 0
BITMAP
3FF0CC00
3FF0CC00
0030CC00
0030CC00
0030CC00
0030CC00
0033CC00
0033CC00
0030CC00
0030CC00
0000CC00
0000CC00
0000CC00
0000CC00
0000CC00
0000CC00
3FF00000
3FF00000
00300000
00300000
3FF00000
3FF00000
30000000
30000000
3FF00000
3FF00000
00000000
00000000
00000000
00000000
00000000
00000000
ENDCHAR

STARTCHAR U+ac95
ENCODING 44181
SWIDTH 1000
DWIDTH 28 0
BBX 28 32 0 0
BITMAP
3FF0CC00
3FF0CC00
0030CC00
0030CC00
0030CC00
0030CC00
0033CC00
0033CC00
0030CC00
0030CC00
0000CC00
0000CC00
0000CC00
0000CC00
0000CC00
0000CC00
3FF0FFC0
3FF0FFC0
003000C0
003000C0
3FF000C0
3FF000C0
300000C0
300000C0
3FF000C0
3FF000C0
00000000
00000000
00000000
00000000
00000000
00000000
ENDCHAR

STARTCHAR U+ac96
ENCODING 44182
SWIDTH 1000
DWIDTH 28 0
BBX 28 32 0 0
BITMAP
3FF0CC00
3FF0CC00
0030CC00
0030CC00
0030CC00
0030CC00
0033CC00
0033CC00
0030CC00
0030CC00
0000CC00
0000CC00
0000CC00
0000CC00
0000CC00
0000CC00
3FF0FFC0
3FF0FFC0
0030C0C0
0030C0C0
3FF0C0C0
3FF0C0C0
3000C0C0
3000C0C0
3FF0FFC0
3FF0FFC0
00000000
00000000
00000000
00000000
00000000
00000000
ENDCHAR

STARTCHAR U+ac97
ENCODING 44183
SWIDTH 1000
DWIDTH 28 0
BBX 28 32 0 0
BITMAP
3FF0CC00
3FF0CC00
0030CC00
0030CC00
0030CC00
0030CC00
0033CC00
0033CC00
0030CC00
0030CC00
0000CC00
0000CC00
0000CC00
0000CC00
0000CC00
0000CC00
3FF0C0C0
3FF0C0C0
0030C0C0
0030C0C0
3FF0FFC0
3FF0FFC0
3000C0C0
3000C0C0
3FF0FFC0
3FF0FFC0
00000000
00000000
00000000
00000000
00000000
00000000
ENDCHAR

STARTCHAR U+ac98
ENCODING 44184
SWIDTH 1000
DWIDTH 28 0
BBX 28 32 0 0
BITMAP
3FF0CC00
3FF0CC00
0030CC00
0030CC00
0030CC00
0030CC00
0033CC00
0033CC00
0030CC00
0030CC00
0000CC00
0000CC00
0000CC00
0000CC00
0000CC00
0000CC00
3FF00C00
3FF00C00
00300C00
00300C00
3FF00C00
3FF00C00
30003300
30003300
3FF0C0C0
3FF0C0C0
00000000
00000000
00000000
00000000
00000000
00000000
ENDCHAR

STARTCHAR U+ac99
ENCODING 44185
SWIDTH 1000
DWIDTH 28 0
BBX 28 32 0 0
BITMAP
3FF0CC00
3FF0CC00
0030CC00
0030CC00
0030CC00
0030CC00
0033CC00
0033CC00
0030CC00
0030CC00
0000CC00
0000CC00
0000CC00
0000CC00
0000CC00
0000CC00
3FF0FFC0
3FF0FFC0
00300000
00300000
3FF0FFC0
3FF0FFC0
3000C000
3000C000
3FF0FFC0
3FF0FFC0
00000000
00000000
00000000
00000000
00000000
00000000
ENDCHAR

STARTCHAR U+ac9a
ENCODING 44186
SWIDTH 1000
DWIDTH 28 0
BBX 28 32 0 0
BITMAP
3FF0CC00
3FF0CC00
0030CC00
0030CC00
0030CC00
0030CC00
0033CC00
0033CC00
0030CC00
0030CC00
0000CC00
0000CC00
0000CC00
0000CC00
0000CC00
0000CC00
3FF0FFC0
3FF0FFC0
00303300
00303300
3FF03300
3FF03300
30003300
30003300
3FF0FFC0
3FF0FFC0
00000000
00000000
00000000
00000000
00000000
00000000
ENDCHAR

STARTCHAR U+ac9b
ENCODING 44187
SWIDTH 1000
DWIDTH 28 0
BBX 28 32 0 0
BITMAP
3FF0CC00
3FF0CC00
0030CC00
0030CC00
0030CC00
0030CC00
0033CC00
0033CC00
0030CC00
0030CC00
0000CC00
0000CC00
0000CC00
0000CC00
0000CC00
0000CC00
3FF00C00
3FF00C00
0030FFC0
0030FFC0
3FF03F00
3FF03F00
3000C0C0
3000C0C0
3FF03F00
3FF03F00
00000000
00000000
00000000
00000000
00000000
00000000
ENDCHAR

STARTCHAR U+ac9c
ENCODING 44188
SWIDTH 1000
DWIDTH 28 0
BBX 28 32 0 0
BITMAP
3FF0CC00
3FF0CC00
0030CC00
0030CC00
0030CC00
0030CC00
0033CC00
0033CC00
0030CC00
0030CC00
0000CC00
0000CC00
0000CC00
0000CC00
0000CC00
0000CC00
3FF00000
3FF00000
30300000
30300000
30300000
30300000
30300000
30300000
3FF00000
3FF00000
00000000
00000000
00000000
00000000
00000000
00000000
ENDCHAR

STARTCHAR U+ac9d
ENCODING 44189
SWIDTH 1000
DWIDTH 28 0
BBX 28 32 0 0
BITMAP
3FF0CC00
3FF0CC00
0030CC00
0030CC00
0030CC00
0030CC00
0033CC00
0033CC00
0030CC00
0030CC00
0000CC00
0000CC00
0000CC00
0000CC00
0000CC00
0000CC00
30300000
30300000
30300000
30300000
3FF00000
3FF00000
30300000
30300000
3FF00000
3FF00000
00000000
00000000
00000000
00000000
00000000
00000000
ENDCHAR

STARTCHAR U+ac9e
ENCODING 44190
SWIDTH 1000
DWIDTH 28 0
BBX 28 32 0 0
BITMAP
3FF0CC00
3FF0CC00
0030CC00
0030CC00
0030CC00
0030CC00
0033CC00
0033CC00
0030CC00
0030CC00
0000CC00
0000CC00
0000CC00
0000CC00
0000CC00
0000CC00
30300C00
30300C00
30300C00
30300C00
3FF00C00
3FF00C00
30303300
30303300
3FF0C0C0
3FF0C0C0
00000000
00000000
00000000
00000000
00000000
00000000
ENDCHAR

STARTCHAR U+ac9f
ENCODING 44191
SWIDTH 1000
DWIDTH 28 0
BBX 28 32 0 0
BITMAP
3FF0CC00
3FF0CC00
0030CC00
0030CC00
0030CC00
0030CC00
0033CC00
0033CC00
0030CC00
0030CC00
0000CC00
0000CC00
0000CC00
0000CC00
0000CC00
0000CC00
03000000
03000000
03000000
03000000
03000000
03000000
0CC00000
0CC00000
30300000
30300000
00000000
00000000
00000000
00000000
00000000
00000000
ENDCHAR

STARTCHAR U+aca0
ENCODING 44192
SWIDTH 1000
DWIDTH 28 0
BBX 28 32 0 0
BITMAP
3FF0CC00
3FF0CC00
0030CC00
0030CC00
0030CC00
0030CC00
0033CC00
0033CC00
0030CC00
0030CC00
0000CC00
0000CC00
0000CC00
0000CC00
0000CC00
0000CC00
0CC00000
0CC00000
0CC00000
0CC00000
33300000
33300000
C30C0000
C30C0000
00000000
00000000
00000000
00000000
00000000
00000000
00000000
00000000
ENDCHAR

STARTCHAR U+aca1
ENCODING 44193
SWIDTH 1000
DWIDTH 28 0
BBX 28 32 0 0
BITMAP
3FF0CC00
3FF0CC00
0030CC00
0030CC00
0030CC00
0030CC00
0033CC00
0033CC00
0030CC00
0030CC00
0000CC00
0000CC00
0000CC00
0000CC00
0000CC00
0000CC00
0FC00000
0FC00000
30300000
30300000
30300000
30300000
30300000
30300000
0FC00000
0FC00000
00000000
00000000
00000000
00000000
00000000
00000000
ENDCHAR

STARTCHAR U+aca2
ENCODING 44194
SWIDTH 1000
DWIDTH 28 0
BBX 28 32 0 0
BITMAP
3FF0CC00
3FF0CC00
0030CC00
0030CC00
0030CC00
0030CC00
0033CC00
0033CC00
0030CC00
0030CC00
0000CC00
0000CC00
0000CC00
0000CC00
0000CC00
0000CC00
3FF00000
3FF00000
03000000
03000000
03000000
03000000
0CC00000
0CC00000
30300000
30300000
00000000
00000000
00000000
00000000
00000000
00000000
ENDCHAR

STARTCHAR U+aca3
ENCODING 44195
SWIDTH 1000
DWIDTH 28 0
BBX 28 32 0 0
BITMAP
3FF0CC00
3FF0CC00
0030CC00
0030CC00
0030CC00
0030CC00
0033CC00
0033CC00
0030CC00
0030CC00
0000CC00
0000CC00
0000CC00
0000CC00
0000CC00
0000CC00
03000000
03000000
3FF00000
3FF00000
03000000
03000000
0CC00000
0CC00000
30300000
30300000
00000000
00000000
00000000
00000000
00000000
00000000
ENDCHAR

STARTCHAR U+aca4
ENCODING 44196
SWIDTH 1000
DWIDTH 28 0
BBX 28 32 0 0
BITMAP
3FF0CC00
3FF0CC00
0030CC00
0030CC00
0030CC00
0030CC00
0033CC00
0033CC00
0030CC00
0030CC00
0000CC00
0000CC00
0000CC00
0000CC00
0000CC00
0000CC00
3FF00000
3FF00000
00300000
00300000
3FF00000
3FF00000
00300000
00300000
00C00000
00C00000
00000000
00000000
00000000
00000000
00000000
00000000
ENDCHAR

STARTCHAR U+aca5
ENCODING 44197
SWIDTH 1000
DWIDTH 28 0
BBX 28 32 0 0
BITMAP
3FF0CC00
3FF0CC00
0030CC00
0030CC00
0030CC00
0030CC00
0033CC00
0033CC00
0030CC00
0030CC00
0000CC00
0000CC00
0000CC00
0000CC00
0000CC00
0000CC00
3FF00000
3FF00000
00000000
00000000
3FF00000
3FF00000
30000000
30000000
3FF00000
3FF00000
00000000
00000000
00000000
00000000
00000000
00000000
ENDCHAR

STARTCHAR U+aca6
ENCODING 44198
SWIDTH 1000
DWIDTH 28 0
BBX 28 32 0 0
BITMAP
3FF0CC00
3FF0CC00
0030CC00
0030CC00
0030CC00
0030CC00
0033CC00
0033CC00
0030CC00
0030CC00
0000CC00
0000CC00
0000CC00
0000CC00
0000CC00
0000CC00
3FF00000
3FF00000
0CC00000
0CC00000
0CC00000
0CC00000
0CC00000
0CC00000
3FF00000
3FF00000
00000000
00000000
00000000
00000000
00000000
00000000
ENDCHAR

STARTCHAR U+aca7
ENCODING 44199
SWIDTH 1000
DWIDTH 28 0
BBX 28 32 0 0
BITMAP
3FF0CC00
3FF0CC00
0030CC00
0030CC00
0030CC00
0030CC00
0033CC00
0033CC00
0030CC00
0030CC00
0000CC00
0000CC00
0000CC00
0000CC00
0000CC00
0000CC00
03000000
03000000
3FF00000
3FF00000
0FC00000
0FC00000
30300000
30300000
0FC00000
0FC00000
00000000
00000000
00000000
00000000
00000000
00000000
ENDCHAR

STARTCHAR U+aca8
ENCODING 44200
SWIDTH 1000
DWIDTH 28 0
BBX 28 32 0 0
BITMAP
3FF03000
3FF03000
00303000
00303000
0033F000
0033F000
00303000
00303000
00303000
00303000
0003F000
0003F000
00003000
00003000
00003000
00003000
00003000
00003000
00003000
00003000
00003000
00003000
00003000
00003000
00000000
00000000
00000000
00000000
00000000
00000000
00000000
00000000
ENDCHAR

STARTCHAR U+aca9
ENCODING 44201
SWIDTH 1000
DWIDTH 28 0
BBX 28 32 0 0
BITMAP
3FF03000
3FF03000
00303000
00303000
0033F000
0033F000
00303000
00303000
00303000
00303000
0003F000
0003F000
00003000
00003000
00003000
00003000
3FF00000
3FF00000
00300000
00300000
00300000
00300000
00300000
00300000
00300000
00300000
00000000
00000000
00000000
00000000
00000000
00000000
ENDCHAR

STARTCHAR U+acaa
ENCODING 44202
SWIDTH 1000
DWIDTH 28 0
BBX 28 32 0 0
BITMAP
3FF03000
3FF03000
00303000
00303000
0033F000
0033F000
00303000
00303000
00303000
00303000
0003F000
0003F000
00003000
00003000
00003000
00003000
3FF00000
3FF00000
03300000
03300000
03300000
03300000
0CC00000
0CC00000
00000000
00000000
00000000
00000000
00000000
00000000
00000000
00000000
ENDCHAR

STARTCHAR U+acab
ENCODING 44203
SWIDTH 1000
DWIDTH 28 0
BBX 28 32 0 0
BITMAP
3FF03000
3FF03000
00303000
00303000
0033F000
0033F000
00303000
00303000
00303000
00303000
0003F000
0003F000
00003000
00003000
00003000
00003000
3FF00C00
3FF00C00
00300C00
00300C00
00300C00
00300C00
00303300
00303300
0030C0C0
0030C0C0
00000000
00000000
00000000
00000000
00000000
00000000
ENDCHAR

STARTCHAR U+acac
ENCODING 44204
SWIDTH 1000
DWIDTH 28 0
BBX 28 32 0 0
BITMAP
3FF03000
3FF03000
00303000
00303000
0033F000
0033F000
00303000
00303000
00303000
00303000
0003F000
0003F000
00003000
00003000
00003000
00003000
30000000
30000000
30000000
30000000
30000000
30000000
30000000
30000000
3FF00000
3FF00000
00000000
00000000
00000000
00000000
00000000
00000000
ENDCHAR

STARTCHAR U+acad
ENCODING 44205
SWIDTH 1000
DWIDTH 28 0
BBX 28 32 0 0
BITMAP
3FF03000
3FF03000
00303000
00303000
0033F000
0033F000
00303000
00303000
00303000
00303000
0003F000
0003F000
00003000
00003000
00003000
00003000
3000FFC0
3000FFC0
30000C00
30000C00
30000C00
30000C00
30003300
30003300
3FF0C0C0
3FF0C0C0
00000000
00000000
00000000
00000000
00000000
00000000
ENDCHAR

STARTCHAR U+acae
ENCODING 44206
SWIDTH 1000
DWIDTH 28 0
BBX 28 32 0 0
BITMAP
3FF03000
3FF03000
00303000
00303000
0033F000
0033F000
00303000
00303000
00303000
00303000
0003F000
0003F000
00003000
00003000
00003000
00003000
30000C00
30000C00
3000FFC0
3000FFC0
30003F00
30003F00
3000C0C0
3000C0C0
3FF03F00
3FF03F00
00000000
00000000
00000000
00000000
00000000
00000000
ENDCHAR

STARTCHAR U+acaf
ENCODING 44207
SWIDTH 1000
DWIDTH 28 0
BBX 28 32 0 0
BITMAP
3FF03000
3FF03000
00303000
00303000
0033F000
0033F000
00303000
00303000
00303000
00303000
0003F000
0003F000
00003000
00003000
00003000
00003000
3FF00000
3FF00000
30000000
30000000
30000000
30000000
30000000
30000000
3FF00000
3FF00000
00000000
00000000
00000000
00000000
00000000
00000000
ENDCHAR

STARTCHAR U+acb0
ENCODING 44208
SWIDTH 1000
DWIDTH 28 0
BBX 28 32 0 0
BITMAP
3FF03000
3FF03000
00303000
00303000
0033F000
0033F000
00303000
00303000
00303000
00303000
0003F000
0003F000
00003000
00003000
00003000
00003000
3FF00000
3FF00000
00300000
00300000
3FF00000
3FF00000
30000000
30000000
3FF00000
3FF00000
00000000
00000000
00000000
00000000
00000000
00000000
ENDCHAR

STARTCHAR U+acb1
ENCODING 44209
SWIDTH 1000
DWIDTH 28 0
BBX 28 32 0 0
BITMAP
3FF03000
3FF03000
00303000
00303000
0033F000
0033F000
00303000
00303000
00303000
00303000
0003F000
0003F000
00003000
00003000
00003000
00003000
3FF0FFC0
3FF0FFC0
003000C0
003000C0
3FF000C0
3FF000C0
300000C0
300000C0
3FF000C0
3FF000C0
00000000
00000000
00000000
00000000
00000000
00000000
ENDCHAR

STARTCHAR U+acb2
ENCODING 44210
SWIDTH 1000
DWIDTH 28 0
BBX 28 32 0 0
BITMAP
3FF03000
3FF03000
00303000
00303000
0033F000
0033F000
00303000
00303000
00303000
00303000
0003F000
0003F000
00003000
00003000
00003000
00003000
3FF0FFC0
3FF0FFC0
0030C0C0
0030C0C0
3FF0C0C0
3FF0C0C0
3000C0C0
3000C0C0
3FF0FFC0
3FF0FFC0
00000000
00000000
00000000
00000000
00000000
00000000
ENDCHAR

STARTCHAR U+acb3
ENCODING 44211
SWIDTH 1000
DWIDTH 28 0
BBX 28 32 0 0
BITMAP
3FF03000
3FF03000
00303000
00303000
0033F000
0033F000
00303000
00303000
00303000
00303000
0003F000
0003F000
00003000
00003000
00003000
00003000
3FF0C0C0
3FF0C0C0
0030C0C0
0030C0C0
3FF0FFC0
3FF0FFC0
3000C0C0
3000C0C0
3FF0FFC0
3FF0FFC0
00000000
00000000
00000000
00000000
00000000
00000000
ENDCHAR

STARTCHAR U+acb4
ENCODING 44212
SWIDTH 1000
DWIDTH 28 0
BBX 28 32 0 0
BITMAP
3FF03000
3FF03000
00303000
00303000
0033F000
0033F000
00303000
00303000
00303000
00303000
0003F000
0003F000
00003000
00003000
00003000
00003000
3FF00C00
3FF00C00
00300C00
00300C00
3FF00C00
3FF00C00
30003300
30003300
3FF0C0C0
3FF0C0C0
00000000
00000000
00000000
00000000
00000000
00000000
ENDCHAR

STARTCHAR U+acb5
ENCODING 44213
SWIDTH 1000
DWIDTH 28 0
BBX 28 32 0 0
BITMAP
3FF03000
3FF03000
00303000
00303000
0033F000
0033F000
00303000
00303000
00303000
00303000
0003F000
0003F000
00003000
00003000
00003000
00003000
3FF0FFC0
3FF0FFC0
00300000
00300000
3FF0FFC0
3FF0FFC0
3000C000
3000C000
3FF0FFC0
3FF0FFC0
00000000
00000000
00000000
00000000
00000000
00000000
ENDCHAR

STARTCHAR U+acb6
ENCODING 44214
SWIDTH 1000
DWIDTH 28 0
BBX 28 32 0 0
BITMAP
3FF03000
3FF03000
00303000
00303000
0033F000
0033F000
00303000
00303000
00303000
00303000
0003F000
0003F000
00003000
00003000
00003000
00003000
3FF0FFC0
3FF0FFC0
00303300
00303300
3FF03300
3FF03300
30003300
30003300
3FF0FFC0
3FF0FFC0
00000000
00000000
00000000
00000000
00000000
00000000
ENDCHAR

STARTCHAR U+acb7
ENCODING 44215
SWIDTH 1000
DWIDTH 28 0
BBX 28 32 0 0
BITMAP
3FF03000
3FF03000
00303000
00303000
0033F000
0033F000
00303000
00303000
00303000
00303000
0003F000
0003F000
00003000
00003000
00003000
00003000
3FF00C00
3FF00C00
0030FFC0
0030FFC0
3FF03F00
3FF03F00
3000C0C0
3000C0C0
3FF03F00
3FF03F00
00000000
00000000
00000000
00000000
00000000
00000000
ENDCHAR

STARTCHAR U+acb8
ENCODING 44216
SWIDTH 1000
DWIDTH 28 0
BBX 28 32 0 0
BITMAP
3FF03000
3FF03000
00303000
00303000
0033F000
0033F000
00303000
00303000
00303000
00303000
0003F000
0003F000
00003000
00003000
00003000
00003000
3FF00000
3FF00000
30300000
30300000
30300000
30300000
30300000
30300000
3FF00000
3FF00000
00000000
00000000
00000000
00000000
00000000
00000000
ENDCHAR

STARTCHAR U+acb9
ENCODING 44217
SWIDTH 1000
DWIDTH 28 0
BBX 28 32 0 0
BITMAP
3FF03000
3FF03000
00303000
00303000
0033F000
0033F000
00303000
00303000
00303000
00303000
0003F000
0003F000
00003000
00003000
00003000
00003000
30300000
30300000
30300000
30300000
3FF00000
3FF00000
30300000
30300000
3FF00000
3FF00000
00000000
00000000
00000000
00000000
00000000
00000000
ENDCHAR

STARTCHAR U+acba
ENCODING 44218
SWIDTH 1000
DWIDTH 28 0
BBX 28 32 0 0
BITMAP
3FF03000
3FF03000
00303000
00303000
0033F000
0033F000
00303000
00303000
00303000
00303000
0003F000
0003F000
00003000
00003000
00003000
00003000
30300C00
30300C00
30300C00
30300C00
3FF00C00
3FF00C00
30303300
30303300
3FF0C0C0
3FF0C0C0
00000000
00000000
00000000
00000000
00000000
00000000
ENDCHAR

STARTCHAR U+acbb
ENCODING 44219
SWIDTH 1000
DWIDTH 28 0
BBX 28 32 0 0
BITMAP
3FF03000
3FF03000
00303000
00303000
0033F000
0033F000
00303000
00303000
00303000
00303000
0003F000
0003F000
00003000
00003000
00003000
00003000
03000000
03000000
03000000
03000000
03000000
03000000
0CC00000
0CC00000
30300000
30300000
00000000
00000000
00000000
00000000
00000000
00000000
ENDCHAR

STARTCHAR U+acbc
ENCODING 44220
SWIDTH 1000
DWIDTH 28 0
BBX 28 32 0 0
BITMAP
3FF03000
3FF03000
00303000
00303000
0033F000
0033F000
00303000
00303000
00303000
00303000
0003F000
0003F000
00003000
00003000
00003000
00003000
0CC00000
0CC00000
0CC00000
0CC00000
33300000
33300000
C30C0000
C30C0000
00000000
00000000
00000000
00000000
00000000
00000000
00000000
00000000
ENDCHAR

STARTCHAR U+acbd
ENCODING 44221
SWIDTH 1000
DWIDTH 28 0
BBX 28 32 0 0
BITMAP
3FF03000
3FF03000
00303000
00303000
0033F000
0033F000
00303000
00303000
00303000
00303000
0003F000
0003F000
00003000
00003000
00003000
00003000
0FC00000
0FC00000
30300000
30300000
30300000
30300000
30300000
30300000
0FC00000
0FC00000
00000000
00000000
00000000
00000000
00000000
00000000
ENDCHAR

STARTCHAR U+acbe
ENCODING 44222
SWIDTH 1000
DWIDTH 28 0
BBX 28 32 0 0
BITMAP
3FF03000
3FF03000
00303000
00303000
0033F000
0033F000
00303000
00303000
00303000
00303000
0003F000
0003F000
00003000
00003000
00003000
00003000
3FF00000
3FF00000
03000000
03000000
03000000
03000000
0CC00000
0CC00000
30300000
30300000
00000000
00000000
00000000
00000000
00000000
00000000
ENDCHAR

STARTCHAR U+acbf
ENCODING 44223
SWIDTH 1000
DWIDTH 28 0
BBX 28 32 0 0
BITMAP
3FF03000
3FF03000
00303000
00303000
0033F000
0033F000
00303000
00303000
00303000
00303000
0003F000
0003F000
00003000
00003000
00003000
00003000
03000000
03000000
3FF00000
3FF00000
03000000
03000000
0CC00000
0CC00000
30300000
30300000
00000000
00000000
00000000
00000000
00000000
00000000
ENDCHAR

STARTCHAR U+acc0
ENCODING 44224
SWIDTH 1000
DWIDTH 28 0
BBX 28 32 0 0
BITMAP
3FF03000
3FF03000
00303000
00303000
0033F000
0033F000
00303000
00303000
00303000
00303000
0003F000
0003F000
00003000
00003000
00003000
00003000
3FF00000
3FF00000
00300000
00300000
3FF00000
3FF00000
00300000
00300000
00C00000
00C00000
00000000
00000000
00000000
00000000
00000000
00000000
ENDCHAR

STARTCHAR U+acc1
ENCODING 44225
SWIDTH 1000
DWIDTH 28 0
BBX 28 32 0 0
BITMAP
3FF03000
3FF03000
00303000
00303000
0033F000
0033F000
00303000
00303000
00303000
00303000
0003F000
0003F000
00003000
00003000
00003000
00003000
3FF00000
3FF00000
00000000
00000000
3FF00000
3FF00000
30000000
30000000
3FF00000
3FF00000
00000000
00000000
00000000
00000000
00000000
00000000
ENDCHAR

STARTCHAR U+acc2
ENCODING 44226
SWIDTH 1000
DWIDTH 28 0
BBX 28 32 0 0
BITMAP
3FF03000
3FF03000
00303000
00303000
0033F000
0033F000
00303000
00303000
00303000
00303000
0003F000
0003F000
00003000
00003000
00003000
00003000
3FF00000
3FF00000
0CC00000
0CC00000
0CC00000
0CC00000
0CC00000
0CC00000
3FF00000
3FF00000
00000000
00000000
00000000
00000000
00000000
00000000
ENDCHAR

STARTCHAR U+acc3
ENCODING 44227
SWIDTH 1000
DWIDTH 28 0
BBX 28 32 0 0
BITMAP
3FF03000
3FF03000
00303000
00303000
0033F000
0033F000
00303000
00303000
00303000
00303000
0003F000
0003F000
00003000
00003000
00003000
00003000
03000000
03000000
3FF00000
3FF00000
0FC00000
0FC00000
30300000
30300000
0FC00000
0FC00000
00000000
00000000
00000000
00000000
00000000
00000000
ENDCHAR

STARTCHAR U+acc4
ENCODING 44228
SWIDTH 1000
DWIDTH 28 0
BBX 28 32 0 0
BITMAP
3FF0CC00
3FF0CC00
0030CC00
0030CC00
0033CC00
0033CC00
0030CC00
0030CC00
0030CC00
0030CC00
0003CC00
0003CC00
0000CC00
0000CC00
0000CC00
0000CC00
0000CC00
0000CC00
0000CC00
0000CC00
0000CC00
0000CC00
0000CC00
0000CC00
00000000
00000000
00000000
00000000
00000000
00000000
00000000
00000000
ENDCHAR

STARTCHAR U+acc5
ENCODING 44229
SWIDTH 1000
DWIDTH 28 0
BBX 28 32 0 0
BITMAP
3FF0CC00
3FF0CC00
0030CC00
0030CC00
0033CC00
0033CC00
0030CC00
0030CC00
0030CC00
0030CC00
0003CC00
0003CC00
0000CC00
0000CC00
0000CC00
0000CC00
3FF00000
3FF00000
00300000
00300000
00300000
00300000
00300000
00300000
00300000
00300000
00000000
00000000
00000000
00000000
00000000
00000000
ENDCHAR

STARTCHAR U+acc6
ENCODING 44230
SWIDTH 1000
DWIDTH 28 0
BBX 28 32 0 0
BITMAP
3FF0CC00
3FF0CC00
0030CC00
0030CC00
0033CC00
0033CC00
0030CC00
0030CC00
0030CC00
0030CC00
0003CC00
0003CC00
0000CC00
0000CC00
0000CC00
0000CC00
3FF00000
3FF00000
03300000
03300000
03300000
03300000
0CC00000
0CC00000
00000000
00000000
00000000
00000000
00000000
00000000
00000000
00000000
ENDCHAR

STARTCHAR U+acc7
ENCODING 44231
SWIDTH 1000
DWIDTH 28 0
BBX 28 32 0 0
BITMAP
3FF0CC00
3FF0CC00
0030CC00
0030CC00
0033CC00
0033CC00
0030CC00
0030CC00
0030CC00
0030CC00
0003CC00
0003CC00
0000CC00
0000CC00
0000CC00
0000CC00
3FF00C00
3FF00C00
00300C00
00300C00
00300C00
00300C00
00303300
00303300
0030C0C0
0030C0C0
00000000
00000000
00000000
00000000
00000000
00000000
ENDCHAR

STARTCHAR U+acc8
ENCODING 44232
SWIDTH 1000
DWIDTH 28 0
BBX 28 32 0 0
BITMAP
3FF0CC00
3FF0CC00
0030CC00
0030CC00
0033CC00
0033CC00
0030CC00
0030CC00
0030CC00
0030CC00
0003CC00
0003CC00
0000CC00
0000CC00
0000CC00
0000CC00
30000000
30000000
30000000
30000000
30000000
30000000
30000000
30000000
3FF00000
3FF00000
00000000
00000000
00000000
00000000
00000000
00000000
ENDCHAR

STARTCHAR U+acc9
ENCODING 44233
SWIDTH 1000
DWIDTH 28 0
BBX 28 32 0 0
BITMAP
3FF0CC00
3FF0CC00
0030CC00
0030CC00
0033CC00
0033CC00
0030CC00
0030CC00
0030CC00
0030CC00
0003CC00
0003CC00
0000CC00
0000CC00
0000CC00
0000CC00
3000FFC0
3000FFC0
30000C00
30000C00
30000C00
30000C00
30003300
30003300
3FF0C0C0
3FF0C0C0
00000000
00000000
00000000
00000000
00000000
00000000
ENDCHAR

STARTCHAR U+acca
ENCODING 44234
SWIDTH 1000
DWIDTH 28 0
BBX 28 32 0 0
BITMAP
3FF0CC00
3FF0CC00
0030CC00
0030CC00
0033CC00
0033CC00
0030CC00
0030CC00
0030CC00
0030CC00
0003CC00
0003CC00
0000CC00
0000CC00
0000CC00
0000CC00
30000C00
30000C00
3000FFC0
3000FFC0
30003F00
30003F00
3000C0C0
3000C0C0
3FF03F00
3FF03F00
00000000
00000000
00000000
00000000
00000000
00000000
ENDCHAR

STARTCHAR U+accb
ENCODING 44235
SWIDTH 1000
DWIDTH 28 0
BBX 28 32 0 0
BITMAP
3FF0CC00
3FF0CC00
0030CC00
0030CC00
0033CC00
0033CC00
0030CC00
0030CC00
0030CC00
0030CC00
0003CC00
0003CC00
0000CC00
0000CC00
0000CC00
0000CC00
3FF00000
3FF00000
30000000
30000000
30000000
30000000
30000000
30000000
3FF00000
3FF00000
00000000
00000000
00000000
00000000
00000000
00000000
ENDCHAR

STARTCHAR U+accc
ENCODING 44236
SWIDTH 1000
DWIDTH 28 0
BBX 28 32 0 0
BITMAP
3FF0CC00
3FF0CC00
0030CC00
0030CC00
0033CC00
0033CC00
0030CC00
0030CC00
0030CC00
0030CC00
0003CC00
0003CC00
0000CC00
0000CC00
0000CC00
0000CC00
3FF00000
3FF00000
00300000
00300000
3FF00000
3FF00000
30000000
30000000
3FF00000
3FF00000
00000000
00000000
00000000
00000000
00000000
00000000
ENDCHAR

STARTCHAR U+accd
ENCODING 44237
SWIDTH 1000
DWIDTH 28 0
BBX 28 32 0 0
BITMAP
3FF0CC00
3FF0CC00
0030CC00
0030CC00
0033CC00
0033CC00
0030CC00
0030CC00
0030CC00
0030CC00
0003CC00
0003CC00
0000CC00
0000CC00
0000CC00
0000CC00
3FF0FFC0
3FF0FFC0
003000C0
003000C0
3FF000C0
3FF000C0
300000C0
300000C0
3FF000C0
3FF000C0
00000000
00000000
00000000
00000000
00000000
00000000
ENDCHAR

STARTCHAR U+acce
ENCODING 44238
SWIDTH 1000
DWIDTH 28 0
BBX 28 32 0 0
BITMAP
3FF0CC00
3FF0CC00
0030CC00
0030CC00
0033CC00
0033CC00
0030CC00
0030CC00
0030CC00
0030CC00
0003CC00
0003CC00
0000CC00
0000CC00
0000CC00
0000CC00
3FF0FFC0
3FF0FFC0
0030C0C0
0030C0C0
3FF0C0C0
3FF0C0C0
3000C0C0
3000C0C0
3FF0FFC0
3FF0FFC0
00000000
00000000
00000000
00000000
00000000
00000000
ENDCHAR

STARTCHAR U+accf
ENCODING 44239
SWIDTH 1000
DWIDTH 28 0
BBX 28 32 0 0
BITMAP
3FF0CC00
3FF0CC00
0030CC00
0030CC00
0033CC00
0033CC00
0030CC00
0030CC00
0030CC00
0030CC00
0003CC00
0003CC00
0000CC00
0000CC00
0000CC00
0000CC00
3FF0C0C0
3FF0C0C0
0030C0C0
0030C0C0
3FF0FFC0
3FF0FFC0
3000C0C0
3000C0C0
3FF0FFC0
3FF0FFC0
00000000
00000000
00000000
00000000
00000000
00000000
ENDCHAR

STARTCHAR U+acd0
ENCODING 44240
SWIDTH 1000
DWIDTH 28 0
BBX 28 32 0 0
BITMAP
3FF0CC00
3FF0CC00
0030CC00
0030CC00
0033CC00
0033CC00
0030CC00
0030CC00
0030CC00
0030CC00
0003CC00
0003CC00
0000CC00
0000CC00
0000CC00
0000CC00
3FF00C00
3FF00C00
00300C00
00300C00
3FF00C00
3FF00C00
30003300
30003300
3FF0C0C0
3FF0C0C0
00000000
00000000
00000000
00000000
00000000
00000000
ENDCHAR

STARTCHAR U+acd1
ENCODING 44241
SWIDTH 1000
DWIDTH 28 0
BBX 28 32 0 0
BITMAP
3FF0CC00
3FF0CC00
0030CC00
0030CC00
0033CC00
0033CC00
0030CC00
0030CC00
0030CC00
0030CC00
0003CC00
0003CC00
0000CC00
0000CC00
0000CC00
0000CC00
3FF0FFC0
3FF0FFC0
00300000
00300000
3FF0FFC0
3FF0FFC0
3000C000
3000C000
3FF0FFC0
3FF0FFC0
00000000
00000000
00000000
00000000
00000000
00000000
ENDCHAR

STARTCHAR U+acd2
ENCODING 44242
SWIDTH 1000
DWIDTH 28 0
BBX 28 32 0 0
BITMAP
3FF0CC00
3FF0CC00
0030CC00
0030CC00
0033CC00
0033CC00
0030CC00
0030CC00
0030CC00
0030CC00
0003CC00
0003CC00
0000CC00
0000CC00
0000CC00
0000CC00
3FF0FFC0
3FF0FFC0
00303300
00303300
3FF03300
3FF03300
30003300
30003300
3FF0FFC0
3FF0FFC0
00000000
00000000
00000000
00000000
00000000
00000000
ENDCHAR

STARTCHAR U+acd3
ENCODING 44243
SWIDTH 1000
DWIDTH 28 0
BBX 28 32 0 0
BITMAP
3FF0CC00
3FF0CC00
0030CC00
0030CC00
0033CC00
0033CC00
0030CC00
0030CC00
0030CC00
0030CC00
0003CC00
0003CC00
0000CC00
0000CC00
0000CC00
0000CC00
3FF00C00
3FF00C00
0030FFC0
0030FFC0
3FF03F00
3FF03F00
3000C0C0
3000C0C0
3FF03F00
3FF03F00
00000000
00000000
00000000
00000000
00000000
00000000
ENDCHAR

STARTCHAR U+acd4
ENCODING 44244
SWIDTH 1000
DWIDTH 28 0
BBX 28 32 0 0
BITMAP
3FF0CC00
3FF0CC00
0030CC00
0030CC00
0033CC00
0033CC00
0030CC00
0030CC00
0030CC00
0030CC00
0003CC00
0003CC00
0000CC00
0000CC00
0000CC00
0000CC00
3FF00000
3FF00000
30300000
30300000
30300000
30300000
30300000
30300000
3FF00000
3FF00000
00000000
00000000
00000000
00000000
00000000
00000000
ENDCHAR

STARTCHAR U+acd5
ENCODING 44245
SWIDTH 1000
DWIDTH 28 0
BBX 28 32 0 0
BITMAP
3FF0CC00
3FF0CC00
0030CC00
0030CC00
0033CC00
0033CC00
0030CC00
0030CC00
0030CC00
0030CC00
0003CC00
0003CC00
0000CC00
0000CC00
0000CC00
0000CC00
30300000
30300000
30300000
30300000
3FF00000
3FF00000
30300000
30300000
3FF00000
3FF00000
00000000
00000000
00000000
00000000
00000000
00000000
ENDCHAR

STARTCHAR U+acd6
ENCODING 44246
SWIDTH 1000
DWIDTH 28 0
BBX 28 32 0 0
BITMAP
3FF0CC00
3FF0CC00
0030CC00
0030CC00
0033CC00
0033CC00
0030CC00
0030CC00
0030CC00
0030CC00
0003CC00
0003CC00
0000CC00
0000CC00
0000CC00
0000CC00
30300C00
30300C00
30300C00
30300C00
3FF00C00
3FF00C00
30303300
30303300
3FF0C0C0
3FF0C0C0
00000000
00000000
00000000
00000000
00000000
00000000
ENDCHAR

STARTCHAR U+acd7
ENCODING 44247
SWIDTH 1000
DWIDTH 28 0
BBX 28 32 0 0
BITMAP
3FF0CC00
3FF0CC00
0030CC00
0030CC00
0033CC00
0033CC00
0030CC00
0030CC00
0030CC00
0030CC00
0003CC00
0003CC00
0000CC00
0000CC00
0000CC00
0000CC00
03000000
03000000
03000000
03000000
03000000
03000000
0CC00000
0CC00000
30300000
30300000
00000000
00000000
00000000
00000000
00000000
00000000
ENDCHAR

STARTCHAR U+acd8
ENCODING 44248
SWIDTH 1000
DWIDTH 28 0
BBX 28 32 0 0
BITMAP
3FF0CC00
3FF0CC00
0030CC00
0030CC00
0033CC00
0033CC00
0030CC00
0030CC00
0030CC00
0030CC00
0003CC00
0003CC00
0000CC00
0000CC00
0000CC00
0000CC00
0CC00000
0CC00000
0CC00000
0CC00000
33300000
33300000
C30C0000
C30C0000
00000000
00000000
00000000
00000000
00000000
00000000
00000000
00000000
ENDCHAR

STARTCHAR U+acd9
ENCODING 44249
SWIDTH 1000
DWIDTH 28 0
BBX 28 32 0 0
BITMAP
3FF0CC00
3FF0CC00
0030CC00
0030CC00
0033CC00
0033CC00
0030CC00
0030CC00
0030CC00
0030CC00
0003CC00
0003CC00
0000CC00
0000CC00
0000CC00
0000CC00
0FC00000
0FC00000
30300000
30300000
30300000
30300000
30300000
30300000
0FC00000
0FC00000
00000000
00000000
00000000
00000000
00000000
00000000
ENDCHAR

STARTCHAR U+acda
ENCODING 44250
SWIDTH 1000
DWIDTH 28 0
BBX 28 32 0 0
BITMAP
3FF0CC00
3FF0CC00
0030CC00
0030CC00
0033CC00
0033CC00
0030CC00
0030CC00
0030CC00
0030CC00
0003CC00
0003CC00
0000CC00
0000CC00
0000CC00
0000CC00
3FF00000
3FF00000
03000000
03000000
03000000
03000000
0CC00000
0CC00000
30300000
30300000
00000000
00000000
00000000
00000000
00000000
00000000
ENDCHAR

STARTCHAR U+acdb
ENCODING 44251
SWIDTH 1000
DWIDTH 28 0
BBX 28 32 0 0
BITMAP
3FF0CC00
3FF0CC00
0030CC00
0030CC00
0033CC00
0033CC00
0030CC00
0030CC00
0030CC00
0030CC00
0003CC00
0003CC00
0000CC00
0000CC00
0000CC00
0000CC00
03000000
03000000
3FF00000
3FF00000
03000000
03000000
0CC00000
0CC00000
30300000
30300000
00000000
00000000
00000000
00000000
00000000
00000000
ENDCHAR

STARTCHAR U+acdc
ENCODING 44252
SWIDTH 1000
DWIDTH 28 0
BBX 28 32 0 0
BITMAP
3FF0CC00
3FF0CC00
0030CC00
0030CC00
0033CC00
0033CC00
0030CC00
0030CC00
0030CC00
0030CC00
0003CC00
0003CC00
0000CC00
0000CC00
0000CC00
0000CC00
3FF00000
3FF00000
00300000
00300000
3FF00000
3FF00000
00300000
00300000
00C00000
00C00000
00000000
00000000
00000000
00000000
00000000
00000000
ENDCHAR

STARTCHAR U+acdd
ENCODING 44253
SWIDTH 1000
DWIDTH 28 0
BBX 28 32 0 0
BITMAP
3FF0CC00
3FF0CC00
0030CC00
0030CC00
0033CC00
0033CC00
0030CC00
0030CC00
0030CC00
0030CC00
0003CC00
0003CC00
0000CC00
0000CC00
0000CC00
0000CC00
3FF00000
3FF00000
00000000
00000000
3FF00000
3FF00000
30000000
30000000
3FF00000
3FF00000
00000000
00000000
00000000
00000000
00000000
00000000
ENDCHAR

STARTCHAR U+acde
ENCODING 44254
SWIDTH 1000
DWIDTH 28 0
BBX 28 32 0 0
BITMAP
3FF0CC00
3FF0CC00
0030CC00
0030CC00
0033CC00
0033CC00
0030CC00
0030CC00
0030CC00
0030CC00
0003CC00
0003CC00
0000CC00
0000CC00
0000CC00
0000CC00
3FF00000
3FF00000
0CC00000
0CC00000
0CC00000
0CC00000
0CC00000
0CC00000
3FF00000
3FF00000
00000000
00000000
00000000
00000000
00000000
00000000
ENDCHAR

STARTCHAR U+acdf
ENCODING 44255
SWIDTH 1000
DWIDTH 28 0
BBX 28 32 0 0
BITMAP
3FF0CC00
3FF0CC00
0030CC00
0030CC00
0033CC00
0033CC00
0030CC00
0030CC00
0030CC00
0030CC00
0003CC00
0003CC00
0000CC00
0000CC00
0000CC00
0000CC00
03000000
03000000
3FF00000
3FF00000
0FC00000
0FC00000
30300000
30300000
0FC00000
0FC00000
00000000
00000000
00000000
00000000
00000000
00000000
ENDCHAR

STARTCHAR U+ace0
ENCODING 44256
SWIDTH 500
DWIDTH 14 0
BBX 14 32 0 0
BITMAP
3FF0
3FF0
0030
0030
0030
0030
0030
0030
0030
0030
0000
0000
0000
0000
0000
0000
0300
0300
0300
0300
0300
0300
FFF0
FFF0
0000
0000
0000
0000
0000
0000
0000
0000
ENDCHAR

STARTCHAR U+ace1
ENCODING 44257
SWIDTH 500
DWIDTH 14 0
BBX 14 32 0 0
BITMAP
3FF0
3FF0
0030
0030
0030
0030
0030
0030
0330
0330
0300
0300
FFF0
FFF0
0000
0000
3FF0
3FF0
0030
0030
0030
0030
0030
0030
0030
0030
0000
0000
0000
0000
0000
0000
ENDCHAR

STARTCHAR U+ace2
ENCODING 44258
SWIDTH 500
DWIDTH 14 0
BBX 14 32 0 0
BITMAP
3FF0
3FF0
0030
0030
0030
0030
0030
0030
0330
0330
0300
0300
FFF0
FFF0
0000
0000
3FF0
3FF0
0330
0330
0330
0330
0CC0
0CC0
0000
0000
0000
0000
0000
0000
0000
0000
ENDCHAR

STARTCHAR U+ace3
ENCODING 44259
SWIDTH 500
DWIDTH 14 0
BBX 14 32 0 0
BITMAP
3FF0
3FF0
0030
0030
0030
0030
0030
0030
0330
0330
0300
0300
FFF0
FFF0
0000
0000
0000
0000
FC30
FC30
0C30
0C30
0C30
0C30
0CCC
0CCC
3300
3300
0000
0000
0000
0000
ENDCHAR

STARTCHAR U+ace4
ENCODING 44260
SWIDTH 500
DWIDTH 14 0
BBX 14 32 0 0
BITMAP
3FF0
3FF0
0030
0030
0030
0030
0030
0030
0330
0330
0300
0300
FFF0
FFF0
0000
0000
3000
3000
3000
3000
3000
3000
3000
3000
3FF0
3FF0
0000
0000
0000
0000
0000
0000
ENDCHAR

STARTCHAR U+ace5
ENCODING 44261
SWIDTH 500
DWIDTH 14 0
BBX 14 32 0 0
BITMAP
3FF0
3FF0
0030
0030
0030
0030
0030
0030
0330
0330
0300
0300
FFF0
FFF0
0000
0000
0000
0000
C3F0
C3F0
C0C0
C0C0
C0C0
C0C0
C330
C330
FF30
FF30
0000
0000
0000
0000
ENDCHAR

STARTCHAR U+ace6
ENCODING 44262
SWIDTH 500
DWIDTH 14 0
BBX 14 32 0 0
BITMAP
3FF0
3FF0
0030
0030
0030
0030
0030
0030
0330
0330
0300
0300
FFF0
FFF0
0000
0000
0000
0000
C0C0
C0C0
C3F0
C3F0
C0C0
C0C0
C330
C330
FCC0
FCC0
0000
0000
0000
0000
ENDCHAR

STARTCHAR U+ace7
ENCODING 44263
SWIDTH 500
DWIDTH 14 0
BBX 14 32 0 0
BITMAP
3FF0
3FF0
0030
0030
0030
0030
0030
0030
0330
0330
0300
0300
FFF0
FFF0
0000
0000
3FF0
3FF0
3000
3000
3000
3000
3000
3000
3FF0
3FF0
0000
0000
0000
0000
0000
0000
ENDCHAR

STARTCHAR U+ace8
ENCODING 44264
SWIDTH 500
DWIDTH 14 0
BBX 14 32 0 0
BITMAP
3FF0
3FF0
0030
0030
0030
0030
0030
0030
0330
0330
0300
0300
FFF0
FFF0
0000
0000
3FF0
3FF0
0030
0030
3FF0
3FF0
3000
3000
3FF0
3FF0
0000
0000
0000
0000
0000
0000
ENDCHAR

STARTCHAR U+ace9
ENCODING 44265
SWIDTH 500
DWIDTH 14 0
BBX 14 32 0 0
BITMAP
3FF0
3FF0
0030
0030
0030
0030
0030
0030
0330
0330
0300
0300
FFF0
FFF0
0000
0000
0000
0000
FFF0
FFF0
0C30
0C30
FC30
FC30
C030
C030
FC30
FC30
0000
0000
0000
0000
ENDCHAR

STARTCHAR U+acea
ENCODING 44266
SWIDTH 500
DWIDTH 14 0
BBX 14 32 0 0
BITMAP
3FF0
3FF0
0030
0030
0030
0030
0030
0030
0330
0330
0300
0300
FFF0
FFF0
0000
0000
0000
0000
FCFC
FCFC
0CCC
0CCC
FCCC
FCCC
C0CC
C0CC
FCFC
FCFC
0000
0000
0000
0000
ENDCHAR

STARTCHAR U+aceb
ENCODING 44267
SWIDTH 500
DWIDTH 14 0
BBX 14 32 0 0
BITMAP
3FF0
3FF0
0030
0030
0030
0030
0030
0030
0330
0330
0300
0300
FFF0
FFF0
0000
0000
0000
0000
FCCC
FCCC
0CCC
0CCC
FCFC
FCFC
C0CC
C0CC
FCFC
FCFC
0000
0000
0000
0000
ENDCHAR

STARTCHAR U+acec
ENCODING 44268
SWIDTH 500
DWIDTH 14 0
BBX 14 32 0 0
BITMAP
3FF0
3FF0
0030
0030
0030
0030
0030
0030
0330
0330
0300
0300
FFF0
FFF0
0000
0000
0000
0000
FC30
FC30
0C30
0C30
FC30
FC30
C0CC
C0CC
FF0C
FF0C
0000
0000
0000
0000
ENDCHAR

STARTCHAR U+aced
ENCODING 44269
SWIDTH 500
DWIDTH 14 0
BBX 14 32 0 0
BITMAP
3FF0
3FF0
0030
0030
0030
0030
0030
0030
0330
0330
0300
0300
FFF0
FFF0
0000
0000
0000
0000
FCFC
FCFC
0C00
0C00
FCFC
FCFC
C0C0
C0C0
FCFC
FCFC
0000
0000
0000
0000
ENDCHAR

STARTCHAR U+acee
ENCODING 44270
SWIDTH 500
DWIDTH 14 0
BBX 14 32 0 0
BITMAP
3FF0
3FF0
0030
0030
0030
0030
0030
0030
0330
0330
0300
0300
FFF0
FFF0
0000
0000
0000
0000
FFFC
FFFC
0F30
0F30
FF30
FF30
C330
C330
FFFC
FFFC
0000
0000
0000
0000
ENDCHAR

STARTCHAR U+acef
ENCODING 44271
SWIDTH 500
DWIDTH 14 0
BBX 14 32 0 0
BITMAP
3FF0
3FF0
0030
0030
0030
0030
0030
0030
0330
0330
0300
0300
FFF0
FFF0
0000
0000
0000
0000
FC30
FC30
0CFC
0CFC
FC30
FC30
C0CC
C0CC
FC30
FC30
0000
0000
0000
0000
ENDCHAR

STARTCHAR U+acf0
ENCODING 44272
SWIDTH 500
DWIDTH 14 0
BBX 14 32 0 0
BITMAP
3FF0
3FF0
0030
0030
0030
0030
0030
0030
0330
0330
0300
0300
FFF0
FFF0
0000
0000
3FF0
3FF0
3030
3030
3030
3030
3030
3030
3FF0
3FF0
0000
0000
0000
0000
0000
0000
ENDCHAR

STARTCHAR U+acf1
ENCODING 44273
SWIDTH 500
DWIDTH 14 0
BBX 14 32 0 0
BITMAP
3FF0
3FF0
0030
0030
0030
0030
0030
0030
0330
0330
0300
0300
FFF0
FFF0
0000
0000
3030
3030
3030
3030
3FF0
3FF0
3030
3030
3FF0
3FF0
0000
0000
0000
0000
0000
0000
ENDCHAR

STARTCHAR U+acf2
ENCODING 44274
SWIDTH 500
DWIDTH 14 0
BBX 14 32 0 0
BITMAP
3FF0
3FF0
0030
0030
0030
0030
0030
0030
0330
0330
0300
0300
FFF0
FFF0
0000
0000
0000
0000
CC30
CC30
CC30
CC30
FC30
FC30
CCCC
CCCC
FCCC
FCCC
0000
0000
0000
0000
ENDCHAR

STARTCHAR U+acf3
ENCODING 44275
SWIDTH 500
DWIDTH 14 0
BBX 14 32 0 0
BITMAP
3FF0
3FF0
0030
0030
0030
0030
0030
0030
0330
0330
0300
0300
FFF0
FFF0
0000
0000
0300
0300
0300
0300
0300
0300
0CC0
0CC0
3030
3030
0000
0000
0000
0000
0000
0000
ENDCHAR

STARTCHAR U+acf4
ENCODING 44276
SWIDTH 500
DWIDTH 14 0
BBX 14 32 0 0
BITMAP
3FF0
3FF0
0030
0030
0030
0030
0030
0030
0330
0330
0300
0300
FFF0
FFF0
0000
0000
0CC0
0CC0
0CC0
0CC0
3330
3330
C30C
C30C
0000
0000
0000
0000
0000
0000
0000
0000
ENDCHAR

STARTCHAR U+acf5
ENCODING 44277
SWIDTH 500
DWIDTH 14 0
BBX 14 32 0 0
BITMAP
3FF0
3FF0
0030
0030
0030
0030
0030
0030
0330
0330
0300
0300
FFF0
FFF0
0000
0000
0FC0
0FC0
3030
3030
3030
3030
3030
3030
0FC0
0FC0
0000
0000
0000
0000
0000
0000
ENDCHAR

STARTCHAR U+acf6
ENCODING 44278
SWIDTH 500
DWIDTH 14 0
BBX 14 32 0 0
BITMAP
3FF0
3FF0
0030
0030
0030
0030
0030
0030
0330
0330
0300
0300
FFF0
FFF0
0000
0000
3FF0
3FF0
0300
0300
0300
0300
0CC0
0CC0
3030
3030
0000
0000
0000
0000
0000
0000
ENDCHAR

STARTCHAR U+acf7
ENCODING 44279
SWIDTH 500
DWIDTH 14 0
BBX 14 32 0 0
BITMAP
3FF0
3FF0
0030
0030
0030
0030
0030
0030
0330
0330
0300
0300
FFF0
FFF0
0000
0000
0300
0300
3FF0
3FF0
0300
0300
0CC0
0CC0
3030
3030
0000
0000
0000
0000
0000
0000
ENDCHAR

STARTCHAR U+acf8
ENCODING 44280
SWIDTH 500
DWIDTH 14 0
BBX 14 32 0 0
BITMAP
3FF0
3FF0
0030
0030
0030
0030
0030
0030
0330
0330
0300
0300
FFF0
FFF0
0000
0000
3FF0
3FF0
0030
0030
3FF0
3FF0
0030
0030
00C0
00C0
0000
0000
0000
0000
0000
0000
ENDCHAR

STARTCHAR U+acf9
ENCODING 44281
SWIDTH 500
DWIDTH 14 0
BBX 14 32 0 0
BITMAP
3FF0
3FF0
0030
0030
0030
0030
0030
0030
0330
0330
0300
0300
FFF0
FFF0
0000
0000
3FF0
3FF0
0000
0000
3FF0
3FF0
3000
3000
3FF0
3FF0
0000
0000
0000
0000
0000
0000
ENDCHAR

STARTCHAR U+acfa
ENCODING 44282
SWIDTH 500
DWIDTH 14 0
BBX 14 32 0 0
BITMAP
3FF0
3FF0
0030
0030
0030
0030
0030
0030
0330
0330
0300
0300
FFF0
FFF0
0000
0000
3FF0
3FF0
0CC0
0CC0
0CC0
0CC0
0CC0
0CC0
3FF0
3FF0
0000
0000
0000
0000
0000
0000
ENDCHAR

STARTCHAR U+acfb
ENCODING 44283
SWIDTH 500
DWIDTH 14 0
BBX 14 32 0 0
BITMAP
3FF0
3FF0
0030
0030
0030
0030
0030
0030
0330
0330
0300
0300
FFF0
FFF0
0000
0000
0300
0300
3FF0
3FF0
0FC0
0FC0
3030
3030
0FC0
0FC0
0000
0000
0000
0000
0000
0000
ENDCHAR

STARTCHAR U+acfc
ENCODING 44284
SWIDTH 1000
DWIDTH 28 0
BBX 28 32 0 0
BITMAP
3FF0C000
3FF0C000
0030C000
0030C000
0030C000
0030C000
0030FF00
0030FF00
0030C000
0030C000
0000C000
0000C000
0000C000
0000C000
0000C000
0000C000
0300C000
0300C000
0300C000
0300C000
0300C000
0300C000
FFF0C000
FFF0C000
00000000
00000000
00000000
00000000
00000000
00000000
00000000
00000000
ENDCHAR

STARTCHAR U+acfd
ENCODING 44285
SWIDTH 1000
DWIDTH 28 0
BBX 28 32 0 0
BITMAP
3FF0C000
3FF0C000
0030C000
0030C000
0030C000
0030C000
0030FF00
0030FF00
0330C000
0330C000
0300C000
0300C000
FFF0C000
FFF0C000
0000C000
0000C000
3FF00000
3FF00000
00300000
00300000
00300000
00300000
00300000
00300000
00300000
00300000
00000000
00000000
00000000
00000000
00000000
00000000
ENDCHAR

STARTCHAR U+acfe
ENCODING 44286
SWIDTH 1000
DWIDTH 28 0
BBX 28 32 0 0
BITMAP
3FF0C000
3FF0C000
0030C000
0030C000
0030C000
0030C000
0030FF00
0030FF00
0330C000
0330C000
0300C000
0300C000
FFF0C000
FFF0C000
0000C000
0000C000
3FF00000
3FF00000
03300000
03300000
03300000
03300000
0CC00000
0CC00000
00000000
00000000
00000000
00000000
00000000
00000000
00000000
00000000
ENDCHAR

STARTCHAR U+acff
ENCODING 44287
SWIDTH 1000
DWIDTH 28 0
BBX 28 32 0 0
BITMAP
3FF0C000
3FF0C000
0030C000
0030C000
0030C000
0030C000
0030FF00
0030FF00
0330C000
0330C000
0300C000
0300C000
FFF0C000
FFF0C000
0000C000
0000C000
3FF00C00
3FF00C00
00300C00
00300C00
00300C00
00300C00
00303300
00303300
0030C0C0
0030C0C0
00000000
00000000
00000000
00000000
00000000
00000000
ENDCHAR

STARTCHAR U+ad00
ENCODING 44288
SWIDTH 1000
DWIDTH 28 0
BBX 28 32 0 0
BITMAP
3FF0C000
3FF0C000
0030C000
0030C000
0030C000
0030C000
0030FF00
0030FF00
0330C000
0330C000
0300C000
0300C000
FFF0C000
FFF0C000
0000C000
0000C000
30000000
30000000
30000000
30000000
30000000
30000000
30000000
30000000
3FF00000
3FF00000
00000000
00000000
00000000
00000000
00000000
00000000
ENDCHAR

STARTCHAR U+ad01
ENCODING 44289
SWIDTH 1000
DWIDTH 28 0
BBX 28 32 0 0
BITMAP
3FF0C000
3FF0C000
0030C000
0030C000
0030C000
0030C000
0030FF00
0030FF00
0330C000
0330C000
0300C000
0300C000
FFF0C000
FFF0C000
0000C000
0000C000
3000FFC0
3000FFC0
30000C00
30000C00
30000C00
30000C00
30003300
30003300
3FF0C0C0
3FF0C0C0
00000000
00000000
00000000
00000000
00000000
00000000
ENDCHAR

STARTCHAR U+ad02
ENCODING 44290
SWIDTH 1000
DWIDTH 28 0
BBX 28 32 0 0
BITMAP
3FF0C000
3FF0C000
0030C000
0030C000
0030C000
0030C000
0030FF00
0030FF00
0330C000
0330C000
0300C000
0300C000
FFF0C000
FFF0C000
0000C000
0000C000
30000C00
30000C00
3000FFC0
3000FFC0
30003F00
30003F00
3000C0C0
3000C0C0
3FF03F00
3FF03F00
00000000
00000000
00000000
00000000
00000000
00000000
ENDCHAR

STARTCHAR U+ad03
ENCODING 44291
SWIDTH 1000
DWIDTH 28 0
BBX 28 32 0 0
BITMAP
3FF0C000
3FF0C000
0030C000
0030C000
0030C000
0030C000
0030FF00
0030FF00
0330C000
0330C000
0300C000
0300C000
FFF0C000
FFF0C000
0000C000
0000C000
3FF00000
3FF00000
30000000
30000000
30000000
30000000
30000000
30000000
3FF00000
3FF00000
00000000
00000000
00000000
00000000
00000000
00000000
ENDCHAR

STARTCHAR U+ad04
ENCODING 44292
SWIDTH 1000
DWIDTH 28 0
BBX 28 32 0 0
BITMAP
3FF0C000
3FF0C000
0030C000
0030C000
0030C000
0030C000
0030FF00
0030FF00
0330C000
0330C000
0300C000
0300C000
FFF0C000
FFF0C000
0000C000
0000C000
3FF00000
3FF00000
00300000
00300000
3FF00000
3FF00000
30000000
30000000
3FF00000
3FF00000
00000000
00000000
00000000
00000000
00000000
00000000
ENDCHAR

STARTCHAR U+ad05
ENCODING 44293
SWIDTH 1000
DWIDTH 28 0
BBX 28 32 0 0
BITMAP
3FF0C000
3FF0C000
0030C000
0030C000
0030C000
0030C000
0030FF00
0030FF00
0330C000
0330C000
0300C000
0300C000
FFF0C000
FFF0C000
0000C000
0000C000
3FF0FFC0
3FF0FFC0
003000C0
003000C0
3FF000C0
3FF000C0
300000C0
300000C0
3FF000C0
3FF000C0
00000000
00000000
00000000
00000000
00000000
00000000
ENDCHAR

STARTCHAR U+ad06
ENCODING 44294
SWIDTH 1000
DWIDTH 28 0
BBX 28 32 0 0
BITMAP
3FF0C000
3FF0C000
0030C000
0030C000
0030C000
0030C000
0030FF00
0030FF00
0330C000
0330C000
0300C000
0300C000
FFF0C000
FFF0C000
0000C000
0000C000
3FF0FFC0
3FF0FFC0
0030C0C0
0030C0C0
3FF0C0C0
3FF0C0C0
3000C0C0
3000C0C0
3FF0FFC0
3FF0FFC0
00000000
00000000
00000000
00000000
00000000
00000000
ENDCHAR

STARTCHAR U+ad07
ENCODING 44295
SWIDTH 1000
DWIDTH 28 0
BBX 28 32 0 0
BITMAP
3FF0C000
3FF0C000
0030C000
0030C000
0030C000
0030C000
0030FF00
0030FF00
0330C000
0330C000
0300C000
0300C000
FFF0C000
FFF0C000
0000C000
0000C000
3FF0C0C0
3FF0C0C0
0030C0C0
0030C0C0
3FF0FFC0
3FF0FFC0
3000C0C0
3000C0C0
3FF0FFC0
3FF0FFC0
00000000
00000000
00000000
00000000
00000000
00000000
ENDCHAR

STARTCHAR U+ad08
ENCODING 44296
SWIDTH 1000
DWIDTH 28 0
BBX 28 32 0 0
BITMAP
3FF0C000
3FF0C000
0030C000
0030C000
0030C000
0030C000
0030FF00
0030FF00
0330C000
0330C000
0300C000
0300C000
FFF0C000
FFF0C000
0000C000
0000C000
3FF00C00
3FF00C00
00300C00
00300C00
3FF00C00
3FF00C00
30003300
30003300
3FF0C0C0
3FF0C0C0
00000000
00000000
00000000
00000000
00000000
00000000
ENDCHAR

STARTCHAR U+ad09
ENCODING 44297
SWIDTH 1000
DWIDTH 28 0
BBX 28 32 0 0
BITMAP
3FF0C000
3FF0C000
0030C000
0030C000
0030C000
0030C000
0030FF00
0030FF00
0330C000
0330C000
0300C000
0300C000
FFF0C000
FFF0C000
0000C000
0000C000
3FF0FFC0
3FF0FFC0
00300000
00300000
3FF0FFC0
3FF0FFC0
3000C000
3000C000
3FF0FFC0
3FF0FFC0
00000000
00000000
00000000
00000000
00000000
00000000
ENDCHAR

STARTCHAR U+ad0a
ENCODING 44298
SWIDTH 1000
DWIDTH 28 0
BBX 28 32 0 0
BITMAP
3FF0C000
3FF0C000
0030C000
0030C000
0030C000
0030C000
0030FF00
0030FF00
0330C000
0330C000
0300C000
0300C000
FFF0C000
FFF0C000
0000C000
0000C000
3FF0FFC0
3FF0FFC0
00303300
00303300
3FF03300
3FF03300
30003300
30003300
3FF0FFC0
3FF0FFC0
00000000
00000000
00000000
00000000
00000000
00000000
ENDCHAR

STARTCHAR U+ad0b
ENCODING 44299
SWIDTH 1000
DWIDTH 28 0
BBX 28 32 0 0
BITMAP
3FF0C000
3FF0C000
0030C000
0030C000
0030C000
0030C000
0030FF00
0030FF00
0330C000
0330C000
0300C000
0300C000
FFF0C000
FFF0C000
0000C000
0000C000
3FF00C00
3FF00C00
0030FFC0
0030FFC0
3FF03F00
3FF03F00
3000C0C0
3000C0C0
3FF03F00
3FF03F00
00000000
00000000
00000000
00000000
00000000
00000000
ENDCHAR

STARTCHAR U+ad0c
ENCODING 44300
SWIDTH 1000
DWIDTH 28 0
BBX 28 32 0 0
BITMAP
3FF0C000
3FF0C000
0030C000
0030C000
0030C000
0030C000
0030FF00
0030FF00
0330C000
0330C000
0300C000
0300C000
FFF0C000
FFF0C000
0000C000
0000C000
3FF00000
3FF00000
30300000
30300000
30300000
30300000
30300000
30300000
3FF00000
3FF00000
00000000
00000000
00000000
00000000
00000000
00000000
ENDCHAR

STARTCHAR U+ad0d
ENCODING 44301
SWIDTH 1000
DWIDTH 28 0
BBX 28 32 0 0
BITMAP
3FF0C000
3FF0C000
0030C000
0030C000
0030C000
0030C000
0030FF00
0030FF00
0330C000
0330C000
0300C000
0300C000
FFF0C000
FFF0C000
0000C000
0000C000
30300000
30300000
30300000
30300000
3FF00000
3FF00000
30300000
30300000
3FF00000
3FF00000
00000000
00000000
00000000
00000000
00000000
00000000
ENDCHAR

STARTCHAR U+ad0e
ENCODING 44302
SWIDTH 1000
DWIDTH 28 0
BBX 28 32 0 0
BITMAP
3FF0C000
3FF0C000
0030C000
0030C000
0030C000
0030C000
0030FF00
0030FF00
0330C000
0330C000
0300C000
0300C000
FFF0C000
FFF0C000
0000C000
0000C000
30300C00
30300C00
30300C00
30300C00
3FF00C00
3FF00C00
30303300
30303300
3FF0C0C0
3FF0C0C0
00000000
00000000
00000000
00000000
00000000
00000000
ENDCHAR

STARTCHAR U+ad0f
ENCODING 44303
SWIDTH 1000
DWIDTH 28 0
BBX 28 32 0 0
BITMAP
3FF0C000
3FF0C000
0030C000
0030C000
0030C000
0030C000
0030FF00
0030FF00
0330C000
0330C000
0300C000
0300C000
FFF0C000
FFF0C000
0000C000
0000C000
03000000
03000000
03000000
03000000
03000000
03000000
0CC00000
0CC00000
30300000
30300000
00000000
00000000
00000000
00000000
00000000
00000000
ENDCHAR

STARTCHAR U+ad10
ENCODING 44304
SWIDTH 1000
DWIDTH 28 0
BBX 28 32 0 0
BITMAP
3FF0C000
3FF0C000
0030C000
0030C000
0030C000
0030C000
0030FF00
0030FF00
0330C000
0330C000
0300C000
0300C000
FFF0C000
FFF0C000
0000C000
0000C000
0CC00000
0CC00000
0CC00000
0CC00000
33300000
33300000
C30C0000
C30C0000
00000000
00000000
00000000
00000000
00000000
00000000
00000000
00000000
ENDCHAR

STARTCHAR U+ad11
ENCODING 44305
SWIDTH 1000
DWIDTH 28 0
BBX 28 32 0 0
BITMAP
3FF0C000
3FF0C000
0030C000
0030C000
0030C000
0030C000
0030FF00
0030FF00
0330C000
0330C000
0300C000
0300C000
FFF0C000
FFF0C000
0000C000
0000C000
0FC00000
0FC00000
30300000
30300000
30300000
30300000
30300000
30300000
0FC00000
0FC00000
00000000
00000000
00000000
00000000
00000000
00000000
ENDCHAR

STARTCHAR U+ad12
ENCODING 44306
SWIDTH 1000
DWIDTH 28 0
BBX 28 32 0 0
BITMAP
3FF0C000
3FF0C000
0030C000
0030C000
0030C000
0030C000
0030FF00
0030FF00
0330C000
0330C000
0300C000
0300C000
FFF0C000
FFF0C000
0000C000
0000C000
3FF00000
3FF00000
03000000
03000000
03000000
03000000
0CC00000
0CC00000
30300000
30300000
00000000
00000000
00000000
00000000
00000000
00000000
ENDCHAR

STARTCHAR U+ad13
ENCODING 44307
SWIDTH 1000
DWIDTH 28 0
BBX 28 32 0 0
BITMAP
3FF0C000
3FF0C000
0030C000
0030C000
0030C000
0030C000
0030FF00
0030FF00
0330C000
0330C000
0300C000
0300C000
FFF0C000
FFF0C000
0000C000
0000C000
03000000
03000000
3FF00000
3FF00000
03000000
03000000
0CC00000
0CC00000
30300000
30300000
00000000
00000000
00000000
00000000
00000000
00000000
ENDCHAR

STARTCHAR U+ad14
ENCODING 44308
SWIDTH 1000
DWIDTH 28 0
BBX 28 32 0 0
BITMAP
3FF0C000
3FF0C000
0030C000
0030C000
0030C000
0030C000
0030FF00
0030FF00
0330C000
0330C000
0300C000
0300C000
FFF0C000
FFF0C000
0000C000
0000C000
3FF00000
3FF00000
00300000
00300000
3FF00000
3FF00000
00300000
00300000
00C00000
00C00000
00000000
00000000
00000000
00000000
00000000
00000000
ENDCHAR

STARTCHAR U+ad15
ENCODING 44309
SWIDTH 1000
DWIDTH 28 0
BBX 28 32 0 0
BITMAP
3FF0C000
3FF0C000
0030C000
0030C000
0030C000
0030C000
0030FF00
0030FF00
0330C000
0330C000
0300C000
0300C000
FFF0C000
FFF0C000
0000C000
0000C000
3FF00000
3FF00000
00000000
00000000
3FF00000
3FF00000
30000000
30000000
3FF00000
3FF00000
00000000
00000000
00000000
00000000
00000000
00000000
ENDCHAR

STARTCHAR U+ad16
ENCODING 44310
SWIDTH 1000
DWIDTH 28 0
BBX 28 32 0 0
BITMAP
3FF0C000
3FF0C000
0030C000
0030C000
0030C000
0030C000
0030FF00
0030FF00
0330C000
0330C000
0300C000
0300C000
FFF0C000
FFF0C000
0000C000
0000C000
3FF00000
3FF00000
0CC00000
0CC00000
0CC00000
0CC00000
0CC00000
0CC00000
3FF00000
3FF00000
00000000
00000000
00000000
00000000
00000000
00000000
ENDCHAR

STARTCHAR U+ad17
ENCODING 44311
SWIDTH 1000
DWIDTH 28 0
BBX 28 32 0 0
BITMAP
3FF0C000
3FF0C000
0030C000
0030C000
0030C000
0030C000
0030FF00
0030FF00
0330C000
0330C000
0300C000
0300C000
FFF0C000
FFF0C000
0000C000
0000C000
03000000
03000000
3FF00000
3FF00000
0FC00000
0FC00000
30300000
30300000
0FC00000
0FC00000
00000000
00000000
00000000
00000000
00000000
00000000
ENDCHAR

STARTCHAR U+ad18
ENCODING 44312
SWIDTH 1000
DWIDTH 28 0
BBX 28 32 0 0
BITMAP
3FF0CC00
3FF0CC00
0030CC00
0030CC00
0030CC00
0030CC00
0030FC00
0030FC00
0030CC00
0030CC00
0000CC00
0000CC00
0000CC00
0000CC00
0000CC00
0000CC00
0300CC00
0300CC00
0300CC00
0300CC00
0300CC00
0300CC00
FFF0CC00
FFF0CC00
00000000
00000000
00000000
00000000
00000000
00000000
00000000
00000000
ENDCHAR

STARTCHAR U+ad19
ENCODING 44313
SWIDTH 1000
DWIDTH 28 0
BBX 28 32 0 0
BITMAP
3FF0CC00
3FF0CC00
0030CC00
0030CC00
0030CC00
0030CC00
0030FC00
0030FC00
0330CC00
0330CC00
0300CC00
0300CC00
FFF0CC00
FFF0CC00
0000CC00
0000CC00
3FF00000
3FF00000
00300000
00300000
00300000
00300000
00300000
00300000
00300000
00300000
00000000
00000000
00000000
00000000
00000000
00000000
ENDCHAR

STARTCHAR U+ad1a
ENCODING 44314
SWIDTH 1000
DWIDTH 28 0
BBX 28 32 0 0
BITMAP
3FF0CC00
3FF0CC00
0030CC00
0030CC00
0030CC00
0030CC00
0030FC00
0030FC00
0330CC00
0330CC00
0300CC00
0300CC00
FFF0CC00
FFF0CC00
0000CC00
0000CC00
3FF00000
3FF00000
03300000
03300000
03300000
03300000
0CC00000
0CC00000
00000000
00000000
00000000
00000000
00000000
00000000
00000000
00000000
ENDCHAR

STARTCHAR U+ad1b
ENCODING 44315
SWIDTH 1000
DWIDTH 28 0
BBX 28 32 0 0
BITMAP
3FF0CC00
3FF0CC00
0030CC00
0030CC00
0030CC00
0030CC00
0030FC00
0030FC00
0330CC00
0330CC00
0300CC00
0300CC00
FFF0CC00
FFF0CC00
0000CC00
0000CC00
3FF00C00
3FF00C00
00300C00
00300C00
00300C00
00300C00
00303300
00303300
0030C0C0
0030C0C0
00000000
00000000
00000000
00000000
00000000
00000000
ENDCHAR

STARTCHAR U+ad1c
ENCODING 44316
SWIDTH 1000
DWIDTH 28 0
BBX 28 32 0 0
BITMAP
3FF0CC00
3FF0CC00
0030CC00
0030CC00
0030CC00
0030CC00
0030FC00
0030FC00
0330CC00
0330CC00
0300CC00
0300CC00
FFF0CC00
FFF0CC00
0000CC00
0000CC00
30000000
30000000
30000000
30000000
30000000
30000000
30000000
30000000
3FF00000
3FF00000
00000000
00000000
00000000
00000000
00000000
00000000
ENDCHAR

STARTCHAR U+ad1d
ENCODING 44317
SWIDTH 1000
DWIDTH 28 0
BBX 28 32 0 0
BITMAP
3FF0CC00
3FF0CC00
0030CC00
0030CC00
0030CC00
0030CC00
0030FC00
0030FC00
0330CC00
0330CC00
0300CC00
0300CC00
FFF0CC00
FFF0CC00
0000CC00
0000CC00
3000FFC0
3000FFC0
30000C00
30000C00
30000C00
30000C00
30003300
30003300
3FF0C0C0
3FF0C0C0
00000000
00000000
00000000
00000000
00000000
00000000
ENDCHAR

STARTCHAR U+ad1e
ENCODING 44318
SWIDTH 1000
DWIDTH 28 0
BBX 28 32 0 0
BITMAP
3FF0CC00
3FF0CC00
0030CC00
0030CC00
0030CC00
0030CC00
0030FC00
0030FC00
0330CC00
0330CC00
0300CC00
0300CC00
FFF0CC00
FFF0CC00
0000CC00
0000CC00
30000C00
30000C00
3000FFC0
3000FFC0
30003F00
30003F00
3000C0C0
3000C0C0
3FF03F00
3FF03F00
00000000
00000000
00000000
00000000
00000000
00000000
ENDCHAR

STARTCHAR U+ad1f
ENCODING 44319
SWIDTH 1000
DWIDTH 28 0
BBX 28 32 0 0
BITMAP
3FF0CC00
3FF0CC00
0030CC00
0030CC00
0030CC00
0030CC00
0030FC00
0030FC00
0330CC00
0330CC00
0300CC00
0300CC00
FFF0CC00
FFF0CC00
0000CC00
0000CC00
3FF00000
3FF00000
30000000
30000000
30000000
30000000
30000000
30000000
3FF00000
3FF00000
00000000
00000000
00000000
00000000
00000000
00000000
ENDCHAR

STARTCHAR U+ad20
ENCODING 44320
SWIDTH 1000
DWIDTH 28 0
BBX 28 32 0 0
BITMAP
3FF0CC00
3FF0CC00
0030CC00
0030CC00
0030CC00
0030CC00
0030FC00
0030FC00
0330CC00
0330CC00
0300CC00
0300CC00
FFF0CC00
FFF0CC00
0000CC00
0000CC00
3FF00000
3FF00000
00300000
00300000
3FF00000
3FF00000
30000000
30000000
3FF00000
3FF00000
00000000
00000000
00000000
00000000
00000000
00000000
ENDCHAR

STARTCHAR U+ad21
ENCODING 44321
SWIDTH 1000
DWIDTH 28 0
BBX 28 32 0 0
BITMAP
3FF0CC00
3FF0CC00
0030CC00
0030CC00
0030CC00
0030CC00
0030FC00
0030FC00
0330CC00
0330CC00
0300CC00
0300CC00
FFF0CC00
FFF0CC00
0000CC00
0000CC00
3FF0FFC0
3FF0FFC0
003000C0
003000C0
3FF000C0
3FF000C0
300000C0
300000C0
3FF000C0
3FF000C0
00000000
00000000
00000000
00000000
00000000
00000000
ENDCHAR

STARTCHAR U+ad22
ENCODING 44322
SWIDTH 1000
DWIDTH 28 0
BBX 28 32 0 0
BITMAP
3FF0CC00
3FF0CC00
0030CC00
0030CC00
0030CC00
0030CC00
0030FC00
0030FC00
0330CC00
0330CC00
0300CC00
0300CC00
FFF0CC00
FFF0CC00
0000CC00
0000CC00
3FF0FFC0
3FF0FFC0
0030C0C0
0030C0C0
3FF0C0C0
3FF0C0C0
3000C0C0
3000C0C0
3FF0FFC0
3FF0FFC0
00000000
00000000
00000000
00000000
00000000
00000000
ENDCHAR

STARTCHAR U+ad23
ENCODING 44323
SWIDTH 1000
DWIDTH 28 0
BBX 28 32 0 0
BITMAP
3FF0CC00
3FF0CC00
0030CC00
0030CC00
0030CC00
0030CC00
0030FC00
0030FC00
0330CC00
0330CC00
0300CC00
0300CC00
FFF0CC00
FFF0CC00
0000CC00
0000CC00
3FF0C0C0
3FF0C0C0
0030C0C0
0030C0C0
3FF0FFC0
3FF0FFC0
3000C0C0
3000C0C0
3FF0FFC0
3FF0FFC0
00000000
00000000
00000000
00000000
00000000
00000000
ENDCHAR

STARTCHAR U+ad24
ENCODING 44324
SWIDTH 1000
DWIDTH 28 0
BBX 28 32 0 0
BITMAP
3FF0CC00
3FF0CC00
0030CC00
0030CC00
0030CC00
0030CC00
0030FC00
0030FC00
0330CC00
0330CC00
0300CC00
0300CC00
FFF0CC00
FFF0CC00
0000CC00
0000CC00
3FF00C00
3FF00C00
00300C00
00300C00
3FF00C00
3FF00C00
30003300
30003300
3FF0C0C0
3FF0C0C0
00000000
00000000
00000000
00000000
00000000
00000000
ENDCHAR

STARTCHAR U+ad25
ENCODING 44325
SWIDTH 1000
DWIDTH 28 0
BBX 28 32 0 0
BITMAP
3FF0CC00
3FF0CC00
0030CC00
0030CC00
0030CC00
0030CC00
0030FC00
0030FC00
0330CC00
0330CC00
0300CC00
0300CC00
FFF0CC00
FFF0CC00
0000CC00
0000CC00
3FF0FFC0
3FF0FFC0
00300000
00300000
3FF0FFC0
3FF0FFC0
3000C000
3000C000
3FF0FFC0
3FF0FFC0
00000000
00000000
00000000
00000000
00000000
00000000
ENDCHAR

STARTCHAR U+ad26
ENCODING 44326
SWIDTH 1000
DWIDTH 28 0
BBX 28 32 0 0
BITMAP
3FF0CC00
3FF0CC00
0030CC00
0030CC00
0030CC00
0030CC00
0030FC00
0030FC00
0330CC00
0330CC00
0300CC00
0300CC00
FFF0CC00
FFF0CC00
0000CC00
0000CC00
3FF0FFC0
3FF0FFC0
00303300
00303300
3FF03300
3FF03300
30003300
30003300
3FF0FFC0
3FF0FFC0
00000000
00000000
00000000
00000000
00000000
00000000
ENDCHAR

STARTCHAR U+ad27
ENCODING 44327
SWIDTH 1000
DWIDTH 28 0
BBX 28 32 0 0
BITMAP
3FF0CC00
3FF0CC00
0030CC00
0030CC00
0030CC00
0030CC00
0030FC00
0030FC00
0330CC00
0330CC00
0300CC00
0300CC00
FFF0CC00
FFF0CC00
0000CC00
0000CC00
3FF00C00
3FF00C00
0030FFC0
0030FFC0
3FF03F00
3FF03F00
3000C0C0
3000C0C0
3FF03F00
3FF03F00
00000000
00000000
00000000
00000000
00000000
00000000
ENDCHAR

STARTCHAR U+ad28
ENCODING 44328
SWIDTH 1000
DWIDTH 28 0
BBX 28 32 0 0
BITMAP
3FF0CC00
3FF0CC00
0030CC00
0030CC00
0030CC00
0030CC00
0030FC00
0030FC00
0330CC00
0330CC00
0300CC00
0300CC00
FFF0CC00
FFF0CC00
0000CC00
0000CC00
3FF00000
3FF00000
30300000
30300000
30300000
30300000
30300000
30300000
3FF00000
3FF00000
00000000
00000000
00000000
00000000
00000000
00000000
ENDCHAR

STARTCHAR U+ad29
ENCODING 44329
SWIDTH 1000
DWIDTH 28 0
BBX 28 32 0 0
BITMAP
3FF0CC00
3FF0CC00
0030CC00
0030CC00
0030CC00
0030CC00
0030FC00
0030FC00
0330CC00
0330CC00
0300CC00
0300CC00
FFF0CC00
FFF0CC00
0000CC00
0000CC00
30300000
30300000
30300000
30300000
3FF00000
3FF00000
30300000
30300000
3FF00000
3FF00000
00000000
00000000
00000000
00000000
00000000
00000000
ENDCHAR

STARTCHAR U+ad2a
ENCODING 44330
SWIDTH 1000
DWIDTH 28 0
BBX 28 32 0 0
BITMAP
3FF0CC00
3FF0CC00
0030CC00
0030CC00
0030CC00
0030CC00
0030FC00
0030FC00
0330CC00
0330CC00
0300CC00
0300CC00
FFF0CC00
FFF0CC00
0000CC00
0000CC00
30300C00
30300C00
30300C00
30300C00
3FF00C00
3FF00C00
30303300
30303300
3FF0C0C0
3FF0C0C0
00000000
00000000
00000000
00000000
00000000
00000000
ENDCHAR

STARTCHAR U+ad2b
ENCODING 44331
SWIDTH 1000
DWIDTH 28 0
BBX 28 32 0 0
BITMAP
3FF0CC00
3FF0CC00
0030CC00
0030CC00
0030CC00
0030CC00
0030FC00
0030FC00
0330CC00
0330CC00
0300CC00
0300CC00
FFF0CC00
FFF0CC00
0000CC00
0000CC00
03000000
03000000
03000000
03000000
03000000
03000000
0CC00000
0CC00000
30300000
30300000
00000000
00000000
00000000
00000000
00000000
00000000
ENDCHAR

STARTCHAR U+ad2c
ENCODING 44332
SWIDTH 1000
DWIDTH 28 0
BBX 28 32 0 0
BITMAP
3FF0CC00
3FF0CC00
0030CC00
0030CC00
0030CC00
0030CC00
0030FC00
0030FC00
0330CC00
0330CC00
0300CC00
0300CC00
FFF0CC00
FFF0CC00
0000CC00
0000CC00
0CC00000
0CC00000
0CC00000
0CC00000
33300000
33300000
C30C0000
C30C0000
00000000
00000000
00000000
00000000
00000000
00000000
00000000
00000000
ENDCHAR

STARTCHAR U+ad2d
ENCODING 44333
SWIDTH 1000
DWIDTH 28 0
BBX 28 32 0 0
BITMAP
3FF0CC00
3FF0CC00
0030CC00
0030CC00
0030CC00
0030CC00
0030FC00
0030FC00
0330CC00
0330CC00
0300CC00
0300CC00
FFF0CC00
FFF0CC00
0000CC00
0000CC00
0FC00000
0FC00000
30300000
30300000
30300000
30300000
30300000
30300000
0FC00000
0FC00000
00000000
00000000
00000000
00000000
00000000
00000000
ENDCHAR

STARTCHAR U+ad2e
ENCODING 44334
SWIDTH 1000
DWIDTH 28 0
BBX 28 32 0 0
BITMAP
3FF0CC00
3FF0CC00
0030CC00
0030CC00
0030CC00
0030CC00
0030FC00
0030FC00
0330CC00
0330CC00
0300CC00
0300CC00
FFF0CC00
FFF0CC00
0000CC00
0000CC00
3FF00000
3FF00000
03000000
03000000
03000000
03000000
0CC00000
0CC00000
30300000
30300000
00000000
00000000
00000000
00000000
00000000
00000000
ENDCHAR

STARTCHAR U+ad2f
ENCODING 44335
SWIDTH 1000
DWIDTH 28 0
BBX 28 32 0 0
BITMAP
3FF0CC00
3FF0CC00
0030CC00
0030CC00
0030CC00
0030CC00
0030FC00
0030FC00
0330CC00
0330CC00
0300CC00
0300CC00
FFF0CC00
FFF0CC00
0000CC00
0000CC00
03000000
03000000
3FF00000
3FF00000
03000000
03000000
0CC00000
0CC00000
30300000
30300000
00000000
00000000
00000000
00000000
00000000
00000000
ENDCHAR

STARTCHAR U+ad30
ENCODING 44336
SWIDTH 1000
DWIDTH 28 0
BBX 28 32 0 0
BITMAP
3FF0CC00
3FF0CC00
0030CC00
0030CC00
0030CC00
0030CC00
0030FC00
0030FC00
0330CC00
0330CC00
0300CC00
0300CC00
FFF0CC00
FFF0CC00
0000CC00
0000CC00
3FF00000
3FF00000
00300000
00300000
3FF00000
3FF00000
00300000
00300000
00C00000
00C00000
00000000
00000000
00000000
00000000
00000000
00000000
ENDCHAR

STARTCHAR U+ad31
ENCODING 44337
SWIDTH 1000
DWIDTH 28 0
BBX 28 32 0 0
BITMAP
3FF0CC00
3FF0CC00
0030CC00
0030CC00
0030CC00
0030CC00
0030FC00
0030FC00
0330CC00
0330CC00
0300CC00
0300CC00
FFF0CC00
FFF0CC00
0000CC00
0000CC00
3FF00000
3FF00000
00000000
00000000
3FF00000
3FF00000
30000000
30000000
3FF00000
3FF00000
00000000
00000000
00000000
00000000
00000000
00000000
ENDCHAR

STARTCHAR U+ad32
ENCODING 44338
SWIDTH 1000
DWIDTH 28 0
BBX 28 32 0 0
BITMAP
3FF0CC00
3FF0CC00
0030CC00
0030CC00
0030CC00
0030CC00
0030FC00
0030FC00
0330CC00
0330CC00
0300CC00
0300CC00
FFF0CC00
FFF0CC00
0000CC00
0000CC00
3FF00000
3FF00000
0CC00000
0CC00000
0CC00000
0CC00000
0CC00000
0CC00000
3FF00000
3FF00000
00000000
00000000
00000000
00000000
00000000
00000000
ENDCHAR

STARTCHAR U+ad33
ENCODING 44339
SWIDTH 1000
DWIDTH 28 0
BBX 28 32 0 0
BITMAP
3FF0CC00
3FF0CC00
0030CC00
0030CC00
0030CC00
0030CC00
0030FC00
0030FC00
0330CC00
0330CC00
0300CC00
0300CC00
FFF0CC00
FFF0CC00
0000CC00
0000CC00
03000000
03000000
3FF00000
3FF00000
0FC00000
0FC00000
30300000
30300000
0FC00000
0FC00000
00000000
00000000
00000000
00000000
00000000
00000000
ENDCHAR

STARTCHAR U+ad34
ENCODING 44340
SWIDTH 1000
DWIDTH 28 0
BBX 28 32 0 0
BITMAP
3FF03000
3FF03000
00303000
00303000
00303000
00303000
00303000
00303000
00303000
00303000
00003000
00003000
00003000
00003000
00003000
00003000
03003000
03003000
03003000
03003000
03003000
03003000
FFF03000
FFF03000
00000000
00000000
00000000
00000000
00000000
00000000
00000000
00000000
ENDCHAR

STARTCHAR U+ad35
ENCODING 44341
SWIDTH 1000
DWIDTH 28 0
BBX 28 32 0 0
BITMAP
3FF03000
3FF03000
00303000
00303000
00303000
00303000
00303000
00303000
03303000
03303000
03003000
03003000
FFF03000
FFF03000
00003000
00003000
3FF00000
3FF00000
00300000
00300000
00300000
00300000
00300000
00300000
00300000
00300000
00000000
00000000
00000000
00000000
00000000
00000000
ENDCHAR

STARTCHAR U+ad36
ENCODING 44342
SWIDTH 1000
DWIDTH 28 0
BBX 28 32 0 0
BITMAP
3FF03000
3FF03000
00303000
00303000
00303000
00303000
00303000
00303000
03303000
03303000
03003000
03003000
FFF03000
FFF03000
00003000
00003000
3FF00000
3FF00000
03300000
03300000
03300000
03300000
0CC00000
0CC00000
00000000
00000000
00000000
00000000
00000000
00000000
00000000
00000000
ENDCHAR

STARTCHAR U+ad37
ENCODING 44343
SWIDTH 1000
DWIDTH 28 0
BBX 28 32 0 0
BITMAP
3FF03000
3FF03000
00303000
00303000
00303000
00303000
00303000
00303000
03303000
03303000
03003000
03003000
FFF03000
FFF03000
00003000
00003000
3FF00C00
3FF00C00
00300C00
00300C00
00300C00
00300C00
00303300
00303300
0030C0C0
0030C0C0
00000000
00000000
00000000
00000000
00000000
00000000
ENDCHAR

STARTCHAR U+ad38
ENCODING 44344
SWIDTH 1000
DWIDTH 28 0
BBX 28 32 0 0
BITMAP
3FF03000
3FF03000
00303000
00303000
00303000
00303000
00303000
00303000
03303000
03303000
03003000
03003000
FFF03000
FFF03000
00003000
00003000
30000000
30000000
30000000
30000000
30000000
30000000
30000000
30000000
3FF00000
3FF00000
00000000
00000000
00000000
00000000
00000000
00000000
ENDCHAR

STARTCHAR U+ad39
ENCODING 44345
SWIDTH 1000
DWIDTH 28 0
BBX 28 32 0 0
BITMAP
3FF03000
3FF03000
00303000
00303000
00303000
00303000
00303000
00303000
03303000
03303000
03003000
03003000
FFF03000
FFF03000
00003000
00003000
3000FFC0
3000FFC0
30000C00
30000C00
30000C00
30000C00
30003300
30003300
3FF0C0C0
3FF0C0C0
00000000
00000000
00000000
00000000
00000000
00000000
ENDCHAR

STARTCHAR U+ad3a
ENCODING 44346
SWIDTH 1000
DWIDTH 28 0
BBX 28 32 0 0
BITMAP
3FF03000
3FF03000
00303000
00303000
00303000
00303000
00303000
00303000
03303000
03303000
03003000
03003000
FFF03000
FFF03000
00003000
00003000
30000C00
30000C00
3000FFC0
3000FFC0
30003F00
30003F00
3000C0C0
3000C0C0
3FF03F00
3FF03F00
00000000
00000000
00000000
00000000
00000000
00000000
ENDCHAR

STARTCHAR U+ad3b
ENCODING 44347
SWIDTH 1000
DWIDTH 28 0
BBX 28 32 0 0
BITMAP
3FF03000
3FF03000
00303000
00303000
00303000
00303000
00303000
00303000
03303000
03303000
03003000
03003000
FFF03000
FFF03000
00003000
00003000
3FF00000
3FF00000
30000000
30000000
30000000
30000000
30000000
30000000
3FF00000
3FF00000
00000000
00000000
00000000
00000000
00000000
00000000
ENDCHAR

STARTCHAR U+ad3c
ENCODING 44348
SWIDTH 1000
DWIDTH 28 0
BBX 28 32 0 0
BITMAP
3FF03000
3FF03000
00303000
00303000
00303000
00303000
00303000
00303000
03303000
03303000
03003000
03003000
FFF03000
FFF03000
00003000
00003000
3FF00000
3FF00000
00300000
00300000
3FF00000
3FF00000
30000000
30000000
3FF00000
3FF00000
00000000
00000000
00000000
00000000
00000000
00000000
ENDCHAR

STARTCHAR U+ad3d
ENCODING 44349
SWIDTH 1000
DWIDTH 28 0
BBX 28 32 0 0
BITMAP
3FF03000
3FF03000
00303000
00303000
00303000
00303000
00303000
00303000
03303000
03303000
03003000
03003000
FFF03000
FFF03000
00003000
00003000
3FF0FFC0
3FF0FFC0
003000C0
003000C0
3FF000C0
3FF000C0
300000C0
300000C0
3FF000C0
3FF000C0
00000000
00000000
00000000
00000000
00000000
00000000
ENDCHAR

STARTCHAR U+ad3e
ENCODING 44350
SWIDTH 1000
DWIDTH 28 0
BBX 28 32 0 0
BITMAP
3FF03000
3FF03000
00303000
00303000
00303000
00303000
00303000
00303000
03303000
03303000
03003000
03003000
FFF03000
FFF03000
00003000
00003000
3FF0FFC0
3FF0FFC0
0030C0C0
0030C0C0
3FF0C0C0
3FF0C0C0
3000C0C0
3000C0C0
3FF0FFC0
3FF0FFC0
00000000
00000000
00000000
00000000
00000000
00000000
ENDCHAR

STARTCHAR U+ad3f
ENCODING 44351
SWIDTH 1000
DWIDTH 28 0
BBX 28 32 0 0
BITMAP
3FF03000
3FF03000
00303000
00303000
00303000
00303000
00303000
00303000
03303000
03303000
03003000
03003000
FFF03000
FFF03000
00003000
00003000
3FF0C0C0
3FF0C0C0
0030C0C0
0030C0C0
3FF0FFC0
3FF0FFC0
3000C0C0
3000C0C0
3FF0FFC0
3FF0FFC0
00000000
00000000
00000000
00000000
00000000
00000000
ENDCHAR

STARTCHAR U+ad40
ENCODING 44352
SWIDTH 1000
DWIDTH 28 0
BBX 28 32 0 0
BITMAP
3FF03000
3FF03000
00303000
00303000
00303000
00303000
00303000
00303000
03303000
03303000
03003000
03003000
FFF03000
FFF03000
00003000
00003000
3FF00C00
3FF00C00
00300C00
00300C00
3FF00C00
3FF00C00
30003300
30003300
3FF0C0C0
3FF0C0C0
00000000
00000000
00000000
00000000
00000000
00000000
ENDCHAR

STARTCHAR U+ad41
ENCODING 44353
SWIDTH 1000
DWIDTH 28 0
BBX 28 32 0 0
BITMAP
3FF03000
3FF03000
00303000
00303000
00303000
00303000
00303000
00303000
03303000
03303000
03003000
03003000
FFF03000
FFF03000
00003000
00003000
3FF0FFC0
3FF0FFC0
00300000
00300000
3FF0FFC0
3FF0FFC0
3000C000
3000C000
3FF0FFC0
3FF0FFC0
00000000
00000000
00000000
00000000
00000000
00000000
ENDCHAR

STARTCHAR U+ad42
ENCODING 44354
SWIDTH 1000
DWIDTH 28 0
BBX 28 32 0 0
BITMAP
3FF03000
3FF03000
00303000
00303000
00303000
00303000
00303000
00303000
03303000
03303000
03003000
03003000
FFF03000
FFF03000
00003000
00003000
3FF0FFC0
3FF0FFC0
00303300
00303300
3FF03300
3FF03300
30003300
30003300
3FF0FFC0
3FF0FFC0
00000000
00000000
00000000
00000000
00000000
00000000
ENDCHAR

STARTCHAR U+ad43
ENCODING 44355
SWIDTH 1000
DWIDTH 28 0
BBX 28 32 0 0
BITMAP
3FF03000
3FF03000
00303000
00303000
00303000
00303000
00303000
00303000
03303000
03303000
03003000
03003000
FFF03000
FFF03000
00003000
00003000
3FF00C00
3FF00C00
0030FFC0
0030FFC0
3FF03F00
3FF03F00
3000C0C0
3000C0C0
3FF03F00
3FF03F00
00000000
00000000
00000000
00000000
00000000
00000000
ENDCHAR

STARTCHAR U+ad44
ENCODING 44356
SWIDTH 1000
DWIDTH 28 0
BBX 28 32 0 0
BITMAP
3FF03000
3FF03000
00303000
00303000
00303000
00303000
00303000
00303000
03303000
03303000
03003000
03003000
FFF03000
FFF03000
00003000
00003000
3FF00000
3FF00000
30300000
30300000
30300000
30300000
30300000
30300000
3FF00000
3FF00000
00000000
00000000
00000000
00000000
00000000
00000000
ENDCHAR

STARTCHAR U+ad45
ENCODING 44357
SWIDTH 1000
DWIDTH 28 0
BBX 28 32 0 0
BITMAP
3FF03000
3FF03000
00303000
00303000
00303000
00303000
00303000
00303000
03303000
03303000
03003000
03003000
FFF03000
FFF03000
00003000
00003000
30300000
30300000
30300000
30300000
3FF00000
3FF00000
30300000
30300000
3FF00000
3FF00000
00000000
00000000
00000000
00000000
00000000
00000000
ENDCHAR

STARTCHAR U+ad46
ENCODING 44358
SWIDTH 1000
DWIDTH 28 0
BBX 28 32 0 0
BITMAP
3FF03000
3FF03000
00303000
00303000
00303000
00303000
00303000
00303000
03303000
03303000
03003000
03003000
FFF03000
FFF03000
00003000
00003000
30300C00
30300C00
30300C00
30300C00
3FF00C00
3FF00C00
30303300
30303300
3FF0C0C0
3FF0C0C0
00000000
00000000
00000000
00000000
00000000
00000000
ENDCHAR

STARTCHAR U+ad47
ENCODING 44359
SWIDTH 1000
DWIDTH 28 0
BBX 28 32 0 0
BITMAP
3FF03000
3FF03000
00303000
00303000
00303000
00303000
00303000
00303000
03303000
03303000
03003000
03003000
FFF03000
FFF03000
00003000
00003000
03000000
03000000
03000000
03000000
03000000
03000000
0CC00000
0CC00000
30300000
30300000
00000000
00000000
00000000
00000000
00000000
00000000
ENDCHAR

STARTCHAR U+ad48
ENCODING 44360
SWIDTH 1000
DWIDTH 28 0
BBX 28 32 0 0
BITMAP
3FF03000
3FF03000
00303000
00303000
00303000
00303000
00303000
00303000
03303000
03303000
03003000
03003000
FFF03000
FFF03000
00003000
00003000
0CC00000
0CC00000
0CC00000
0CC00000
33300000
33300000
C30C0000
C30C0000
00000000
00000000
00000000
00000000
00000000
00000000
00000000
00000000
ENDCHAR

STARTCHAR U+ad49
ENCODING 44361
SWIDTH 1000
DWIDTH 28 0
BBX 28 32 0 0
BITMAP
3FF03000
3FF03000
00303000
00303000
00303000
00303000
00303000
00303000
03303000
03303000
03003000
03003000
FFF03000
FFF03000
00003000
00003000
0FC00000
0FC00000
30300000
30300000
30300000
30300000
30300000
30300000
0FC00000
0FC00000
00000000
00000000
00000000
00000000
00000000
00000000
ENDCHAR

STARTCHAR U+ad4a
ENCODING 44362
SWIDTH 1000
DWIDTH 28 0
BBX 28 32 0 0
BITMAP
3FF03000
3FF03000
00303000
00303000
00303000
00303000
00303000
00303000
03303000
03303000
03003000
03003000
FFF03000
FFF03000
00003000
00003000
3FF00000
3FF00000
03000000
03000000
03000000
03000000
0CC00000
0CC00000
30300000
30300000
00000000
00000000
00000000
00000000
00000000
00000000
ENDCHAR

STARTCHAR U+ad4b
ENCODING 44363
SWIDTH 1000
DWIDTH 28 0
BBX 28 32 0 0
BITMAP
3FF03000
3FF03000
00303000
00303000
00303000
00303000
00303000
00303000
03303000
03303000
03003000
03003000
FFF03000
FFF03000
00003000
00003000
03000000
03000000
3FF00000
3FF00000
03000000
03000000
0CC00000
0CC00000
30300000
30300000
00000000
00000000
00000000
00000000
00000000
00000000
ENDCHAR

STARTCHAR U+ad4c
ENCODING 44364
SWIDTH 1000
DWIDTH 28 0
BBX 28 32 0 0
BITMAP
3FF03000
3FF03000
00303000
00303000
00303000
00303000
00303000
00303000
03303000
03303000
03003000
03003000
FFF03000
FFF03000
00003000
00003000
3FF00000
3FF00000
00300000
00300000
3FF00000
3FF00000
00300000
00300000
00C00000
00C00000
00000000
00000000
00000000
00000000
00000000
00000000
ENDCHAR

STARTCHAR U+ad4d
ENCODING 44365
SWIDTH 1000
DWIDTH 28 0
BBX 28 32 0 0
BITMAP
3FF03000
3FF03000
00303000
00303000
00303000
00303000
00303000
00303000
03303000
03303000
03003000
03003000
FFF03000
FFF03000
00003000
00003000
3FF00000
3FF00000
00000000
00000000
3FF00000
3FF00000
30000000
30000000
3FF00000
3FF00000
00000000
00000000
00000000
00000000
00000000
00000000
ENDCHAR

STARTCHAR U+ad4e
ENCODING 44366
SWIDTH 1000
DWIDTH 28 0
BBX 28 32 0 0
BITMAP
3FF03000
3FF03000
00303000
00303000
00303000
00303000
00303000
00303000
03303000
03303000
03003000
03003000
FFF03000
FFF03000
00003000
00003000
3FF00000
3FF00000
0CC00000
0CC00000
0CC00000
0CC00000
0CC00000
0CC00000
3FF00000
3FF00000
00000000
00000000
00000000
00000000
00000000
00000000
ENDCHAR

STARTCHAR U+ad4f
ENCODING 44367
SWIDTH 1000
DWIDTH 28 0
BBX 28 32 0 0
BITMAP
3FF03000
3FF03000
00303000
00303000
00303000
00303000
00303000
00303000
03303000
03303000
03003000
03003000
FFF03000
FFF03000
00003000
00003000
03000000
03000000
3FF00000
3FF00000
0FC00000
0FC00000
30300000
30300000
0FC00000
0FC00000
00000000
00000000
00000000
00000000
00000000
00000000
ENDCHAR

STARTCHAR U+ad50
ENCODING 44368
SWIDTH 500
DWIDTH 14 0
BBX 14 32 0 0
BITMAP
3FF0
3FF0
0030
0030
0030
0030
0030
0030
0030
0030
0000
0000
0000
0000
0000
0000
0CC0
0CC0
0CC0
0CC0
0CC0
0CC0
FFF0
FFF0
0000
0000
0000
0000
0000
0000
0000
0000
ENDCHAR

STARTCHAR U+ad51
ENCODING 44369
SWIDTH 500
DWIDTH 14 0
BBX 14 32 0 0
BITMAP
3FF0
3FF0
0030
0030
0030
0030
0030
0030
0CF0
0CF0
0CC0
0CC0
FFF0
FFF0
0000
0000
3FF0
3FF0
0030
0030
0030
0030
0030
0030
0030
0030
0000
0000
0000
0000
0000
0000
ENDCHAR

STARTCHAR U+ad52
ENCODING 44370
SWIDTH 500
DWIDTH 14 0
BBX 14 32 0 0
BITMAP
3FF0
3FF0
0030
0030
0030
0030
0030
0030
0CF0
0CF0
0CC0
0CC0
FFF0
FFF0
0000
0000
3FF0
3FF0
0330
0330
0330
0330
0CC0
0CC0
0000
0000
0000
0000
0000
0000
0000
0000
ENDCHAR

STARTCHAR U+ad53
ENCODING 44371
SWIDTH 500
DWIDTH 14 0
BBX 14 32 0 0
BITMAP
3FF0
3FF0
0030
0030
0030
0030
0030
0030
0CF0
0CF0
0CC0
0CC0
FFF0
FFF0
0000
0000
0000
0000
FC30
FC30
0C30
0C30
0C30
0C30
0CCC
0CCC
3300
3300
0000
0000
0000
0000
ENDCHAR

STARTCHAR U+ad54
ENCODING 44372
SWIDTH 500
DWIDTH 14 0
BBX 14 32 0 0
BITMAP
3FF0
3FF0
0030
0030
0030
0030
0030
0030
0CF0
0CF0
0CC0
0CC0
FFF0
FFF0
0000
0000
3000
3000
3000
3000
3000
3000
3000
3000
3FF0
3FF0
0000
0000
0000
0000
0000
0000
ENDCHAR

STARTCHAR U+ad55
ENCODING 44373
SWIDTH 500
DWIDTH 14 0
BBX 14 32 0 0
BITMAP
3FF0
3FF0
0030
0030
0030
0030
0030
0030
0CF0
0CF0
0CC0
0CC0
FFF0
FFF0
0000
0000
0000
0000
C3F0
C3F0
C0C0
C0C0
C0C0
C0C0
C330
C330
FF30
FF30
0000
0000
0000
0000
ENDCHAR

STARTCHAR U+ad56
ENCODING 44374
SWIDTH 500
DWIDTH 14 0
BBX 14 32 0 0
BITMAP
3FF0
3FF0
0030
0030
0030
0030
0030
0030
0CF0
0CF0
0CC0
0CC0
FFF0
FFF0
0000
0000
0000
0000
C0C0
C0C0
C3F0
C3F0
C0C0
C0C0
C330
C330
FCC0
FCC0
0000
0000
0000
0000
ENDCHAR

STARTCHAR U+ad57
ENCODING 44375
SWIDTH 500
DWIDTH 14 0
BBX 14 32 0 0
BITMAP
3FF0
3FF0
0030
0030
0030
0030
0030
0030
0CF0
0CF0
0CC0
0CC0
FFF0
FFF0
0000
0000
3FF0
3FF0
3000
3000
3000
3000
3000
3000
3FF0
3FF0
0000
0000
0000
0000
0000
0000
ENDCHAR

STARTCHAR U+ad58
ENCODING 44376
SWIDTH 500
DWIDTH 14 0
BBX 14 32 0 0
BITMAP
3FF0
3FF0
0030
0030
0030
0030
0030
0030
0CF0
0CF0
0CC0
0CC0
FFF0
FFF0
0000
0000
3FF0
3FF0
0030
0030
3FF0
3FF0
3000
3000
3FF0
3FF0
0000
0000
0000
0000
0000
0000
ENDCHAR

STARTCHAR U+ad59
ENCODING 44377
SWIDTH 500
DWIDTH 14 0
BBX 14 32 0 0
BITMAP
3FF0
3FF0
0030
0030
0030
0030
0030
0030
0CF0
0CF0
0CC0
0CC0
FFF0
FFF0
0000
0000
0000
0000
FFF0
FFF0
0C30
0C30
FC30
FC30
C030
C030
FC30
FC30
0000
0000
0000
0000
ENDCHAR

STARTCHAR U+ad5a
ENCODING 44378
SWIDTH 500
DWIDTH 14 0
BBX 14 32 0 0
BITMAP
3FF0
3FF0
0030
0030
0030
0030
0030
0030
0CF0
0CF0
0CC0
0CC0
FFF0
FFF0
0000
0000
0000
0000
FCFC
FCFC
0CCC
0CCC
FCCC
FCCC
C0CC
C0CC
FCFC
FCFC
0000
0000
0000
0000
ENDCHAR

STARTCHAR U+ad5b
ENCODING 44379
SWIDTH 500
DWIDTH 14 0
BBX 14 32 0 0
BITMAP
3FF0
3FF0
0030
0030
0030
0030
0030
0030
0CF0
0CF0
0CC0
0CC0
FFF0
FFF0
0000
0000
0000
0000
FCCC
FCCC
0CCC
0CCC
FCFC
FCFC
C0CC
C0CC
FCFC
FCFC
0000
0000
0000
0000
ENDCHAR

STARTCHAR U+ad5c
ENCODING 44380
SWIDTH 500
DWIDTH 14 0
BBX 14 32 0 0
BITMAP
3FF0
3FF0
0030
0030
0030
0030
0030
0030
0CF0
0CF0
0CC0
0CC0
FFF0
FFF0
0000
0000
0000
0000
FC30
FC30
0C30
0C30
FC30
FC30
C0CC
C0CC
FF0C
FF0C
0000
0000
0000
0000
ENDCHAR

STARTCHAR U+ad5d
ENCODING 44381
SWIDTH 500
DWIDTH 14 0
BBX 14 32 0 0
BITMAP
3FF0
3FF0
0030
0030
0030
0030
0030
0030
0CF0
0CF0
0CC0
0CC0
FFF0
FFF0
0000
0000
0000
0000
FCFC
FCFC
0C00
0C00
FCFC
FCFC
C0C0
C0C0
FCFC
FCFC
0000
0000
0000
0000
ENDCHAR

STARTCHAR U+ad5e
ENCODING 44382
SWIDTH 500
DWIDTH 14 0
BBX 14 32 0 0
BITMAP
3FF0
3FF0
0030
0030
0030
0030
0030
0030
0CF0
0CF0
0CC0
0CC0
FFF0
FFF0
0000
0000
0000
0000
FFFC
FFFC
0F30
0F30
FF30
FF30
C330
C330
FFFC
FFFC
0000
0000
0000
0000
ENDCHAR

STARTCHAR U+ad5f
ENCODING 44383
SWIDTH 500
DWIDTH 14 0
BBX 14 32 0 0
BITMAP
3FF0
3FF0
0030
0030
0030
0030
0030
0030
0CF0
0CF0
0CC0
0CC0
FFF0
FFF0
0000
0000
0000
0000
FC30
FC30
0CFC
0CFC
FC30
FC30
C0CC
C0CC
FC30
FC30
0000
0000
0000
0000
ENDCHAR

STARTCHAR U+ad60
ENCODING 44384
SWIDTH 500
DWIDTH 14 0
BBX 14 32 0 0
BITMAP
3FF0
3FF0
0030
0030
0030
0030
0030
0030
0CF0
0CF0
0CC0
0CC0
FFF0
FFF0
0000
0000
3FF0
3FF0
3030
3030
3030
3030
3030
3030
3FF0
3FF0
0000
0000
0000
0000
0000
0000
ENDCHAR

STARTCHAR U+ad61
ENCODING 44385
SWIDTH 500
DWIDTH 14 0
BBX 14 32 0 0
BITMAP
3FF0
3FF0
0030
0030
0030
0030
0030
0030
0CF0
0CF0
0CC0
0CC0
FFF0
FFF0
0000
0000
3030
3030
3030
3030
3FF0
3FF0
3030
3030
3FF0
3FF0
0000
0000
0000
0000
0000
0000
ENDCHAR

STARTCHAR U+ad62
ENCODING 44386
SWIDTH 500
DWIDTH 14 0
BBX 14 32 0 0
BITMAP
3FF0
3FF0
0030
0030
0030
0030
0030
0030
0CF0
0CF0
0CC0
0CC0
FFF0
FFF0
0000
0000
0000
0000
CC30
CC30
CC30
CC30
FC30
FC30
CCCC
CCCC
FCCC
FCCC
0000
0000
0000
0000
ENDCHAR

STARTCHAR U+ad63
ENCODING 44387
SWIDTH 500
DWIDTH 14 0
BBX 14 32 0 0
BITMAP
3FF0
3FF0
0030
0030
0030
0030
0030
0030
0CF0
0CF0
0CC0
0CC0
FFF0
FFF0
0000
0000
0300
0300
0300
0300
0300
0300
0CC0
0CC0
3030
3030
0000
0000
0000
0000
0000
0000
ENDCHAR

STARTCHAR U+ad64
ENCODING 44388
SWIDTH 500
DWIDTH 14 0
BBX 14 32 0 0
BITMAP
3FF0
3FF0
0030
0030
0030
0030
0030
0030
0CF0
0CF0
0CC0
0CC0
FFF0
FFF0
0000
0000
0CC0
0CC0
0CC0
0CC0
3330
3330
C30C
C30C
0000
0000
0000
0000
0000
0000
0000
0000
ENDCHAR

STARTCHAR U+ad65
ENCODING 44389
SWIDTH 500
DWIDTH 14 0
BBX 14 32 0 0
BITMAP
3FF0
3FF0
0030
0030
0030
0030
0030
0030
0CF0
0CF0
0CC0
0CC0
FFF0
FFF0
0000
0000
0FC0
0FC0
3030
3030
3030
3030
3030
3030
0FC0
0FC0
0000
0000
0000
0000
0000
0000
ENDCHAR

STARTCHAR U+ad66
ENCODING 44390
SWIDTH 500
DWIDTH 14 0
BBX 14 32 0 0
BITMAP
3FF0
3FF0
0030
0030
0030
0030
0030
0030
0CF0
0CF0
0CC0
0CC0
FFF0
FFF0
0000
0000
3FF0
3FF0
0300
0300
0300
0300
0CC0
0CC0
3030
3030
0000
0000
0000
0000
0000
0000
ENDCHAR

STARTCHAR U+ad67
ENCODING 44391
SWIDTH 500
DWIDTH 14 0
BBX 14 32 0 0
BITMAP
3FF0
3FF0
0030
0030
0030
0030
0030
0030
0CF0
0CF0
0CC0
0CC0
FFF0
FFF0
0000
0000
0300
0300
3FF0
3FF0
0300
0300
0CC0
0CC0
3030
3030
0000
0000
0000
0000
0000
0000
ENDCHAR

STARTCHAR U+ad68
ENCODING 44392
SWIDTH 500
DWIDTH 14 0
BBX 14 32 0 0
BITMAP
3FF0
3FF0
0030
0030
0030
0030
0030
0030
0CF0
0CF0
0CC0
0CC0
FFF0
FFF0
0000
0000
3FF0
3FF0
0030
0030
3FF0
3FF0
0030
0030
00C0
00C0
0000
0000
0000
0000
0000
0000
ENDCHAR

STARTCHAR U+ad69
ENCODING 44393
SWIDTH 500
DWIDTH 14 0
BBX 14 32 0 0
BITMAP
3FF0
3FF0
0030
0030
0030
0030
0030
0030
0CF0
0CF0
0CC0
0CC0
FFF0
FFF0
0000
0000
3FF0
3FF0
0000
0000
3FF0
3FF0
3000
3000
3FF0
3FF0
0000
0000
0000
0000
0000
0000
ENDCHAR

STARTCHAR U+ad6a
ENCODING 44394
SWIDTH 500
DWIDTH 14 0
BBX 14 32 0 0
BITMAP
3FF0
3FF0
0030
0030
0030
0030
0030
0030
0CF0
0CF0
0CC0
0CC0
FFF0
FFF0
0000
0000
3FF0
3FF0
0CC0
0CC0
0CC0
0CC0
0CC0
0CC0
3FF0
3FF0
0000
0000
0000
0000
0000
0000
ENDCHAR

STARTCHAR U+ad6b
ENCODING 44395
SWIDTH 500
DWIDTH 14 0
BBX 14 32 0 0
BITMAP
3FF0
3FF0
0030
0030
0030
0030
0030
0030
0CF0
0CF0
0CC0
0CC0
FFF0
FFF0
0000
0000
0300
0300
3FF0
3FF0
0FC0
0FC0
3030
3030
0FC0
0FC0
0000
0000
0000
0000
0000
0000
ENDCHAR

STARTCHAR U+ad6c
ENCODING 44396
SWIDTH 500
DWIDTH 14 0
BBX 14 32 0 0
BITMAP
3FF0
3FF0
0030
0030
0030
0030
0030
0030
0030
0030
0000
0000
0000
0000
0000
0000
FFF0
FFF0
0300
0300
0300
0300
0300
0300
0300
0300
0000
0000
0000
0000
0000
0000
ENDCHAR

STARTCHAR U+ad6d
ENCODING 44397
SWIDTH 500
DWIDTH 14 0
BBX 14 32 0 0
BITMAP
3FF0
3FF0
0030
0030
0030
0030
0030
0030
0030
0030
0000
0000
FFF0
FFF0
0300
0300
3FF0
3FF0
0030
0030
0030
0030
0030
0030
0030
0030
0000
0000
0000
0000
0000
0000
ENDCHAR

STARTCHAR U+ad6e
ENCODING 44398
SWIDTH 500
DWIDTH 14 0
BBX 14 32 0 0
BITMAP
3FF0
3FF0
0030
0030
0030
0030
0030
0030
0030
0030
0000
0000
FFF0
FFF0
0300
0300
3FF0
3FF0
0330
0330
0330
0330
0CC0
0CC0
0000
0000
0000
0000
0000
0000
0000
0000
ENDCHAR

STARTCHAR U+ad6f
ENCODING 44399
SWIDTH 500
DWIDTH 14 0
BBX 14 32 0 0
BITMAP
3FF0
3FF0
0030
0030
0030
0030
0030
0030
0030
0030
0000
0000
FFF0
FFF0
0300
0300
0000
0000
FC30
FC30
0C30
0C30
0C30
0C30
0CCC
0CCC
3300
3300
0000
0000
0000
0000
ENDCHAR

STARTCHAR U+ad70
ENCODING 44400
SWIDTH 500
DWIDTH 14 0
BBX 14 32 0 0
BITMAP
3FF0
3FF0
0030
0030
0030
0030
0030
0030
0030
0030
0000
0000
FFF0
FFF0
0300
0300
3000
3000
3000
3000
3000
3000
3000
3000
3FF0
3FF0
0000
0000
0000
0000
0000
0000
ENDCHAR

STARTCHAR U+ad71
ENCODING 44401
SWIDTH 500
DWIDTH 14 0
BBX 14 32 0 0
BITMAP
3FF0
3FF0
0030
0030
0030
0030
0030
0030
0030
0030
0000
0000
FFF0
FFF0
0300
0300
0000
0000
C3F0
C3F0
C0C0
C0C0
C0C0
C0C0
C330
C330
FF30
FF30
0000
0000
0000
0000
ENDCHAR

STARTCHAR U+ad72
ENCODING 44402
SWIDTH 500
DWIDTH 14 0
BBX 14 32 0 0
BITMAP
3FF0
3FF0
0030
0030
0030
0030
0030
0030
0030
0030
0000
0000
FFF0
FFF0
0300
0300
0000
0000
C0C0
C0C0
C3F0
C3F0
C0C0
C0C0
C330
C330
FCC0
FCC0
0000
0000
0000
0000
ENDCHAR

STARTCHAR U+ad73
ENCODING 44403
SWIDTH 500
DWIDTH 14 0
BBX 14 32 0 0
BITMAP
3FF0
3FF0
0030
0030
0030
0030
0030
0030
0030
0030
0000
0000
FFF0
FFF0
0300
0300
3FF0
3FF0
3000
3000
3000
3000
3000
3000
3FF0
3FF0
0000
0000
0000
0000
0000
0000
ENDCHAR

STARTCHAR U+ad74
ENCODING 44404
SWIDTH 500
DWIDTH 14 0
BBX 14 32 0 0
BITMAP
3FF0
3FF0
0030
0030
0030
0030
0030
0030
0030
0030
0000
0000
FFF0
FFF0
0300
0300
3FF0
3FF0
0030
0030
3FF0
3FF0
3000
3000
3FF0
3FF0
0000
0000
0000
0000
0000
0000
ENDCHAR

STARTCHAR U+ad75
ENCODING 44405
SWIDTH 500
DWIDTH 14 0
BBX 14 32 0 0
BITMAP
3FF0
3FF0
0030
0030
0030
0030
0030
0030
0030
0030
0000
0000
FFF0
FFF0
0300
0300
0000
0000
FFF0
FFF0
0C30
0C30
FC30
FC30
C030
C030
FC30
FC30
0000
0000
0000
0000
ENDCHAR

STARTCHAR U+ad76
ENCODING 44406
SWIDTH 500
DWIDTH 14 0
BBX 14 32 0 0
BITMAP
3FF0
3FF0
0030
0030
0030
0030
0030
0030
0030
0030
0000
0000
FFF0
FFF0
0300
0300
0000
0000
FCFC
FCFC
0CCC
0CCC
FCCC
FCCC
C0CC
C0CC
FCFC
FCFC
0000
0000
0000
0000
ENDCHAR

STARTCHAR U+ad77
ENCODING 44407
SWIDTH 500
DWIDTH 14 0
BBX 14 32 0 0
BITMAP
3FF0
3FF0
0030
0030
0030
0030
0030
0030
0030
0030
0000
0000
FFF0
FFF0
0300
0300
0000
0000
FCCC
FCCC
0CCC
0CCC
FCFC
FCFC
C0CC
C0CC
FCFC
FCFC
0000
0000
0000
0000
ENDCHAR

STARTCHAR U+ad78
ENCODING 44408
SWIDTH 500
DWIDTH 14 0
BBX 14 32 0 0
BITMAP
3FF0
3FF0
0030
0030
0030
0030
0030
0030
0030
0030
0000
0000
FFF0
FFF0
0300
0300
0000
0000
FC30
FC30
0C30
0C30
FC30
FC30
C0CC
C0CC
FF0C
FF0C
0000
0000
0000
0000
ENDCHAR

STARTCHAR U+ad79
ENCODING 44409
SWIDTH 500
DWIDTH 14 0
BBX 14 32 0 0
BITMAP
3FF0
3FF0
0030
0030
0030
0030
0030
0030
0030
0030
0000
0000
FFF0
FFF0
0300
0300
0000
0000
FCFC
FCFC
0C00
0C00
FCFC
FCFC
C0C0
C0C0
FCFC
FCFC
0000
0000
0000
0000
ENDCHAR

STARTCHAR U+ad7a
ENCODING 44410
SWIDTH 500
DWIDTH 14 0
BBX 14 32 0 0
BITMAP
3FF0
3FF0
0030
0030
0030
0030
0030
0030
0030
0030
0000
0000
FFF0
FFF0
0300
0300
0000
0000
FFFC
FFFC
0F30
0F30
FF30
FF30
C330
C330
FFFC
FFFC
0000
0000
0000
0000
ENDCHAR

STARTCHAR U+ad7b
ENCODING 44411
SWIDTH 500
DWIDTH 14 0
BBX 14 32 0 0
BITMAP
3FF0
3FF0
0030
0030
0030
0030
0030
0030
0030
0030
0000
0000
FFF0
FFF0
0300
0300
0000
0000
FC30
FC30
0CFC
0CFC
FC30
FC30
C0CC
C0CC
FC30
FC30
0000
0000
0000
0000
ENDCHAR

STARTCHAR U+ad7c
ENCODING 44412
SWIDTH 500
DWIDTH 14 0
BBX 14 32 0 0
BITMAP
3FF0
3FF0
0030
0030
0030
0030
0030
0030
0030
0030
0000
0000
FFF0
FFF0
0300
0300
3FF0
3FF0
3030
3030
3030
3030
3030
3030
3FF0
3FF0
0000
0000
0000
0000
0000
0000
ENDCHAR

STARTCHAR U+ad7d
ENCODING 44413
SWIDTH 500
DWIDTH 14 0
BBX 14 32 0 0
BITMAP
3FF0
3FF0
0030
0030
0030
0030
0030
0030
0030
0030
0000
0000
FFF0
FFF0
0300
0300
3030
3030
3030
3030
3FF0
3FF0
3030
3030
3FF0
3FF0
0000
0000
0000
0000
0000
0000
ENDCHAR

STARTCHAR U+ad7e
ENCODING 44414
SWIDTH 500
DWIDTH 14 0
BBX 14 32 0 0
BITMAP
3FF0
3FF0
0030
0030
0030
0030
0030
0030
0030
0030
0000
0000
FFF0
FFF0
0300
0300
0000
0000
CC30
CC30
CC30
CC30
FC30
FC30
CCCC
CCCC
FCCC
FCCC
0000
0000
0000
0000
ENDCHAR

STARTCHAR U+ad7f
ENCODING 44415
SWIDTH 500
DWIDTH 14 0
BBX 14 32 0 0
BITMAP
3FF0
3FF0
0030
0030
0030
0030
0030
0030
0030
0030
0000
0000
FFF0
FFF0
0300
0300
0300
0300
0300
0300
0300
0300
0CC0
0CC0
3030
3030
0000
0000
0000
0000
0000
0000
ENDCHAR

STARTCHAR U+ad80
ENCODING 44416
SWIDTH 500
DWIDTH 14 0
BBX 14 32 0 0
BITMAP
3FF0
3FF0
0030
0030
0030
0030
0030
0030
0030
0030
0000
0000
FFF0
FFF0
0300
0300
0CC0
0CC0
0CC0
0CC0
3330
3330
C30C
C30C
0000
0000
0000
0000
0000
0000
0000
0000
ENDCHAR

STARTCHAR U+ad81
ENCODING 44417
SWIDTH 500
DWIDTH 14 0
BBX 14 32 0 0
BITMAP
3FF0
3FF0
0030
0030
0030
0030
0030
0030
0030
0030
0000
0000
FFF0
FFF0
0300
0300
0FC0
0FC0
3030
3030
3030
3030
3030
3030
0FC0
0FC0
0000
0000
0000
0000
0000
0000
ENDCHAR

STARTCHAR U+ad82
ENCODING 44418
SWIDTH 500
DWIDTH 14 0
BBX 14 32 0 0
BITMAP
3FF0
3FF0
0030
0030
0030
0030
0030
0030
0030
0030
0000
0000
FFF0
FFF0
0300
0300
3FF0
3FF0
0300
0300
0300
0300
0CC0
0CC0
3030
3030
0000
0000
0000
0000
0000
0000
ENDCHAR

STARTCHAR U+ad83
ENCODING 44419
SWIDTH 500
DWIDTH 14 0
BBX 14 32 0 0
BITMAP
3FF0
3FF0
0030
0030
0030
0030
0030
0030
0030
0030
0000
0000
FFF0
FFF0
0300
0300
0300
0300
3FF0
3FF0
0300
0300
0CC0
0CC0
3030
3030
0000
0000
0000
0000
0000
0000
ENDCHAR

STARTCHAR U+ad84
ENCODING 44420
SWIDTH 500
DWIDTH 14 0
BBX 14 32 0 0
BITMAP
3FF0
3FF0
0030
0030
0030
0030
0030
0030
0030
0030
0000
0000
FFF0
FFF0
0300
0300
3FF0
3FF0
0030
0030
3FF0
3FF0
0030
0030
00C0
00C0
0000
0000
0000
0000
0000
0000
ENDCHAR

STARTCHAR U+ad85
ENCODING 44421
SWIDTH 500
DWIDTH 14 0
BBX 14 32 0 0
BITMAP
3FF0
3FF0
0030
0030
0030
0030
0030
0030
0030
0030
0000
0000
FFF0
FFF0
0300
0300
3FF0
3FF0
0000
0000
3FF0
3FF0
3000
3000
3FF0
3FF0
0000
0000
0000
0000
0000
0000
ENDCHAR

STARTCHAR U+ad86
ENCODING 44422
SWIDTH 500
DWIDTH 14 0
BBX 14 32 0 0
BITMAP
3FF0
3FF0
0030
0030
0030
0030
0030
0030
0030
0030
0000
0000
FFF0
FFF0
0300
0300
3FF0
3FF0
0CC0
0CC0
0CC0
0CC0
0CC0
0CC0
3FF0
3FF0
0000
0000
0000
0000
0000
0000
ENDCHAR

STARTCHAR U+ad87
ENCODING 44423
SWIDTH 500
DWIDTH 14 0
BBX 14 32 0 0
BITMAP
3FF0
3FF0
0030
0030
0030
0030
0030
0030
0030
0030
0000
0000
FFF0
FFF0
0300
0300
0300
0300
3FF0
3FF0
0FC0
0FC0
3030
3030
0FC0
0FC0
0000
0000
0000
0000
0000
0000
ENDCHAR

STARTCHAR U+ad88
ENCODING 44424
SWIDTH 1000
DWIDTH 28 0
BBX 28 32 0 0
BITMAP
3FF03000
3FF03000
00303000
00303000
00303000
00303000
0033F000
0033F000
00303000
00303000
00003000
00003000
00003000
00003000
00003000
00003000
FFF03000
FFF03000
03003000
03003000
03003000
03003000
03003000
03003000
03000000
03000000
00000000
00000000
00000000
00000000
00000000
00000000
ENDCHAR

STARTCHAR U+ad89
ENCODING 44425
SWIDTH 1000
DWIDTH 28 0
BBX 28 32 0 0
BITMAP
3FF03000
3FF03000
00303000
00303000
00303000
00303000
0033F000
0033F000
00303000
00303000
00003000
00003000
FFF03000
FFF03000
03003000
03003000
3FF00000
3FF00000
00300000
00300000
00300000
00300000
00300000
00300000
00300000
00300000
00000000
00000000
00000000
00000000
00000000
00000000
ENDCHAR

STARTCHAR U+ad8a
ENCODING 44426
SWIDTH 1000
DWIDTH 28 0
BBX 28 32 0 0
BITMAP
3FF03000
3FF03000
00303000
00303000
00303000
00303000
0033F000
0033F000
00303000
00303000
00003000
00003000
FFF03000
FFF03000
03003000
03003000
3FF00000
3FF00000
03300000
03300000
03300000
03300000
0CC00000
0CC00000
00000000
00000000
00000000
00000000
00000000
00000000
00000000
00000000
ENDCHAR

STARTCHAR U+ad8b
ENCODING 44427
SWIDTH 1000
DWIDTH 28 0
BBX 28 32 0 0
BITMAP
3FF03000
3FF03000
00303000
00303000
00303000
00303000
0033F000
0033F000
00303000
00303000
00003000
00003000
FFF03000
FFF03000
03003000
03003000
3FF00C00
3FF00C00
00300C00
00300C00
00300C00
00300C00
00303300
00303300
0030C0C0
0030C0C0
00000000
00000000
00000000
00000000
00000000
00000000
ENDCHAR

STARTCHAR U+ad8c
ENCODING 44428
SWIDTH 1000
DWIDTH 28 0
BBX 28 32 0 0
BITMAP
3FF03000
3FF03000
00303000
00303000
00303000
00303000
0033F000
0033F000
00303000
00303000
00003000
00003000
FFF03000
FFF03000
03003000
03003000
30000000
30000000
30000000
30000000
30000000
30000000
30000000
30000000
3FF00000
3FF00000
00000000
00000000
00000000
00000000
00000000
00000000
ENDCHAR

STARTCHAR U+ad8d
ENCODING 44429
SWIDTH 1000
DWIDTH 28 0
BBX 28 32 0 0
BITMAP
3FF03000
3FF03000
00303000
00303000
00303000
00303000
0033F000
0033F000
00303000
00303000
00003000
00003000
FFF03000
FFF03000
03003000
03003000
3000FFC0
3000FFC0
30000C00
30000C00
30000C00
30000C00
30003300
30003300
3FF0C0C0
3FF0C0C0
00000000
00000000
00000000
00000000
00000000
00000000
ENDCHAR

STARTCHAR U+ad8e
ENCODING 44430
SWIDTH 1000
DWIDTH 28 0
BBX 28 32 0 0
BITMAP
3FF03000
3FF03000
00303000
00303000
00303000
00303000
0033F000
0033F000
00303000
00303000
00003000
00003000
FFF03000
FFF03000
03003000
03003000
30000C00
30000C00
3000FFC0
3000FFC0
30003F00
30003F00
3000C0C0
3000C0C0
3FF03F00
3FF03F00
00000000
00000000
00000000
00000000
00000000
00000000
ENDCHAR

STARTCHAR U+ad8f
ENCODING 44431
SWIDTH 1000
DWIDTH 28 0
BBX 28 32 0 0
BITMAP
3FF03000
3FF03000
00303000
00303000
00303000
00303000
0033F000
0033F000
00303000
00303000
00003000
00003000
FFF03000
FFF03000
03003000
03003000
3FF00000
3FF00000
30000000
30000000
30000000
30000000
30000000
30000000
3FF00000
3FF00000
00000000
00000000
00000000
00000000
00000000
00000000
ENDCHAR

STARTCHAR U+ad90
ENCODING 44432
SWIDTH 1000
DWIDTH 28 0
BBX 28 32 0 0
BITMAP
3FF03000
3FF03000
00303000
00303000
00303000
00303000
0033F000
0033F000
00303000
00303000
00003000
00003000
FFF03000
FFF03000
03003000
03003000
3FF00000
3FF00000
00300000
00300000
3FF00000
3FF00000
30000000
30000000
3FF00000
3FF00000
00000000
00000000
00000000
00000000
00000000
00000000
ENDCHAR

STARTCHAR U+ad91
ENCODING 44433
SWIDTH 1000
DWIDTH 28 0
BBX 28 32 0 0
BITMAP
3FF03000
3FF03000
00303000
00303000
00303000
00303000
0033F000
0033F000
00303000
00303000
00003000
00003000
FFF03000
FFF03000
03003000
03003000
3FF0FFC0
3FF0FFC0
003000C0
003000C0
3FF000C0
3FF000C0
300000C0
300000C0
3FF000C0
3FF000C0
00000000
00000000
00000000
00000000
00000000
00000000
ENDCHAR

STARTCHAR U+ad92
ENCODING 44434
SWIDTH 1000
DWIDTH 28 0
BBX 28 32 0 0
BITMAP
3FF03000
3FF03000
00303000
00303000
00303000
00303000
0033F000
0033F000
00303000
00303000
00003000
00003000
FFF03000
FFF03000
03003000
03003000
3FF0FFC0
3FF0FFC0
0030C0C0
0030C0C0
3FF0C0C0
3FF0C0C0
3000C0C0
3000C0C0
3FF0FFC0
3FF0FFC0
00000000
00000000
00000000
00000000
00000000
00000000
ENDCHAR

STARTCHAR U+ad93
ENCODING 44435
SWIDTH 1000
DWIDTH 28 0
BBX 28 32 0 0
BITMAP
3FF03000
3FF03000
00303000
00303000
00303000
00303000
0033F000
0033F000
00303000
00303000
00003000
00003000
FFF03000
FFF03000
03003000
03003000
3FF0C0C0
3FF0C0C0
0030C0C0
0030C0C0
3FF0FFC0
3FF0FFC0
3000C0C0
3000C0C0
3FF0FFC0
3FF0FFC0
00000000
00000000
00000000
00000000
00000000
00000000
ENDCHAR

STARTCHAR U+ad94
ENCODING 44436
SWIDTH 1000
DWIDTH 28 0
BBX 28 32 0 0
BITMAP
3FF03000
3FF03000
00303000
00303000
00303000
00303000
0033F000
0033F000
00303000
00303000
00003000
00003000
FFF03000
FFF03000
03003000
03003000
3FF00C00
3FF00C00
00300C00
00300C00
3FF00C00
3FF00C00
30003300
30003300
3FF0C0C0
3FF0C0C0
00000000
00000000
00000000
00000000
00000000
00000000
ENDCHAR

STARTCHAR U+ad95
ENCODING 44437
SWIDTH 1000
DWIDTH 28 0
BBX 28 32 0 0
BITMAP
3FF03000
3FF03000
00303000
00303000
00303000
00303000
0033F000
0033F000
00303000
00303000
00003000
00003000
FFF03000
FFF03000
03003000
03003000
3FF0FFC0
3FF0FFC0
00300000
00300000
3FF0FFC0
3FF0FFC0
3000C000
3000C000
3FF0FFC0
3FF0FFC0
00000000
00000000
00000000
00000000
00000000
00000000
ENDCHAR

STARTCHAR U+ad96
ENCODING 44438
SWIDTH 1000
DWIDTH 28 0
BBX 28 32 0 0
BITMAP
3FF03000
3FF03000
00303000
00303000
00303000
00303000
0033F000
0033F000
00303000
00303000
00003000
00003000
FFF03000
FFF03000
03003000
03003000
3FF0FFC0
3FF0FFC0
00303300
00303300
3FF03300
3FF03300
30003300
30003300
3FF0FFC0
3FF0FFC0
00000000
00000000
00000000
00000000
00000000
00000000
ENDCHAR

STARTCHAR U+ad97
ENCODING 44439
SWIDTH 1000
DWIDTH 28 0
BBX 28 32 0 0
BITMAP
3FF03000
3FF03000
00303000
00303000
00303000
00303000
0033F000
0033F000
00303000
00303000
00003000
00003000
FFF03000
FFF03000
03003000
03003000
3FF00C00
3FF00C00
0030FFC0
0030FFC0
3FF03F00
3FF03F00
3000C0C0
3000C0C0
3FF03F00
3FF03F00
00000000
00000000
00000000
00000000
00000000
00000000
ENDCHAR

STARTCHAR U+ad98
ENCODING 44440
SWIDTH 1000
DWIDTH 28 0
BBX 28 32 0 0
BITMAP
3FF03000
3FF03000
00303000
00303000
00303000
00303000
0033F000
0033F000
00303000
00303000
00003000
00003000
FFF03000
FFF03000
03003000
03003000
3FF00000
3FF00000
30300000
30300000
30300000
30300000
30300000
30300000
3FF00000
3FF00000
00000000
00000000
00000000
00000000
00000000
00000000
ENDCHAR

STARTCHAR U+ad99
ENCODING 44441
SWIDTH 1000
DWIDTH 28 0
BBX 28 32 0 0
BITMAP
3FF03000
3FF03000
00303000
00303000
00303000
00303000
0033F000
0033F000
00303000
00303000
00003000
00003000
FFF03000
FFF03000
03003000
03003000
30300000
30300000
30300000
30300000
3FF00000
3FF00000
30300000
30300000
3FF00000
3FF00000
00000000
00000000
00000000
00000000
00000000
00000000
ENDCHAR

STARTCHAR U+ad9a
ENCODING 44442
SWIDTH 1000
DWIDTH 28 0
BBX 28 32 0 0
BITMAP
3FF03000
3FF03000
00303000
00303000
00303000
00303000
0033F000
0033F000
00303000
00303000
00003000
00003000
FFF03000
FFF03000
03003000
03003000
30300C00
30300C00
30300C00
30300C00
3FF00C00
3FF00C00
30303300
30303300
3FF0C0C0
3FF0C0C0
00000000
00000000
00000000
00000000
00000000
00000000
ENDCHAR

STARTCHAR U+ad9b
ENCODING 44443
SWIDTH 1000
DWIDTH 28 0
BBX 28 32 0 0
BITMAP
3FF03000
3FF03000
00303000
00303000
00303000
00303000
0033F000
0033F000
00303000
00303000
00003000
00003000
FFF03000
FFF03000
03003000
03003000
03000000
03000000
03000000
03000000
03000000
03000000
0CC00000
0CC00000
30300000
30300000
00000000
00000000
00000000
00000000
00000000
00000000
ENDCHAR

STARTCHAR U+ad9c
ENCODING 44444
SWIDTH 1000
DWIDTH 28 0
BBX 28 32 0 0
BITMAP
3FF03000
3FF03000
00303000
00303000
00303000
00303000
0033F000
0033F000
00303000
00303000
00003000
00003000
FFF03000
FFF03000
03003000
03003000
0CC00000
0CC00000
0CC00000
0CC00000
33300000
33300000
C30C0000
C30C0000
00000000
00000000
00000000
00000000
00000000
00000000
00000000
00000000
ENDCHAR

STARTCHAR U+ad9d
ENCODING 44445
SWIDTH 1000
DWIDTH 28 0
BBX 28 32 0 0
BITMAP
3FF03000
3FF03000
00303000
00303000
00303000
00303000
0033F000
0033F000
00303000
00303000
00003000
00003000
FFF03000
FFF03000
03003000
03003000
0FC00000
0FC00000
30300000
30300000
30300000
30300000
30300000
30300000
0FC00000
0FC00000
00000000
00000000
00000000
00000000
00000000
00000000
ENDCHAR

STARTCHAR U+ad9e
ENCODING 44446
SWIDTH 1000
DWIDTH 28 0
BBX 28 32 0 0
BITMAP
3FF03000
3FF03000
00303000
00303000
00303000
00303000
0033F000
0033F000
00303000
00303000
00003000
00003000
FFF03000
FFF03000
03003000
03003000
3FF00000
3FF00000
03000000
03000000
03000000
03000000
0CC00000
0CC00000
30300000
30300000
00000000
00000000
00000000
00000000
00000000
00000000
ENDCHAR

STARTCHAR U+ad9f
ENCODING 44447
SWIDTH 1000
DWIDTH 28 0
BBX 28 32 0 0
BITMAP
3FF03000
3FF03000
00303000
00303000
00303000
00303000
0033F000
0033F000
00303000
00303000
00003000
00003000
FFF03000
FFF03000
03003000
03003000
03000000
03000000
3FF00000
3FF00000
03000000
03000000
0CC00000
0CC00000
30300000
30300000
00000000
00000000
00000000
00000000
00000000
00000000
ENDCHAR

STARTCHAR U+ada0
ENCODING 44448
SWIDTH 1000
DWIDTH 28 0
BBX 28 32 0 0
BITMAP
3FF03000
3FF03000
00303000
00303000
00303000
00303000
0033F000
0033F000
00303000
00303000
00003000
00003000
FFF03000
FFF03000
03003000
03003000
3FF00000
3FF00000
00300000
00300000
3FF00000
3FF00000
00300000
00300000
00C00000
00C00000
00000000
00000000
00000000
00000000
00000000
00000000
ENDCHAR

STARTCHAR U+ada1
ENCODING 44449
SWIDTH 1000
DWIDTH 28 0
BBX 28 32 0 0
BITMAP
3FF03000
3FF03000
00303000
00303000
00303000
00303000
0033F000
0033F000
00303000
00303000
00003000
00003000
FFF03000
FFF03000
03003000
03003000
3FF00000
3FF00000
00000000
00000000
3FF00000
3FF00000
30000000
30000000
3FF00000
3FF00000
00000000
00000000
00000000
00000000
00000000
00000000
ENDCHAR

STARTCHAR U+ada2
ENCODING 44450
SWIDTH 1000
DWIDTH 28 0
BBX 28 32 0 0
BITMAP
3FF03000
3FF03000
00303000
00303000
00303000
00303000
0033F000
0033F000
00303000
00303000
00003000
00003000
FFF03000
FFF03000
03003000
03003000
3FF00000
3FF00000
0CC00000
0CC00000
0CC00000
0CC00000
0CC00000
0CC00000
3FF00000
3FF00000
00000000
00000000
00000000
00000000
00000000
00000000
ENDCHAR

STARTCHAR U+ada3
ENCODING 44451
SWIDTH 1000
DWIDTH 28 0
BBX 28 32 0 0
BITMAP
3FF03000
3FF03000
00303000
00303000
00303000
00303000
0033F000
0033F000
00303000
00303000
00003000
00003000
FFF03000
FFF03000
03003000
03003000
03000000
03000000
3FF00000
3FF00000
0FC00000
0FC00000
30300000
30300000
0FC00000
0FC00000
00000000
00000000
00000000
00000000
00000000
00000000
ENDCHAR

STARTCHAR U+ada4
ENCODING 44452
SWIDTH 1000
DWIDTH 28 0
BBX 28 32 0 0
BITMAP
3FF0CC00
3FF0CC00
0030CC00
0030CC00
0030CC00
0030CC00
0033CC00
0033CC00
0030CC00
0030CC00
0000CC00
0000CC00
0000CC00
0000CC00
0000CC00
0000CC00
FFF0CC00
FFF0CC00
0300CC00
0300CC00
0300CC00
0300CC00
0300CC00
0300CC00
03000000
03000000
00000000
00000000
00000000
00000000
00000000
00000000
ENDCHAR

STARTCHAR U+ada5
ENCODING 44453
SWIDTH 1000
DWIDTH 28 0
BBX 28 32 0 0
BITMAP
3FF0CC00
3FF0CC00
0030CC00
0030CC00
0030CC00
0030CC00
0033CC00
0033CC00
0030CC00
0030CC00
0000CC00
0000CC00
FFF0CC00
FFF0CC00
0300CC00
0300CC00
3FF00000
3FF00000
00300000
00300000
00300000
00300000
00300000
00300000
00300000
00300000
00000000
00000000
00000000
00000000
00000000
00000000
ENDCHAR

STARTCHAR U+ada6
ENCODING 44454
SWIDTH 1000
DWIDTH 28 0
BBX 28 32 0 0
BITMAP
3FF0CC00
3FF0CC00
0030CC00
0030CC00
0030CC00
0030CC00
0033CC00
0033CC00
0030CC00
0030CC00
0000CC00
0000CC00
FFF0CC00
FFF0CC00
0300CC00
0300CC00
3FF00000
3FF00000
03300000
03300000
03300000
03300000
0CC00000
0CC00000
00000000
00000000
00000000
00000000
00000000
00000000
00000000
00000000
ENDCHAR

STARTCHAR U+ada7
ENCODING 44455
SWIDTH 1000
DWIDTH 28 0
BBX 28 32 0 0
BITMAP
3FF0CC00
3FF0CC00
0030CC00
0030CC00
0030CC00
0030CC00
0033CC00
0033CC00
0030CC00
0030CC00
0000CC00
0000CC00
FFF0CC00
FFF0CC00
0300CC00
0300CC00
3FF00C00
3FF00C00
00300C00
00300C00
00300C00
00300C00
00303300
00303300
0030C0C0
0030C0C0
00000000
00000000
00000000
00000000
00000000
00000000
ENDCHAR

STARTCHAR U+ada8
ENCODING 44456
SWIDTH 1000
DWIDTH 28 0
BBX 28 32 0 0
BITMAP
3FF0CC00
3FF0CC00
0030CC00
0030CC00
0030CC00
0030CC00
0033CC00
0033CC00
0030CC00
0030CC00
0000CC00
0000CC00
FFF0CC00
FFF0CC00
0300CC00
0300CC00
30000000
30000000
30000000
30000000
30000000
30000000
30000000
30000000
3FF00000
3FF00000
00000000
00000000
00000000
00000000
00000000
00000000
ENDCHAR

STARTCHAR U+ada9
ENCODING 44457
SWIDTH 1000
DWIDTH 28 0
BBX 28 32 0 0
BITMAP
3FF0CC00
3FF0CC00
0030CC00
0030CC00
0030CC00
0030CC00
0033CC00
0033CC00
0030CC00
0030CC00
0000CC00
0000CC00
FFF0CC00
FFF0CC00
0300CC00
0300CC00
3000FFC0
3000FFC0
30000C00
30000C00
30000C00
30000C00
30003300
30003300
3FF0C0C0
3FF0C0C0
00000000
00000000
00000000
00000000
00000000
00000000
ENDCHAR

STARTCHAR U+adaa
ENCODING 44458
SWIDTH 1000
DWIDTH 28 0
BBX 28 32 0 0
BITMAP
3FF0CC00
3FF0CC00
0030CC00
0030CC00
0030CC00
0030CC00
0033CC00
0033CC00
0030CC00
0030CC00
0000CC00
0000CC00
FFF0CC00
FFF0CC00
0300CC00
0300CC00
30000C00
30000C00
3000FFC0
3000FFC0
30003F00
30003F00
3000C0C0
3000C0C0
3FF03F00
3FF03F00
00000000
00000000
00000000
00000000
00000000
00000000
ENDCHAR

STARTCHAR U+adab
ENCODING 44459
SWIDTH 1000
DWIDTH 28 0
BBX 28 32 0 0
BITMAP
3FF0CC00
3FF0CC00
0030CC00
0030CC00
0030CC00
0030CC00
0033CC00
0033CC00
0030CC00
0030CC00
0000CC00
0000CC00
FFF0CC00
FFF0CC00
0300CC00
0300CC00
3FF00000
3FF00000
30000000
30000000
30000000
30000000
30000000
30000000
3FF00000
3FF00000
00000000
00000000
00000000
00000000
00000000
00000000
ENDCHAR

STARTCHAR U+adac
ENCODING 44460
SWIDTH 1000
DWIDTH 28 0
BBX 28 32 0 0
BITMAP
3FF0CC00
3FF0CC00
0030CC00
0030CC00
0030CC00
0030CC00
0033CC00
0033CC00
0030CC00
0030CC00
0000CC00
0000CC00
FFF0CC00
FFF0CC00
0300CC00
0300CC00
3FF00000
3FF00000
00300000
00300000
3FF00000
3FF00000
30000000
30000000
3FF00000
3FF00000
00000000
00000000
00000000
00000000
00000000
00000000
ENDCHAR

STARTCHAR U+adad
ENCODING 44461
SWIDTH 1000
DWIDTH 28 0
BBX 28 32 0 0
BITMAP
3FF0CC00
3FF0CC00
0030CC00
0030CC00
0030CC00
0030CC00
0033CC00
0033CC00
0030CC00
0030CC00
0000CC00
0000CC00
FFF0CC00
FFF0CC00
0300CC00
0300CC00
3FF0FFC0
3FF0FFC0
003000C0
003000C0
3FF000C0
3FF000C0
300000C0
300000C0
3FF000C0
3FF000C0
00000000
00000000
00000000
00000000
00000000
00000000
ENDCHAR

STARTCHAR U+adae
ENCODING 44462
SWIDTH 1000
DWIDTH 28 0
BBX 28 32 0 0
BITMAP
3FF0CC00
3FF0CC00
0030CC00
0030CC00
0030CC00
0030CC00
0033CC00
0033CC00
0030CC00
0030CC00
0000CC00
0000CC00
FFF0CC00
FFF0CC00
0300CC00
0300CC00
3FF0FFC0
3FF0FFC0
0030C0C0
0030C0C0
3FF0C0C0
3FF0C0C0
3000C0C0
3000C0C0
3FF0FFC0
3FF0FFC0
00000000
00000000
00000000
00000000
00000000
00000000
ENDCHAR

STARTCHAR U+adaf
ENCODING 44463
SWIDTH 1000
DWIDTH 28 0
BBX 28 32 0 0
BITMAP
3FF0CC00
3FF0CC00
0030CC00
0030CC00
0030CC00
0030CC00
0033CC00
0033CC00
0030CC00
0030CC00
0000CC00
0000CC00
FFF0CC00
FFF0CC00
0300CC00
0300CC00
3FF0C0C0
3FF0C0C0
0030C0C0
0030C0C0
3FF0FFC0
3FF0FFC0
3000C0C0
3000C0C0
3FF0FFC0
3FF0FFC0
00000000
00000000
00000000
00000000
00000000
00000000
ENDCHAR

STARTCHAR U+adb0
ENCODING 44464
SWIDTH 1000
DWIDTH 28 0
BBX 28 32 0 0
BITMAP
3FF0CC00
3FF0CC00
0030CC00
0030CC00
0030CC00
0030CC00
0033CC00
0033CC00
0030CC00
0030CC00
0000CC00
0000CC00
FFF0CC00
FFF0CC00
0300CC00
0300CC00
3FF00C00
3FF00C00
00300C00
00300C00
3FF00C00
3FF00C00
30003300
30003300
3FF0C0C0
3FF0C0C0
00000000
00000000
00000000
00000000
00000000
00000000
ENDCHAR

STARTCHAR U+adb1
ENCODING 44465
SWIDTH 1000
DWIDTH 28 0
BBX 28 32 0 0
BITMAP
3FF0CC00
3FF0CC00
0030CC00
0030CC00
0030CC00
0030CC00
0033CC00
0033CC00
0030CC00
0030CC00
0000CC00
0000CC00
FFF0CC00
FFF0CC00
0300CC00
0300CC00
3FF0FFC0
3FF0FFC0
00300000
00300000
3FF0FFC0
3FF0FFC0
3000C000
3000C000
3FF0FFC0
3FF0FFC0
00000000
00000000
00000000
00000000
00000000
00000000
ENDCHAR

STARTCHAR U+adb2
ENCODING 44466
SWIDTH 1000
DWIDTH 28 0
BBX 28 32 0 0
BITMAP
3FF0CC00
3FF0CC00
0030CC00
0030CC00
0030CC00
0030CC00
0033CC00
0033CC00
0030CC00
0030CC00
0000CC00
0000CC00
FFF0CC00
FFF0CC00
0300CC00
0300CC00
3FF0FFC0
3FF0FFC0
00303300
00303300
3FF03300
3FF03300
30003300
30003300
3FF0FFC0
3FF0FFC0
00000000
00000000
00000000
00000000
00000000
00000000
ENDCHAR

STARTCHAR U+adb3
ENCODING 44467
SWIDTH 1000
DWIDTH 28 0
BBX 28 32 0 0
BITMAP
3FF0CC00
3FF0CC00
0030CC00
0030CC00
0030CC00
0030CC00
0033CC00
0033CC00
0030CC00
0030CC00
0000CC00
0000CC00
FFF0CC00
FFF0CC00
0300CC00
0300CC00
3FF00C00
3FF00C00
0030FFC0
0030FFC0
3FF03F00
3FF03F00
3000C0C0
3000C0C0
3FF03F00
3FF03F00
00000000
00000000
00000000
00000000
00000000
00000000
ENDCHAR

STARTCHAR U+adb4
ENCODING 44468
SWIDTH 1000
DWIDTH 28 0
BBX 28 32 0 0
BITMAP
3FF0CC00
3FF0CC00
0030CC00
0030CC00
0030CC00
0030CC00
0033CC00
0033CC00
0030CC00
0030CC00
0000CC00
0000CC00
FFF0CC00
FFF0CC00
0300CC00
0300CC00
3FF00000
3FF00000
30300000
30300000
30300000
30300000
30300000
30300000
3FF00000
3FF00000
00000000
00000000
00000000
00000000
00000000
00000000
ENDCHAR

STARTCHAR U+adb5
ENCODING 44469
SWIDTH 1000
DWIDTH 28 0
BBX 28 32 0 0
BITMAP
3FF0CC00
3FF0CC00
0030CC00
0030CC00
0030CC00
0030CC00
0033CC00
0033CC00
0030CC00
0030CC00
0000CC00
0000CC00
FFF0CC00
FFF0CC00
0300CC00
0300CC00
30300000
30300000
30300000
30300000
3FF00000
3FF00000
30300000
30300000
3FF00000
3FF00000
00000000
00000000
00000000
00000000
00000000
00000000
ENDCHAR

STARTCHAR U+adb6
ENCODING 44470
SWIDTH 1000
DWIDTH 28 0
BBX 28 32 0 0
BITMAP
3FF0CC00
3FF0CC00
0030CC00
0030CC00
0030CC00
0030CC00
0033CC00
0033CC00
0030CC00
0030CC00
0000CC00
0000CC00
FFF0CC00
FFF0CC00
0300CC00
0300CC00
30300C00
30300C00
30300C00
30300C00
3FF00C00
3FF00C00
30303300
30303300
3FF0C0C0
3FF0C0C0
00000000
00000000
00000000
00000000
00000000
00000000
ENDCHAR

STARTCHAR U+adb7
ENCODING 44471
SWIDTH 1000
DWIDTH 28 0
BBX 28 32 0 0
BITMAP
3FF0CC00
3FF0CC00
0030CC00
0030CC00
0030CC00
0030CC00
0033CC00
0033CC00
0030CC00
0030CC00
0000CC00
0000CC00
FFF0CC00
FFF0CC00
0300CC00
0300CC00
03000000
03000000
03000000
03000000
03000000
03000000
0CC00000
0CC00000
30300000
30300000
00000000
00000000
00000000
00000000
00000000
00000000
ENDCHAR

STARTCHAR U+adb8
ENCODING 44472
SWIDTH 1000
DWIDTH 28 0
BBX 28 32 0 0
BITMAP
3FF0CC00
3FF0CC00
0030CC00
0030CC00
0030CC00
0030CC00
0033CC00
0033CC00
0030CC00
0030CC00
0000CC00
0000CC00
FFF0CC00
FFF0CC00
0300CC00
0300CC00
0CC00000
0CC00000
0CC00000
0CC00000
33300000
33300000
C30C0000
C30C0000
00000000
00000000
00000000
00000000
00000000
00000000
00000000
00000000
ENDCHAR

STARTCHAR U+adb9
ENCODING 44473
SWIDTH 1000
DWIDTH 28 0
BBX 28 32 0 0
BITMAP
3FF0CC00
3FF0CC00
0030CC00
0030CC00
0030CC00
0030CC00
0033CC00
0033CC00
0030CC00
0030CC00
0000CC00
0000CC00
FFF0CC00
FFF0CC00
0300CC00
0300CC00
0FC00000
0FC00000
30300000
30300000
30300000
30300000
30300000
30300000
0FC00000
0FC00000
00000000
00000000
00000000
00000000
00000000
00000000
ENDCHAR

STARTCHAR U+adba
ENCODING 44474
SWIDTH 1000
DWIDTH 28 0
BBX 28 32 0 0
BITMAP
3FF0CC00
3FF0CC00
0030CC00
0030CC00
0030CC00
0030CC00
0033CC00
0033CC00
0030CC00
0030CC00
0000CC00
0000CC00
FFF0CC00
FFF0CC00
0300CC00
0300CC00
3FF00000
3FF00000
03000000
03000000
03000000
03000000
0CC00000
0CC00000
30300000
30300000
00000000
00000000
00000000
00000000
00000000
00000000
ENDCHAR

STARTCHAR U+adbb
ENCODING 44475
SWIDTH 1000
DWIDTH 28 0
BBX 28 32 0 0
BITMAP
3FF0CC00
3FF0CC00
0030CC00
0030CC00
0030CC00
0030CC00
0033CC00
0033CC00
0030CC00
0030CC00
0000CC00
0000CC00
FFF0CC00
FFF0CC00
0300CC00
0300CC00
03000000
03000000
3FF00000
3FF00000
03000000
03000000
0CC00000
0CC00000
30300000
30300000
00000000
00000000
00000000
00000000
00000000
00000000
ENDCHAR

STARTCHAR U+adbc
ENCODING 44476
SWIDTH 1000
DWIDTH 28 0
BBX 28 32 0 0
BITMAP
3FF0CC00
3FF0CC00
0030CC00
0030CC00
0030CC00
0030CC00
0033CC00
0033CC00
0030CC00
0030CC00
0000CC00
0000CC00
FFF0CC00
FFF0CC00
0300CC00
0300CC00
3FF00000
3FF00000
00300000
00300000
3FF00000
3FF00000
00300000
00300000
00C00000
00C00000
00000000
00000000
00000000
00000000
00000000
00000000
ENDCHAR

STARTCHAR U+adbd
ENCODING 44477
SWIDTH 1000
DWIDTH 28 0
BBX 28 32 0 0
BITMAP
3FF0CC00
3FF0CC00
0030CC00
0030CC00
0030CC00
0030CC00
0033CC00
0033CC00
0030CC00
0030CC00
0000CC00
0000CC00
FFF0CC00
FFF0CC00
0300CC00
0300CC00
3FF00000
3FF00000
00000000
00000000
3FF00000
3FF00000
30000000
30000000
3FF00000
3FF00000
00000000
00000000
00000000
00000000
00000000
00000000
ENDCHAR

STARTCHAR U+adbe
ENCODING 44478
SWIDTH 1000
DWIDTH 28 0
BBX 28 32 0 0
BITMAP
3FF0CC00
3FF0CC00
0030CC00
0030CC00
0030CC00
0030CC00
0033CC00
0033CC00
0030CC00
0030CC00
0000CC00
0000CC00
FFF0CC00
FFF0CC00
0300CC00
0300CC00
3FF00000
3FF00000
0CC00000
0CC00000
0CC00000
0CC00000
0CC00000
0CC00000
3FF00000
3FF00000
00000000
00000000
00000000
00000000
00000000
00000000
ENDCHAR

STARTCHAR U+adbf
ENCODING 44479
SWIDTH 1000
DWIDTH 28 0
BBX 28 32 0 0
BITMAP
3FF0CC00
3FF0CC00
0030CC00
0030CC00
0030CC00
0030CC00
0033CC00
0033CC00
0030CC00
0030CC00
0000CC00
0000CC00
FFF0CC00
FFF0CC00
0300CC00
0300CC00
03000000
03000000
3FF00000
3FF00000
0FC00000
0FC00000
30300000
30300000
0FC00000
0FC00000
00000000
00000000
00000000
00000000
00000000
00000000
ENDCHAR

STARTCHAR U+adc0
ENCODING 44480
SWIDTH 1000
DWIDTH 28 0
BBX 28 32 0 0
BITMAP
3FF03000
3FF03000
00303000
00303000
00303000
00303000
00303000
00303000
00303000
00303000
00003000
00003000
00003000
00003000
00003000
00003000
FFF03000
FFF03000
03003000
03003000
03003000
03003000
03003000
03003000
03000000
03000000
00000000
00000000
00000000
00000000
00000000
00000000
ENDCHAR

STARTCHAR U+adc1
ENCODING 44481
SWIDTH 1000
DWIDTH 28 0
BBX 28 32 0 0
BITMAP
3FF03000
3FF03000
00303000
00303000
00303000
00303000
00303000
00303000
00303000
00303000
00003000
00003000
FFF03000
FFF03000
03003000
03003000
3FF00000
3FF00000
00300000
00300000
00300000
00300000
00300000
00300000
00300000
00300000
00000000
00000000
00000000
00000000
00000000
00000000
ENDCHAR

STARTCHAR U+adc2
ENCODING 44482
SWIDTH 1000
DWIDTH 28 0
BBX 28 32 0 0
BITMAP
3FF03000
3FF03000
00303000
00303000
00303000
00303000
00303000
00303000
00303000
00303000
00003000
00003000
FFF03000
FFF03000
03003000
03003000
3FF00000
3FF00000
03300000
03300000
03300000
03300000
0CC00000
0CC00000
00000000
00000000
00000000
00000000
00000000
00000000
00000000
00000000
ENDCHAR

ENDFONT
